# Blender 4.4.3
# www.blender.org
o Section2.053
v 40.769753 14.323390 4.879268
v 43.055756 14.323390 4.879268
v 43.055756 18.666790 4.879268
v 40.769753 18.666790 4.879268
v 40.769753 24.076990 4.879268
v 40.769753 32.001789 4.879268
v 38.331352 32.001789 4.879268
v 38.331352 24.076990 4.879268
v 44.274956 32.001789 4.879268
v 40.769753 24.000790 4.879268
v 43.055756 24.000790 4.879268
v 44.274956 24.762793 4.879268
v 49.456551 26.020090 4.879268
v 49.456551 30.744488 4.879268
v 44.503555 30.744490 4.879268
v 44.503555 26.020088 4.879268
v 49.456551 24.800890 4.879268
v 52.961754 24.800890 4.879268
v 52.961754 31.963690 4.879268
v 49.456551 31.963690 4.879268
v 38.102753 32.077988 9.756067
v 38.102753 27.353619 9.756067
v 38.102753 24.762791 9.756067
v 37.797951 32.077988 9.756067
v 37.797951 24.762791 9.756067
v 49.380356 30.744476 4.879268
v 52.961754 30.744490 4.879268
v 49.380356 26.020100 4.879268
v 28.196753 32.077988 9.756067
v 32.921150 32.077988 9.756067
v 23.472353 32.077988 9.756067
v 33.073555 24.762791 9.756067
v 28.349152 24.762791 9.756067
v 23.624752 24.762791 9.756067
v 23.472353 24.762791 9.756067
v 23.472353 30.858789 9.756067
v 23.472353 27.963190 9.756067
v 23.472353 28.877590 9.756067
v 23.472353 25.981991 9.756067
v 28.349152 32.077988 9.756067
v 32.806854 32.077988 9.451267
v 32.806854 31.544516 9.451267
v 31.206652 31.544592 9.451267
v 31.206652 32.077988 9.451267
v 32.806854 32.077988 9.756067
v 32.806854 31.544516 9.756067
v 31.206652 31.544592 9.756067
v 31.206652 32.077988 9.756067
vn -1.0000 -0.0000 -0.0000
vn -0.0000 1.0000 -0.0000
vn 1.0000 -0.0000 -0.0000
vn -0.0000 -0.0000 -1.0000
vt 0.649254 0.518660
vt 0.649254 0.492537
vt 0.664179 0.492537
vt 0.664179 0.518660
vt 0.649254 0.492537
vt 0.649254 0.414179
vt 0.664179 0.414179
vt 0.664179 0.492537
vt 0.649254 0.544780
vt 0.649254 0.518660
vt 0.664179 0.518660
vt 0.664179 0.544780
vt 0.477612 0.652985
vt 0.589552 0.652985
vt 0.589552 0.865672
vt 0.477612 0.865672
vt 0.358209 0.388060
vt 0.358209 0.000000
vt 0.477612 0.000000
vt 0.477612 0.388060
vt 0.649254 0.354478
vt 0.589552 0.391791
vt 0.477612 0.391791
vt 0.649254 0.000000
vt 0.708956 0.238806
vt 0.708955 0.000000
vt 0.940298 0.000000
vt 0.940298 0.238806
vt 0.940298 0.242537
vt 0.708955 0.242537
vt 1.000000 0.242537
vt 1.000000 0.414179
vt 0.940298 0.414179
vt 0.649254 0.414179
vt 0.649254 0.242537
vt 0.358209 0.716418
vt 0.126867 0.716418
vt 0.000000 0.716418
vt 0.000000 0.701492
vt 0.358209 0.701492
vt 0.000000 0.470149
vt 0.000000 0.238806
vt 0.358209 0.238806
vt 0.358209 0.378731
vt 0.358209 0.457090
vt 0.358209 0.462687
vt 0.000000 0.007463
vt 0.000000 0.000000
vt 0.059702 0.000000
vt 0.156716 0.000000
vt 0.201493 0.000000
vt 0.298507 0.000000
vt 0.358209 0.000000
vt 0.358209 0.231343
s 0
f 46/1/1 45/2/1 41/3/1 42/4/1
f 47/5/2 46/6/2 42/7/2 43/8/2
f 48/9/3 47/10/3 43/11/3 44/12/3
f 4/13/4 3/14/4 2/15/4 1/16/4
f 8/17/4 7/18/4 6/19/4 5/20/4
f 12/21/4 11/22/4 10/23/4 5/20/4 6/19/4 9/24/4
f 3/14/4 4/13/4 10/23/4 11/22/4
f 28/25/4 16/26/4 15/27/4 26/28/4 14/29/4 13/30/4
f 13/30/4 14/29/4 20/31/4 19/32/4 27/33/4 18/34/4 17/35/4
f 21/36/4 22/37/4 23/38/4 25/39/4 24/40/4
f 32/41/4 33/42/4 40/43/4 48/44/4 45/45/4 30/46/4 24/40/4 25/39/4
f 33/42/4 34/47/4 35/48/4 39/49/4 37/50/4 38/51/4 36/52/4 31/53/4 29/54/4 40/43/4
