# Blender 5.0.1
# www.blender.org
mtllib fileBox.mtl
o filebox_1980_model.dmx.003
v 5.607144 3.077938 -0.000000
v 5.607144 3.077938 0.228600
v 5.607144 2.701700 0.228600
v 5.607144 2.701700 -0.000000
v 5.888132 2.701701 0.228600
v 5.888132 2.701701 -0.000000
v 5.607144 2.701700 -0.000000
v 5.607144 2.701700 0.228600
v 5.700108 2.701701 0.200025
v 5.700108 2.701701 0.161925
v 5.795358 2.701701 0.161925
v 5.795358 2.701701 0.200025
v 5.885846 3.075464 0.004762
v 5.885846 2.703989 0.004762
v 5.609621 2.703989 0.004762
v 5.609621 3.075464 0.004762
v 5.609621 3.075464 0.228600
v 5.609621 3.075464 0.004762
v 5.609621 2.703989 0.004762
v 5.609621 2.703989 0.228600
v 5.700108 2.701701 0.200025
v 5.700108 2.703989 0.200025
v 5.700108 2.703989 0.161925
v 5.700108 2.701701 0.161925
v 5.795358 2.701701 0.200025
v 5.795358 2.703989 0.200025
v 5.700108 2.703989 0.200025
v 5.700108 2.701701 0.200025
v 5.795358 2.701701 0.161925
v 5.795358 2.703989 0.161925
v 5.795358 2.703989 0.200025
v 5.795358 2.701701 0.200025
v 5.700108 2.701701 0.161925
v 5.700108 2.703989 0.161925
v 5.795358 2.703989 0.161925
v 5.795358 2.701701 0.161925
v 5.885846 2.703989 0.228600
v 5.885846 2.703989 0.004762
v 5.885846 3.075464 0.004762
v 5.885846 3.075464 0.228600
v 5.888132 2.701701 -0.000000
v 5.888132 2.701701 0.228600
v 5.888132 3.077938 0.228600
v 5.888132 3.077938 -0.000000
v 5.700108 3.075464 0.200025
v 5.700108 3.077938 0.200025
v 5.700108 3.077938 0.161925
v 5.700108 3.075464 0.161925
v 5.795358 3.075464 0.200025
v 5.795358 3.077938 0.200025
v 5.700108 3.077938 0.200025
v 5.700108 3.075464 0.200025
v 5.795358 3.075464 0.161925
v 5.795358 3.077938 0.161925
v 5.795358 3.077938 0.200025
v 5.795358 3.075464 0.200025
v 5.700108 3.075464 0.161925
v 5.700108 3.077938 0.161925
v 5.795358 3.077938 0.161925
v 5.795358 3.075464 0.161925
v 5.607144 2.701700 -0.000000
v 5.888132 2.701701 -0.000000
v 5.888132 3.077938 -0.000000
v 5.607144 3.077938 -0.000000
v 5.888132 3.077938 0.228600
v 5.795358 3.077938 0.200025
v 5.795358 3.077938 0.161925
v 5.888132 3.077938 -0.000000
v 5.700108 3.077938 0.161925
v 5.607144 3.077938 0.228600
v 5.700108 3.077938 0.200025
v 5.607144 3.077938 -0.000000
v 5.609621 2.703989 0.004762
v 5.885846 2.703989 0.004762
v 5.885846 2.703989 0.228600
v 5.700108 2.703989 0.200025
v 5.795358 2.703989 0.200025
v 5.795358 2.703989 0.161925
v 5.700108 2.703989 0.161925
v 5.609621 2.703989 0.228600
v 5.885846 2.703989 0.228600
v 5.885846 3.075464 0.228600
v 5.888132 2.701701 0.228600
v 5.888132 3.077938 0.228600
v 5.609621 3.075464 0.228600
v 5.607144 3.077938 0.228600
v 5.609621 2.703989 0.228600
v 5.607144 2.701700 0.228600
v 5.609621 3.075464 0.228600
v 5.885846 3.075464 0.228600
v 5.795358 3.075464 0.200025
v 5.795358 3.075464 0.161925
v 5.609621 3.075464 0.004762
v 5.700108 3.075464 0.161925
v 5.700108 3.075464 0.200025
v 5.885846 3.075464 0.004762
v 1.831412 4.592669 -0.000000
v 1.831412 4.592669 0.228600
v 2.207650 4.592669 0.228600
v 2.207650 4.592669 -0.000000
v 2.207650 4.873656 0.228600
v 2.207650 4.873656 -0.000000
v 2.207650 4.592669 -0.000000
v 2.207650 4.592669 0.228600
v 2.207650 4.685633 0.200025
v 2.207650 4.685633 0.161925
v 2.207650 4.780883 0.161925
v 2.207650 4.780883 0.200025
v 1.833887 4.871370 0.004762
v 2.205362 4.871370 0.004762
v 2.205362 4.595145 0.004762
v 1.833887 4.595145 0.004762
v 1.833887 4.595145 0.228600
v 1.833887 4.595145 0.004762
v 2.205362 4.595145 0.004762
v 2.205362 4.595145 0.228600
v 2.207650 4.685633 0.200025
v 2.205362 4.685633 0.200025
v 2.205362 4.685633 0.161925
v 2.207650 4.685633 0.161925
v 2.207650 4.780883 0.200025
v 2.205362 4.780883 0.200025
v 2.205362 4.685633 0.200025
v 2.207650 4.685633 0.200025
v 2.207650 4.780883 0.161925
v 2.205362 4.780883 0.161925
v 2.205362 4.780883 0.200025
v 2.207650 4.780883 0.200025
v 2.207650 4.685633 0.161925
v 2.205362 4.685633 0.161925
v 2.205362 4.780883 0.161925
v 2.207650 4.780883 0.161925
v 2.205362 4.871370 0.228600
v 2.205362 4.871370 0.004762
v 1.833887 4.871370 0.004762
v 1.833887 4.871370 0.228600
v 2.207650 4.873656 -0.000000
v 2.207650 4.873656 0.228600
v 1.831412 4.873656 0.228600
v 1.831412 4.873656 -0.000000
v 1.833887 4.685633 0.200025
v 1.831413 4.685633 0.200025
v 1.831413 4.685633 0.161925
v 1.833887 4.685633 0.161925
v 1.833887 4.780883 0.200025
v 1.831413 4.780883 0.200025
v 1.831413 4.685633 0.200025
v 1.833887 4.685633 0.200025
v 1.833887 4.780883 0.161925
v 1.831413 4.780883 0.161925
v 1.831413 4.780883 0.200025
v 1.833887 4.780883 0.200025
v 1.833887 4.685633 0.161925
v 1.831413 4.685633 0.161925
v 1.831413 4.780883 0.161925
v 1.833887 4.780883 0.161925
v 2.207650 4.592669 -0.000000
v 2.207650 4.873656 -0.000000
v 1.831412 4.873656 -0.000000
v 1.831412 4.592669 -0.000000
v 1.831412 4.873656 0.228600
v 1.831413 4.780883 0.200025
v 1.831413 4.780883 0.161925
v 1.831412 4.873656 -0.000000
v 1.831413 4.685633 0.161925
v 1.831412 4.592669 0.228600
v 1.831413 4.685633 0.200025
v 1.831412 4.592669 -0.000000
v 2.205362 4.595145 0.004762
v 2.205362 4.871370 0.004762
v 2.205362 4.871370 0.228600
v 2.205362 4.685633 0.200025
v 2.205362 4.780883 0.200025
v 2.205362 4.780883 0.161925
v 2.205362 4.685633 0.161925
v 2.205362 4.595145 0.228600
v 2.205362 4.871370 0.228600
v 1.833887 4.871370 0.228600
v 2.207650 4.873656 0.228600
v 1.831412 4.873656 0.228600
v 1.833887 4.595145 0.228600
v 1.831412 4.592669 0.228600
v 2.205362 4.595145 0.228600
v 2.207650 4.592669 0.228600
v 1.833887 4.595145 0.228600
v 1.833887 4.871370 0.228600
v 1.833887 4.780883 0.200025
v 1.833887 4.780883 0.161925
v 1.833887 4.595145 0.004762
v 1.833887 4.685633 0.161925
v 1.833887 4.685633 0.200025
v 1.833887 4.871370 0.004762
v 1.650518 4.521800 -0.000000
v 1.650518 4.521800 0.228600
v 1.650518 4.898038 0.228600
v 1.650518 4.898038 -0.000000
v 1.369530 4.898038 0.228600
v 1.369530 4.898038 -0.000000
v 1.650518 4.898038 -0.000000
v 1.650518 4.898038 0.228600
v 1.557554 4.898038 0.200025
v 1.557554 4.898038 0.161925
v 1.462304 4.898038 0.161925
v 1.462304 4.898038 0.200025
v 1.371817 4.524274 0.004762
v 1.371816 4.895750 0.004762
v 1.648041 4.895749 0.004762
v 1.648042 4.524274 0.004762
v 1.648042 4.524274 0.228600
v 1.648042 4.524274 0.004762
v 1.648041 4.895749 0.004762
v 1.648041 4.895749 0.228600
v 1.557554 4.898038 0.200025
v 1.557554 4.895749 0.200025
v 1.557554 4.895749 0.161925
v 1.557554 4.898038 0.161925
v 1.462304 4.898038 0.200025
v 1.462304 4.895750 0.200025
v 1.557554 4.895749 0.200025
v 1.557554 4.898038 0.200025
v 1.462304 4.898038 0.161925
v 1.462304 4.895750 0.161925
v 1.462304 4.895750 0.200025
v 1.462304 4.898038 0.200025
v 1.557554 4.898038 0.161925
v 1.557554 4.895749 0.161925
v 1.462304 4.895750 0.161925
v 1.462304 4.898038 0.161925
v 1.371816 4.895750 0.228600
v 1.371816 4.895750 0.004762
v 1.371817 4.524274 0.004762
v 1.371817 4.524274 0.228600
v 1.369530 4.898038 -0.000000
v 1.369530 4.898038 0.228600
v 1.369531 4.521800 0.228600
v 1.369531 4.521800 -0.000000
v 1.557554 4.524274 0.200025
v 1.557554 4.521800 0.200025
v 1.557554 4.521800 0.161925
v 1.557554 4.524274 0.161925
v 1.462304 4.524274 0.200025
v 1.462304 4.521800 0.200025
v 1.557554 4.521800 0.200025
v 1.557554 4.524274 0.200025
v 1.462304 4.524274 0.161925
v 1.462304 4.521800 0.161925
v 1.462304 4.521800 0.200025
v 1.462304 4.524274 0.200025
v 1.557554 4.524274 0.161925
v 1.557554 4.521800 0.161925
v 1.462304 4.521800 0.161925
v 1.462304 4.524274 0.161925
v 1.650518 4.898038 -0.000000
v 1.369530 4.898038 -0.000000
v 1.369531 4.521800 -0.000000
v 1.650518 4.521800 -0.000000
v 1.369531 4.521800 0.228600
v 1.462304 4.521800 0.200025
v 1.462304 4.521800 0.161925
v 1.369531 4.521800 -0.000000
v 1.557554 4.521800 0.161925
v 1.650518 4.521800 0.228600
v 1.557554 4.521800 0.200025
v 1.650518 4.521800 -0.000000
v 1.648041 4.895749 0.004762
v 1.371816 4.895750 0.004762
v 1.371816 4.895750 0.228600
v 1.557554 4.895749 0.200025
v 1.462304 4.895750 0.200025
v 1.462304 4.895750 0.161925
v 1.557554 4.895749 0.161925
v 1.648041 4.895749 0.228600
v 1.371816 4.895750 0.228600
v 1.371817 4.524274 0.228600
v 1.369530 4.898038 0.228600
v 1.369531 4.521800 0.228600
v 1.648042 4.524274 0.228600
v 1.650518 4.521800 0.228600
v 1.648041 4.895749 0.228600
v 1.650518 4.898038 0.228600
v 1.648042 4.524274 0.228600
v 1.371817 4.524274 0.228600
v 1.462304 4.524274 0.200025
v 1.462304 4.524274 0.161925
v 1.648042 4.524274 0.004762
v 1.557554 4.524274 0.161925
v 1.557554 4.524274 0.200025
v 1.371817 4.524274 0.004762
v 5.426250 3.007070 -0.000000
v 5.426250 3.007070 0.228600
v 5.050013 3.007070 0.228600
v 5.050013 3.007070 -0.000000
v 5.050012 2.726082 0.228600
v 5.050012 2.726082 -0.000000
v 5.050013 3.007070 -0.000000
v 5.050013 3.007070 0.228600
v 5.050013 2.914106 0.200025
v 5.050013 2.914106 0.161925
v 5.050012 2.818856 0.161925
v 5.050012 2.818856 0.200025
v 5.423776 2.728368 0.004762
v 5.052300 2.728368 0.004762
v 5.052300 3.004593 0.004762
v 5.423776 3.004593 0.004762
v 5.423776 3.004593 0.228600
v 5.423776 3.004593 0.004762
v 5.052300 3.004593 0.004762
v 5.052300 3.004593 0.228600
v 5.050013 2.914106 0.200025
v 5.052300 2.914106 0.200025
v 5.052300 2.914106 0.161925
v 5.050013 2.914106 0.161925
v 5.050012 2.818856 0.200025
v 5.052300 2.818856 0.200025
v 5.052300 2.914106 0.200025
v 5.050013 2.914106 0.200025
v 5.050012 2.818856 0.161925
v 5.052300 2.818856 0.161925
v 5.052300 2.818856 0.200025
v 5.050012 2.818856 0.200025
v 5.050013 2.914106 0.161925
v 5.052300 2.914106 0.161925
v 5.052300 2.818856 0.161925
v 5.050012 2.818856 0.161925
v 5.052300 2.728368 0.228600
v 5.052300 2.728368 0.004762
v 5.423776 2.728368 0.004762
v 5.423776 2.728368 0.228600
v 5.050012 2.726082 -0.000000
v 5.050012 2.726082 0.228600
v 5.426250 2.726082 0.228600
v 5.426250 2.726082 -0.000000
v 5.423776 2.914106 0.200025
v 5.426250 2.914106 0.200025
v 5.426250 2.914106 0.161925
v 5.423776 2.914106 0.161925
v 5.423776 2.818856 0.200025
v 5.426250 2.818856 0.200025
v 5.426250 2.914106 0.200025
v 5.423776 2.914106 0.200025
v 5.423776 2.818856 0.161925
v 5.426250 2.818856 0.161925
v 5.426250 2.818856 0.200025
v 5.423776 2.818856 0.200025
v 5.423776 2.914106 0.161925
v 5.426250 2.914106 0.161925
v 5.426250 2.818856 0.161925
v 5.423776 2.818856 0.161925
v 5.050013 3.007070 -0.000000
v 5.050012 2.726082 -0.000000
v 5.426250 2.726082 -0.000000
v 5.426250 3.007070 -0.000000
v 5.426250 2.726082 0.228600
v 5.426250 2.818856 0.200025
v 5.426250 2.818856 0.161925
v 5.426250 2.726082 -0.000000
v 5.426250 2.914106 0.161925
v 5.426250 3.007070 0.228600
v 5.426250 2.914106 0.200025
v 5.426250 3.007070 -0.000000
v 5.052300 3.004593 0.004762
v 5.052300 2.728368 0.004762
v 5.052300 2.728368 0.228600
v 5.052300 2.914106 0.200025
v 5.052300 2.818856 0.200025
v 5.052300 2.818856 0.161925
v 5.052300 2.914106 0.161925
v 5.052300 3.004593 0.228600
v 5.052300 2.728368 0.228600
v 5.423776 2.728368 0.228600
v 5.050012 2.726082 0.228600
v 5.426250 2.726082 0.228600
v 5.423776 3.004593 0.228600
v 5.426250 3.007070 0.228600
v 5.052300 3.004593 0.228600
v 5.050013 3.007070 0.228600
v 5.423776 3.004593 0.228600
v 5.423776 2.728368 0.228600
v 5.423776 2.818856 0.200025
v 5.423776 2.818856 0.161925
v 5.423776 3.004593 0.004762
v 5.423776 2.914106 0.161925
v 5.423776 2.914106 0.200025
v 5.423776 2.728368 0.004762
vn -0.0000 -1.0000 -0.0000
vn -0.0000 -0.0000 1.0000
vn -0.0000 1.0000 -0.0000
vn -0.0000 -0.0000 -1.0000
vn -1.0000 -0.0000 -0.0000
vn 1.0000 -0.0000 -0.0000
vt 0.493640 0.026510
vt 0.493640 0.217575
vt 0.347331 0.217575
vt 0.366009 0.089100
vt 0.366009 0.154985
vt 0.347331 0.026510
vt 0.390913 0.089100
vt 0.390913 0.154985
vt 0.176181 0.975533
vt 0.177479 0.974260
vt 0.334315 0.974260
vt 0.335721 0.975533
vt 0.335721 0.766158
vt 0.334315 0.767535
vt 0.176181 0.766158
vt 0.177479 0.767535
vt 0.347153 0.724826
vt 0.347153 0.533760
vt 0.365830 0.662236
vt 0.390734 0.662236
vt 0.493461 0.724826
vt 0.390734 0.596351
vt 0.365830 0.596351
vt 0.493461 0.533760
vt 0.164770 0.277858
vt 0.164770 0.468924
vt 0.003543 0.468924
vt 0.023697 0.340942
vt 0.003543 0.277858
vt 0.023697 0.405710
vt 0.050568 0.405710
vt 0.050568 0.340942
vt 0.335268 0.473056
vt 0.175729 0.473056
vt 0.335268 0.263681
vt 0.175729 0.263681
vt 0.213952 0.173228
vt 0.213952 0.167700
vt 0.245840 0.173228
vt 0.245840 0.167700
vt 0.289787 0.173228
vt 0.289787 0.167700
vt 0.301847 0.173228
vt 0.301847 0.167700
vt 0.257899 0.173228
vt 0.257899 0.167700
vt 0.164770 0.027109
vt 0.003543 0.027109
vt 0.347331 0.468324
vt 0.493640 0.468324
vt 0.213952 0.186493
vt 0.213952 0.180966
vt 0.245840 0.186493
vt 0.245840 0.180966
vt 0.289787 0.186493
vt 0.289787 0.180966
vt 0.301847 0.186493
vt 0.301847 0.180966
vt 0.257899 0.186493
vt 0.257899 0.180966
vt 0.347153 0.975575
vt 0.493461 0.975575
vt 0.175154 0.694197
vt 0.175154 0.484822
vt 0.334694 0.694197
vt 0.334694 0.484822
vt 0.023573 0.846931
vt 0.003419 0.974783
vt 0.003419 0.783717
vt 0.023573 0.911699
vt 0.050444 0.911699
vt 0.164646 0.783717
vt 0.050444 0.846931
vt 0.164646 0.974783
vt 0.164646 0.532968
vt 0.003419 0.532968
s 1
usemtl models/props_office/filebox_1980
f 93/1/1 96/2/1 90/3/1
f 95/4/1 91/5/1 89/6/1
f 94/7/1 95/4/1 89/6/1
f 89/6/1 93/1/1 94/7/1
f 92/8/1 94/7/1 93/1/1
f 90/3/1 92/8/1 93/1/1
f 90/3/1 91/5/1 92/8/1
f 91/5/1 90/3/1 89/6/1
f 83/9/2 81/10/2 87/11/2
f 88/12/2 83/9/2 87/11/2
f 87/11/2 86/13/2 88/12/2
f 86/13/2 87/11/2 85/14/2
f 85/14/2 84/15/2 86/13/2
f 85/14/2 82/16/2 84/15/2
f 82/16/2 83/9/2 84/15/2
f 83/9/2 82/16/2 81/10/2
f 80/17/3 75/18/3 76/19/3
f 80/17/3 76/19/3 79/20/3
f 73/21/3 80/17/3 79/20/3
f 79/20/3 78/22/3 73/21/3
f 73/21/3 78/22/3 75/18/3
f 78/22/3 77/23/3 75/18/3
f 77/23/3 76/19/3 75/18/3
f 75/18/3 74/24/3 73/21/3
f 68/25/3 72/26/3 70/27/3
f 66/28/3 70/27/3 65/29/3
f 70/27/3 66/28/3 71/30/3
f 70/27/3 71/30/3 69/31/3
f 70/27/3 69/31/3 68/25/3
f 68/25/3 69/31/3 67/32/3
f 67/32/3 65/29/3 68/25/3
f 67/32/3 66/28/3 65/29/3
f 64/33/4 63/34/4 61/35/4
f 63/34/4 62/36/4 61/35/4
f 60/37/2 59/38/2 57/39/2
f 59/38/2 58/40/2 57/39/2
f 56/41/5 55/42/5 53/43/5
f 55/42/5 54/44/5 53/43/5
f 52/45/4 51/46/4 49/41/4
f 51/46/4 50/42/4 49/41/4
f 48/39/6 47/40/6 45/45/6
f 47/40/6 46/46/6 45/45/6
f 44/25/6 43/29/6 41/47/6
f 43/29/6 42/48/6 41/47/6
f 40/3/5 39/2/5 37/49/5
f 39/2/5 38/50/5 37/49/5
f 36/51/2 35/52/2 33/53/2
f 35/52/2 34/54/2 33/53/2
f 32/55/5 31/56/5 29/57/5
f 31/56/5 30/58/5 29/57/5
f 28/59/4 27/60/4 25/55/4
f 27/60/4 26/56/4 25/55/4
f 24/53/6 23/54/6 21/59/6
f 23/54/6 22/60/6 21/59/6
f 20/17/6 19/21/6 17/61/6
f 19/21/6 18/62/6 17/61/6
f 16/63/2 15/64/2 13/65/2
f 15/64/2 14/66/2 13/65/2
f 9/67/1 5/68/1 8/69/1
f 5/68/1 9/67/1 12/70/1
f 5/68/1 12/70/1 11/71/1
f 5/68/1 11/71/1 7/72/1
f 7/72/1 11/71/1 10/73/1
f 10/73/1 8/69/1 7/72/1
f 10/73/1 9/67/1 8/69/1
f 7/72/1 6/74/1 5/68/1
f 4/72/5 3/69/5 1/75/5
f 3/69/5 2/76/5 1/75/5
f 189/1/6 192/2/6 186/3/6
f 191/4/6 187/5/6 185/6/6
f 190/7/6 191/4/6 185/6/6
f 185/6/6 189/1/6 190/7/6
f 188/8/6 190/7/6 189/1/6
f 186/3/6 188/8/6 189/1/6
f 186/3/6 187/5/6 188/8/6
f 187/5/6 186/3/6 185/6/6
f 179/9/2 177/10/2 183/11/2
f 184/12/2 179/9/2 183/11/2
f 183/11/2 182/13/2 184/12/2
f 182/13/2 183/11/2 181/14/2
f 181/14/2 180/15/2 182/13/2
f 181/14/2 178/16/2 180/15/2
f 178/16/2 179/9/2 180/15/2
f 179/9/2 178/16/2 177/10/2
f 176/17/5 171/18/5 172/19/5
f 176/17/5 172/19/5 175/20/5
f 169/21/5 176/17/5 175/20/5
f 175/20/5 174/22/5 169/21/5
f 169/21/5 174/22/5 171/18/5
f 174/22/5 173/23/5 171/18/5
f 173/23/5 172/19/5 171/18/5
f 171/18/5 170/24/5 169/21/5
f 164/25/5 168/26/5 166/27/5
f 162/28/5 166/27/5 161/29/5
f 166/27/5 162/28/5 167/30/5
f 166/27/5 167/30/5 165/31/5
f 166/27/5 165/31/5 164/25/5
f 164/25/5 165/31/5 163/32/5
f 163/32/5 161/29/5 164/25/5
f 163/32/5 162/28/5 161/29/5
f 160/33/4 159/34/4 157/35/4
f 159/34/4 158/36/4 157/35/4
f 156/37/2 155/38/2 153/39/2
f 155/38/2 154/40/2 153/39/2
f 152/41/1 151/42/1 149/43/1
f 151/42/1 150/44/1 149/43/1
f 148/45/4 147/46/4 145/41/4
f 147/46/4 146/42/4 145/41/4
f 144/39/3 143/40/3 141/45/3
f 143/40/3 142/46/3 141/45/3
f 140/25/3 139/29/3 137/47/3
f 139/29/3 138/48/3 137/47/3
f 136/3/1 135/2/1 133/49/1
f 135/2/1 134/50/1 133/49/1
f 132/51/2 131/52/2 129/53/2
f 131/52/2 130/54/2 129/53/2
f 128/55/1 127/56/1 125/57/1
f 127/56/1 126/58/1 125/57/1
f 124/59/4 123/60/4 121/55/4
f 123/60/4 122/56/4 121/55/4
f 120/53/3 119/54/3 117/59/3
f 119/54/3 118/60/3 117/59/3
f 116/17/3 115/21/3 113/61/3
f 115/21/3 114/62/3 113/61/3
f 112/63/2 111/64/2 109/65/2
f 111/64/2 110/66/2 109/65/2
f 105/67/6 101/68/6 104/69/6
f 101/68/6 105/67/6 108/70/6
f 101/68/6 108/70/6 107/71/6
f 101/68/6 107/71/6 103/72/6
f 103/72/6 107/71/6 106/73/6
f 106/73/6 104/69/6 103/72/6
f 106/73/6 105/67/6 104/69/6
f 103/72/6 102/74/6 101/68/6
f 100/72/1 99/69/1 97/75/1
f 99/69/1 98/76/1 97/75/1
f 285/1/3 288/2/3 282/3/3
f 287/4/3 283/5/3 281/6/3
f 286/7/3 287/4/3 281/6/3
f 281/6/3 285/1/3 286/7/3
f 284/8/3 286/7/3 285/1/3
f 282/3/3 284/8/3 285/1/3
f 282/3/3 283/5/3 284/8/3
f 283/5/3 282/3/3 281/6/3
f 275/9/2 273/10/2 279/11/2
f 280/12/2 275/9/2 279/11/2
f 279/11/2 278/13/2 280/12/2
f 278/13/2 279/11/2 277/14/2
f 277/14/2 276/15/2 278/13/2
f 277/14/2 274/16/2 276/15/2
f 274/16/2 275/9/2 276/15/2
f 275/9/2 274/16/2 273/10/2
f 272/17/1 267/18/1 268/19/1
f 272/17/1 268/19/1 271/20/1
f 265/21/1 272/17/1 271/20/1
f 271/20/1 270/22/1 265/21/1
f 265/21/1 270/22/1 267/18/1
f 270/22/1 269/23/1 267/18/1
f 269/23/1 268/19/1 267/18/1
f 267/18/1 266/24/1 265/21/1
f 260/25/1 264/26/1 262/27/1
f 258/28/1 262/27/1 257/29/1
f 262/27/1 258/28/1 263/30/1
f 262/27/1 263/30/1 261/31/1
f 262/27/1 261/31/1 260/25/1
f 260/25/1 261/31/1 259/32/1
f 259/32/1 257/29/1 260/25/1
f 259/32/1 258/28/1 257/29/1
f 256/33/4 255/34/4 253/35/4
f 255/34/4 254/36/4 253/35/4
f 252/37/2 251/38/2 249/39/2
f 251/38/2 250/40/2 249/39/2
f 248/41/6 247/42/6 245/43/6
f 247/42/6 246/44/6 245/43/6
f 244/45/4 243/46/4 241/41/4
f 243/46/4 242/42/4 241/41/4
f 240/39/5 239/40/5 237/45/5
f 239/40/5 238/46/5 237/45/5
f 236/25/5 235/29/5 233/47/5
f 235/29/5 234/48/5 233/47/5
f 232/3/6 231/2/6 229/49/6
f 231/2/6 230/50/6 229/49/6
f 228/51/2 227/52/2 225/53/2
f 227/52/2 226/54/2 225/53/2
f 224/55/6 223/56/6 221/57/6
f 223/56/6 222/58/6 221/57/6
f 220/59/4 219/60/4 217/55/4
f 219/60/4 218/56/4 217/55/4
f 216/53/5 215/54/5 213/59/5
f 215/54/5 214/60/5 213/59/5
f 212/17/5 211/21/5 209/61/5
f 211/21/5 210/62/5 209/61/5
f 208/63/2 207/64/2 205/65/2
f 207/64/2 206/66/2 205/65/2
f 201/67/3 197/68/3 200/69/3
f 197/68/3 201/67/3 204/70/3
f 197/68/3 204/70/3 203/71/3
f 197/68/3 203/71/3 199/72/3
f 199/72/3 203/71/3 202/73/3
f 202/73/3 200/69/3 199/72/3
f 202/73/3 201/67/3 200/69/3
f 199/72/3 198/74/3 197/68/3
f 196/72/6 195/69/6 193/75/6
f 195/69/6 194/76/6 193/75/6
f 381/1/5 384/2/5 378/3/5
f 383/4/5 379/5/5 377/6/5
f 382/7/5 383/4/5 377/6/5
f 377/6/5 381/1/5 382/7/5
f 380/8/5 382/7/5 381/1/5
f 378/3/5 380/8/5 381/1/5
f 378/3/5 379/5/5 380/8/5
f 379/5/5 378/3/5 377/6/5
f 371/9/2 369/10/2 375/11/2
f 376/12/2 371/9/2 375/11/2
f 375/11/2 374/13/2 376/12/2
f 374/13/2 375/11/2 373/14/2
f 373/14/2 372/15/2 374/13/2
f 373/14/2 370/16/2 372/15/2
f 370/16/2 371/9/2 372/15/2
f 371/9/2 370/16/2 369/10/2
f 368/17/6 363/18/6 364/19/6
f 368/17/6 364/19/6 367/20/6
f 361/21/6 368/17/6 367/20/6
f 367/20/6 366/22/6 361/21/6
f 361/21/6 366/22/6 363/18/6
f 366/22/6 365/23/6 363/18/6
f 365/23/6 364/19/6 363/18/6
f 363/18/6 362/24/6 361/21/6
f 356/25/6 360/26/6 358/27/6
f 354/28/6 358/27/6 353/29/6
f 358/27/6 354/28/6 359/30/6
f 358/27/6 359/30/6 357/31/6
f 358/27/6 357/31/6 356/25/6
f 356/25/6 357/31/6 355/32/6
f 355/32/6 353/29/6 356/25/6
f 355/32/6 354/28/6 353/29/6
f 352/33/4 351/34/4 349/35/4
f 351/34/4 350/36/4 349/35/4
f 348/37/2 347/38/2 345/39/2
f 347/38/2 346/40/2 345/39/2
f 344/41/3 343/42/3 341/43/3
f 343/42/3 342/44/3 341/43/3
f 340/45/4 339/46/4 337/41/4
f 339/46/4 338/42/4 337/41/4
f 336/39/1 335/40/1 333/45/1
f 335/40/1 334/46/1 333/45/1
f 332/25/1 331/29/1 329/47/1
f 331/29/1 330/48/1 329/47/1
f 328/3/3 327/2/3 325/49/3
f 327/2/3 326/50/3 325/49/3
f 324/51/2 323/52/2 321/53/2
f 323/52/2 322/54/2 321/53/2
f 320/55/3 319/56/3 317/57/3
f 319/56/3 318/58/3 317/57/3
f 316/59/4 315/60/4 313/55/4
f 315/60/4 314/56/4 313/55/4
f 312/53/1 311/54/1 309/59/1
f 311/54/1 310/60/1 309/59/1
f 308/17/1 307/21/1 305/61/1
f 307/21/1 306/62/1 305/61/1
f 304/63/2 303/64/2 301/65/2
f 303/64/2 302/66/2 301/65/2
f 297/67/5 293/68/5 296/69/5
f 293/68/5 297/67/5 300/70/5
f 293/68/5 300/70/5 299/71/5
f 293/68/5 299/71/5 295/72/5
f 295/72/5 299/71/5 298/73/5
f 298/73/5 296/69/5 295/72/5
f 298/73/5 297/67/5 296/69/5
f 295/72/5 294/74/5 293/68/5
f 292/72/3 291/69/3 289/75/3
f 291/69/3 290/76/3 289/75/3
