# Blender 5.0.1
# www.blender.org
mtllib FileRacks.mtl
o file_rack_1970_model.dmx.002
v -4.632447 2.876488 0.620731
v -4.899147 3.059844 0.646925
v -4.899147 3.052701 0.646925
v -4.899147 3.052701 0.620731
v -4.899147 2.876488 0.646925
v -4.899147 2.869344 0.620731
v -4.899147 2.876488 0.615969
v -4.899147 2.876488 0.620731
v -4.899147 2.869344 0.646925
v -4.899147 3.052701 0.615969
v -4.892003 2.876488 0.615969
v -4.632447 2.876488 0.615969
v -4.892003 3.052701 0.615969
v -4.670547 3.052701 0.646925
v -4.892003 3.059844 0.646925
v -4.670547 2.876488 0.646925
v -4.632447 3.052701 0.620731
v -4.892003 2.876488 0.620731
v -4.892003 2.876488 0.646925
v -4.892003 3.052701 0.646925
v -4.892003 3.052701 0.620731
v -4.892003 2.869344 0.620731
v -4.892003 2.869344 0.646925
v -4.670547 2.869344 0.646925
v -4.892003 2.869344 0.615969
v -4.899147 2.869344 0.615969
v -4.899147 3.059844 0.620731
v -4.899147 3.059844 0.615969
v -4.892003 3.059844 0.615969
v -4.892003 3.059844 0.620731
v -4.632447 3.059844 0.615969
v -4.670547 3.059844 0.646925
v -4.632447 3.059844 0.620731
v -4.632447 3.052701 0.615969
v -4.632447 2.869344 0.615969
v -4.632447 2.869344 0.620731
v -4.632447 2.462103 0.620731
v -4.899147 2.645459 0.646925
v -4.899147 2.638315 0.646925
v -4.899147 2.638315 0.620731
v -4.899147 2.462103 0.646925
v -4.899147 2.454959 0.620731
v -4.899147 2.462103 0.615969
v -4.899147 2.462103 0.620731
v -4.899147 2.454959 0.646925
v -4.899147 2.638315 0.615969
v -4.892003 2.462103 0.615969
v -4.632447 2.462103 0.615969
v -4.892003 2.638315 0.615969
v -4.670547 2.638315 0.646925
v -4.892003 2.645459 0.646925
v -4.670547 2.462103 0.646925
v -4.632447 2.638315 0.620731
v -4.892003 2.462103 0.620731
v -4.892003 2.462103 0.646925
v -4.892003 2.638315 0.646925
v -4.892003 2.638315 0.620731
v -4.892003 2.454959 0.620731
v -4.892003 2.454959 0.646925
v -4.670547 2.454959 0.646925
v -4.892003 2.454959 0.615969
v -4.899147 2.454959 0.615969
v -4.899147 2.645459 0.620731
v -4.899147 2.645459 0.615969
v -4.892003 2.645459 0.615969
v -4.892003 2.645459 0.620731
v -4.632447 2.645459 0.615969
v -4.670547 2.645459 0.646925
v -4.632447 2.645459 0.620731
v -4.632447 2.638315 0.615969
v -4.632447 2.454959 0.615969
v -4.632447 2.454959 0.620731
v -4.632447 2.667470 0.620731
v -4.899147 2.850827 0.646925
v -4.899147 2.843683 0.646925
v -4.899147 2.843683 0.620731
v -4.899147 2.667470 0.646925
v -4.899147 2.660327 0.620731
v -4.899147 2.667470 0.615969
v -4.899147 2.667470 0.620731
v -4.899147 2.660327 0.646925
v -4.899147 2.843683 0.615969
v -4.892003 2.667470 0.615969
v -4.632447 2.667470 0.615969
v -4.892003 2.843683 0.615969
v -4.670547 2.843683 0.646925
v -4.892003 2.850827 0.646925
v -4.670547 2.667470 0.646925
v -4.632447 2.843683 0.620731
v -4.892003 2.667470 0.620731
v -4.892003 2.667470 0.646925
v -4.892003 2.843683 0.646925
v -4.892003 2.843683 0.620731
v -4.892003 2.660327 0.620731
v -4.892003 2.660327 0.646925
v -4.670547 2.660327 0.646925
v -4.892003 2.660327 0.615969
v -4.899147 2.660327 0.615969
v -4.899147 2.850827 0.620731
v -4.899147 2.850827 0.615969
v -4.892003 2.850827 0.615969
v -4.892003 2.850827 0.620731
v -4.632447 2.850827 0.615969
v -4.670547 2.850827 0.646925
v -4.632447 2.850827 0.620731
v -4.632447 2.843683 0.615969
v -4.632447 2.660327 0.615969
v -4.632447 2.660327 0.620731
vn 1.0000 -0.0000 -0.0000
vn -0.0000 -0.0000 1.0000
vn -0.0000 -1.0000 -0.0000
vn -1.0000 -0.0000 -0.0000
vn 0.5665 -0.0000 0.8240
vn -0.0000 -0.0000 -1.0000
vn -0.0000 1.0000 -0.0000
vt 0.991342 0.083333
vt 0.645022 0.083333
vt 0.645022 0.007576
vt 0.991342 0.007576
vt 0.008741 0.701862
vt 0.008741 0.188131
vt 0.025131 0.188131
vt 0.025131 0.701862
vt 0.429414 0.718434
vt 0.429414 0.701862
vt 0.445804 0.701862
vt 0.445804 0.718434
vt 0.025410 0.746503
vt 0.025410 0.810606
vt 0.008838 0.810606
vt 0.008838 0.746503
vt 0.570586 0.992424
vt 0.554196 0.992424
vt 0.554196 0.928322
vt 0.570586 0.928322
vt 0.025131 0.099747
vt 0.008741 0.099747
vt 0.554196 0.825758
vt 0.570586 0.825758
vt 0.570586 0.901515
vt 0.554196 0.901515
vt 0.883960 0.701862
vt 0.883960 0.718434
vt 0.479677 0.718434
vt 0.479677 0.701862
vt 0.097222 0.083333
vt 0.008838 0.019231
vt 0.610953 0.019231
vt 0.610953 0.083333
vt 0.459173 0.992424
vt 0.008798 0.992424
vt 0.008798 0.916667
vt 0.536657 0.916667
vt 0.900350 0.701862
vt 0.883960 0.099747
vt 0.900350 0.099747
vt 0.539141 0.810606
vt 0.627525 0.746503
vt 0.974869 0.825758
vt 0.974869 0.901515
vt 0.463287 0.701862
vt 0.463287 0.099747
vt 0.479677 0.099747
vt 0.974869 0.992424
vt 0.974869 0.928322
vt 0.008838 0.734848
vt 0.025410 0.734848
vt 0.445804 0.099747
vt 0.445804 0.188131
vt 0.429414 0.188131
vt 0.429414 0.099747
vt 0.008838 0.007576
vt 0.610953 0.007576
vt 0.991259 0.928322
vt 0.991259 0.992424
vt 0.627525 0.734848
vt 0.991259 0.825758
vt 0.991259 0.901515
vt 0.463287 0.718434
vt 0.008741 0.718434
vt 0.025131 0.718434
vt 0.974869 0.916667
vt 0.991259 0.916667
vt 0.627525 0.083333
vt 0.627525 0.019231
vt 0.554196 0.916667
vt 0.570586 0.916667
vt 0.900350 0.718434
vt 0.627525 0.007576
vt 0.086282 0.901515
vt 0.008798 0.825758
vt 0.536657 0.825758
vt 0.536657 0.901515
s 1
usemtl models/props_office/file_rack_1970
f 20/1/1 19/2/1 18/3/1 21/4/1
f 23/5/2 24/6/2 16/7/2 19/8/2
f 3/9/2 20/10/2 15/11/2 2/12/2
f 22/13/3 23/14/3 9/15/3 6/16/3
f 3/17/4 2/18/4 27/19/4 4/20/4
f 1/21/5 16/7/5 24/6/5 36/22/5
f 35/23/1 12/24/1 1/25/1 36/26/1
f 11/27/6 7/28/6 10/29/6 13/30/6
f 32/31/7 33/32/7 30/33/7 15/34/7
f 14/35/3 20/36/3 21/37/3 17/38/3
f 25/39/6 11/27/6 12/40/6 35/41/6
f 24/42/3 23/14/3 22/13/3 36/43/3
f 12/24/1 34/44/1 17/45/1 1/25/1
f 13/30/6 29/46/6 31/47/6 34/48/6
f 5/49/4 3/17/4 4/20/4 8/50/4
f 26/51/3 25/52/3 22/13/3 6/16/3
f 33/53/5 32/54/5 14/55/5 17/56/5
f 12/40/6 11/27/6 13/30/6 34/48/6
f 31/57/7 29/58/7 30/33/7 33/32/7
f 6/59/4 9/60/4 5/49/4 8/50/4
f 25/52/3 35/61/3 36/43/3 22/13/3
f 20/10/2 14/55/2 32/54/2 15/11/2
f 34/44/1 31/62/1 33/63/1 17/45/1
f 10/29/6 28/64/6 29/46/6 13/30/6
f 9/65/2 23/5/2 19/8/2 5/66/2
f 7/67/4 26/68/4 6/59/4 8/50/4
f 5/66/2 19/8/2 20/10/2 3/9/2
f 2/69/7 15/34/7 30/33/7 27/70/7
f 27/19/4 28/71/4 10/72/4 4/20/4
f 26/73/6 7/28/6 11/27/6 25/39/6
f 4/20/4 10/72/4 7/67/4 8/50/4
f 29/58/7 28/74/7 27/70/7 30/33/7
f 18/8/2 1/21/2 17/56/2 21/10/2
f 16/75/7 1/76/7 18/77/7 19/78/7
f 56/1/1 55/2/1 54/3/1 57/4/1
f 59/5/2 60/6/2 52/7/2 55/8/2
f 39/9/2 56/10/2 51/11/2 38/12/2
f 58/13/3 59/14/3 45/15/3 42/16/3
f 39/17/4 38/18/4 63/19/4 40/20/4
f 37/21/5 52/7/5 60/6/5 72/22/5
f 71/23/1 48/24/1 37/25/1 72/26/1
f 47/27/6 43/28/6 46/29/6 49/30/6
f 68/31/7 69/32/7 66/33/7 51/34/7
f 50/35/3 56/36/3 57/37/3 53/38/3
f 61/39/6 47/27/6 48/40/6 71/41/6
f 60/42/3 59/14/3 58/13/3 72/43/3
f 48/24/1 70/44/1 53/45/1 37/25/1
f 49/30/6 65/46/6 67/47/6 70/48/6
f 41/49/4 39/17/4 40/20/4 44/50/4
f 62/51/3 61/52/3 58/13/3 42/16/3
f 69/53/5 68/54/5 50/55/5 53/56/5
f 48/40/6 47/27/6 49/30/6 70/48/6
f 67/57/7 65/58/7 66/33/7 69/32/7
f 42/59/4 45/60/4 41/49/4 44/50/4
f 61/52/3 71/61/3 72/43/3 58/13/3
f 56/10/2 50/55/2 68/54/2 51/11/2
f 70/44/1 67/62/1 69/63/1 53/45/1
f 46/29/6 64/64/6 65/46/6 49/30/6
f 45/65/2 59/5/2 55/8/2 41/66/2
f 43/67/4 62/68/4 42/59/4 44/50/4
f 41/66/2 55/8/2 56/10/2 39/9/2
f 38/69/7 51/34/7 66/33/7 63/70/7
f 63/19/4 64/71/4 46/72/4 40/20/4
f 62/73/6 43/28/6 47/27/6 61/39/6
f 40/20/4 46/72/4 43/67/4 44/50/4
f 65/58/7 64/74/7 63/70/7 66/33/7
f 54/8/2 37/21/2 53/56/2 57/10/2
f 52/75/7 37/76/7 54/77/7 55/78/7
f 92/1/1 91/2/1 90/3/1 93/4/1
f 95/5/2 96/6/2 88/7/2 91/8/2
f 75/9/2 92/10/2 87/11/2 74/12/2
f 94/13/3 95/14/3 81/15/3 78/16/3
f 75/17/4 74/18/4 99/19/4 76/20/4
f 73/21/5 88/7/5 96/6/5 108/22/5
f 107/23/1 84/24/1 73/25/1 108/26/1
f 83/27/6 79/28/6 82/29/6 85/30/6
f 104/31/7 105/32/7 102/33/7 87/34/7
f 86/35/3 92/36/3 93/37/3 89/38/3
f 97/39/6 83/27/6 84/40/6 107/41/6
f 96/42/3 95/14/3 94/13/3 108/43/3
f 84/24/1 106/44/1 89/45/1 73/25/1
f 85/30/6 101/46/6 103/47/6 106/48/6
f 77/49/4 75/17/4 76/20/4 80/50/4
f 98/51/3 97/52/3 94/13/3 78/16/3
f 105/53/5 104/54/5 86/55/5 89/56/5
f 84/40/6 83/27/6 85/30/6 106/48/6
f 103/57/7 101/58/7 102/33/7 105/32/7
f 78/59/4 81/60/4 77/49/4 80/50/4
f 97/52/3 107/61/3 108/43/3 94/13/3
f 92/10/2 86/55/2 104/54/2 87/11/2
f 106/44/1 103/62/1 105/63/1 89/45/1
f 82/29/6 100/64/6 101/46/6 85/30/6
f 81/65/2 95/5/2 91/8/2 77/66/2
f 79/67/4 98/68/4 78/59/4 80/50/4
f 77/66/2 91/8/2 92/10/2 75/9/2
f 74/69/7 87/34/7 102/33/7 99/70/7
f 99/19/4 100/71/4 82/72/4 76/20/4
f 98/73/6 79/28/6 83/27/6 97/39/6
f 76/20/4 82/72/4 79/67/4 80/50/4
f 101/58/7 100/74/7 99/70/7 102/33/7
f 90/8/2 73/21/2 89/56/2 93/10/2
f 88/75/7 73/76/7 90/77/7 91/78/7
