# Blender 5.0.1
# www.blender.org
mtllib MapHiders.mtl
o Section2.015
v 24.386753 -14.629767 2.438400
v 25.301153 -14.629767 2.438400
v 25.301153 -12.800967 2.438400
v 24.386753 -12.800967 2.438400
v 24.386753 -19.506567 2.438400
v 25.301153 -19.506567 2.438400
v 25.301153 -17.677767 2.438400
v 24.386753 -17.677767 2.438400
v 25.301153 -12.800967 0.000000
v 25.301153 -14.629767 0.000000
v 24.386753 -14.629767 0.000000
v 24.386753 -12.800967 0.000000
v 24.386753 -17.677767 0.000000
v 25.301153 -17.677767 0.000000
v 25.301153 -19.506567 0.000000
v 24.386753 -19.506567 0.000000
v 25.301153 -12.800967 0.685800
v 25.301153 -14.629767 0.685800
v 25.301153 -12.800967 2.057400
v 25.301153 -14.629767 2.057400
v 25.301153 -17.677767 2.057400
v 25.301153 -19.506567 2.057400
v 25.301153 -17.677767 0.685800
v 25.301153 -19.506567 0.685800
v 43.665352 11.199190 0.002468
v 41.988953 11.199190 0.002468
v 40.026802 8.151190 3.355268
v 43.798706 8.151190 3.355268
v 43.798706 11.199190 3.355268
v 40.026802 11.199190 3.355268
v 43.665352 11.199190 0.154868
v 41.988953 11.199190 0.154868
v 43.665352 11.199190 3.355268
v 41.988953 11.199190 3.355268
v 39.321953 18.666790 0.154868
v 39.321953 18.514391 0.154868
v 39.321953 18.666790 3.202868
v 39.321953 18.514391 3.202868
v 39.321953 18.057190 0.154868
v 39.321953 18.057190 3.202868
v 37.797951 18.666790 0.154868
v 37.797951 18.057190 0.154868
v 37.797951 18.666790 3.202868
v 37.797951 18.057190 3.202868
v 39.321953 20.190790 3.202868
v 39.321953 19.733589 3.202868
v 39.321953 19.733589 0.154868
v 39.321953 20.190790 0.154868
v 37.797951 20.190790 3.202868
v 37.797951 20.190790 0.154868
v 39.321953 32.230389 0.154868
v 39.321953 32.230389 3.202868
v 39.017151 32.230389 3.202868
v 39.017151 32.230389 0.154868
v 43.284355 32.230389 0.154868
v 43.284355 32.230389 3.202868
v 43.589149 32.230389 0.154868
v 43.589149 32.230389 3.202868
v 43.589149 34.516388 0.154868
v 39.017151 34.516388 0.154868
v 39.017151 34.516388 3.202868
v 43.589149 34.516388 3.202868
v 36.731155 18.666790 0.154868
v 36.731155 18.057190 0.154868
v 36.731155 18.057190 3.202868
v 36.731155 18.666790 3.202868
v 18.290752 32.077988 2.440867
v 18.290752 32.077988 9.146467
v 23.167553 32.077988 9.146467
v 23.167553 32.077988 2.440867
v 23.167553 24.762791 9.146467
v 18.290752 24.762791 9.146467
v 18.290752 24.762791 2.440867
v 23.167553 24.762791 2.440867
v 36.731155 20.190790 3.202868
v 36.731155 20.190790 0.154868
v 23.167553 25.981991 9.146467
v 23.167553 25.981991 2.440867
v 23.167553 27.963190 2.440867
v 23.167553 28.877590 2.440867
v 23.167553 28.877590 9.146467
v 23.167553 27.963190 9.146467
v 23.167553 30.858789 2.440867
v 23.167553 30.858789 9.146467
v 17.071552 24.762791 9.146467
v 17.071552 32.077988 9.146467
v 17.071552 32.077988 2.440867
v 17.071552 24.762791 2.440867
v 2.438400 10.210800 2.438400
v 7.315200 10.210800 2.438400
v 15.087599 5.334000 2.438400
v 15.087599 8.229600 2.438400
v 10.972800 8.229600 2.438400
v 10.972800 5.334000 2.438400
v 18.288000 8.229600 2.438400
v 15.087599 1.219200 2.438400
v 18.288000 1.219200 2.438400
v 15.087599 8.229600 0.000000
v 15.087599 5.334000 0.000000
v 10.972800 5.334000 0.000000
v 10.972800 8.229600 0.000000
v 18.288000 1.219200 0.000000
v 15.087599 1.219200 0.000000
v 18.288000 8.229600 0.000000
v 15.087599 2.438400 0.000000
v 15.087599 2.438400 2.438400
v 15.087599 4.267200 0.000000
v 15.087599 4.267200 2.438400
v 14.782800 5.334000 2.438400
v 14.782800 5.334000 0.000000
v 14.782800 8.229600 0.000000
v 14.782800 8.229600 2.438400
v 14.020801 5.334000 2.438400
v 14.020801 5.334000 0.000000
v 14.020801 8.229600 0.000000
v 14.020801 8.229600 2.438400
v 12.192000 5.334000 2.438400
v 12.192000 5.334000 0.000000
v 12.192000 8.229600 0.000000
v 12.192000 8.229600 2.438400
v 2.743200 10.210800 2.438400
v 2.438400 10.210800 0.000000
v 2.743200 10.210800 0.000000
v 4.572000 10.210800 0.685800
v 2.743200 10.210800 0.685800
v 4.572000 10.210800 0.000000
v 4.572000 10.210800 2.057400
v 4.572000 10.210800 2.438400
v 2.743200 10.210800 2.057400
v 6.553200 10.210800 2.057400
v 6.553200 10.210800 2.438400
v 4.724400 10.210800 2.438400
v 4.724400 10.210800 2.057400
v 6.553200 10.210800 0.685800
v 4.724400 10.210800 0.685800
v 4.724400 10.210800 0.000000
v 6.553200 10.210800 0.000000
v 7.315200 10.210800 0.000000
v 2.438400 10.210800 -4.876800
v 7.315200 10.210800 -4.876800
v 2.438400 13.689570 2.438400
v 7.315200 13.689570 2.438400
v 2.743200 13.689570 2.438400
v 2.438400 13.689570 0.000000
v 4.572000 13.689570 2.438400
v 6.553200 13.689570 2.438400
v 4.724400 13.689570 2.438400
v 7.315200 13.689570 0.000000
v 2.438400 13.689570 -4.876800
v 7.315200 13.689570 -4.876800
v 6.553200 13.689570 -4.876800
v 6.553200 10.210800 -4.876800
v 6.553200 13.689570 0.000000
v 4.724927 13.689570 2.438400
v 4.724927 13.689570 0.000000
v 4.575388 13.689570 2.438400
v 4.572000 13.689570 0.000000
v 2.727517 13.689570 2.438400
v 2.743200 13.689570 0.000000
v 4.724927 13.689570 -4.876800
v 4.572000 13.689570 -4.876800
v 2.743200 13.689570 -4.876800
v 2.743200 10.210800 -4.876800
v 4.572000 10.210800 -4.876800
v 4.724400 10.210800 -4.876800
v 41.607956 -5.638167 2.438400
v 44.808350 -5.638167 2.438400
v 44.808350 -0.761367 2.438400
v 41.607956 -0.761367 2.438400
v 44.808350 -0.761367 0.000000
v 44.808350 -5.638167 0.000000
v 41.607956 -5.638167 0.000000
v 41.607956 -0.761367 0.000000
v 44.808350 -1.523367 2.438400
v 44.808350 -3.352167 2.438400
v 44.808350 -3.352167 0.000000
v 44.808350 -1.523367 0.000000
v 44.808350 -3.504567 2.438400
v 44.808350 -3.504567 0.000000
v 44.808350 -5.333367 0.000000
v 44.808350 -5.333367 2.438400
vn -0.0000 -0.0000 -1.0000
vn -0.0000 -0.0000 1.0000
vn 1.0000 -0.0000 -0.0000
vn -0.0000 -1.0000 -0.0000
vn -0.0000 1.0000 -0.0000
vn -1.0000 -0.0000 -0.0000
vt 20.500000 43.000000
vt 20.500000 44.500000
vt 23.500000 44.500000
vt 23.500000 43.000000
vt 28.500000 43.000000
vt 28.500000 44.500000
vt 31.500000 44.500000
vt 31.500000 43.000000
vt -20.250000 5.000000
vt -23.250000 5.000000
vt -23.250000 1.000000
vt -20.250000 1.000000
vt -31.250000 5.000000
vt -31.250000 1.000000
vt -28.250000 1.000000
vt -28.250000 5.000000
vt 43.500000 1.000000
vt 43.500000 2.125000
vt 43.500000 4.375000
vt 43.500000 5.000000
vt 42.000000 5.000000
vt 42.000000 1.000000
vt -169.125000 -48.375000
vt -177.171875 -48.375000
vt -184.046875 -48.375000
vt -184.593750 -48.375000
vt -184.593750 -35.875000
vt -169.125000 -35.875000
vt 183.546875 24.000000
vt 176.671875 24.000000
vt 176.671875 24.625000
vt 183.546875 24.625000
vt -159.843750 -76.750000
vt -166.093750 -76.750000
vt -166.093750 -78.625000
vt -166.093750 -79.250000
vt -159.843750 -79.250000
vt 166.593750 24.625000
vt 160.343750 24.625000
vt 160.343750 37.125000
vt 166.593750 37.125000
vt -166.093750 -85.500000
vt -166.093750 -83.625000
vt -159.843750 -85.500000
vt -166.093750 37.125000
vt -159.843750 37.125000
vt -159.843750 24.625000
vt -166.093750 24.625000
vt -183.593750 37.125000
vt -164.843750 37.125000
vt -164.843750 24.625000
vt -183.593750 24.625000
vt -145.250000 24.625000
vt -135.875000 24.625000
vt -135.875000 37.125000
vt -145.250000 37.125000
vt -53.750000 15.250000
vt -53.750000 10.250000
vt -57.500000 10.250000
vt -57.500000 15.250000
vt -183.593750 -134.875000
vt -182.343750 -134.875000
vt -166.093750 -134.875000
vt -164.843750 -134.875000
vt -164.843750 -144.250000
vt -183.593750 -144.250000
vt -155.468750 -76.750000
vt -155.468750 -79.250000
vt 155.968750 24.625000
vt 155.968750 37.125000
vt -31.500000 15.250000
vt -30.500000 15.250000
vt -30.500000 10.250000
vt -31.500000 10.250000
vt 1.208333 14.000000
vt 1.208333 25.000000
vt 1.041667 25.000000
vt 1.041667 14.000000
vt -0.458333 14.000000
vt -0.291667 14.000000
vt -0.291667 25.000000
vt -0.458333 25.000000
vt -155.468750 -85.500000
vt -155.468750 37.125000
vt -155.468750 24.625000
vt -34.000000 10.250000
vt -34.000000 15.250000
vt -1.250000 34.050060
vt -1.250000 42.250076
vt -1.208333 42.250076
vt -1.140625 42.250076
vt -1.109375 42.250076
vt -1.041667 42.250076
vt -1.000000 42.250076
vt -1.000000 34.050060
vt 1.041667 43.000000
vt 1.208333 43.000000
vt 1.208333 45.000000
vt 1.208333 48.250000
vt 1.208333 49.750000
vt 1.208333 53.000000
vt 1.208333 55.000000
vt 1.041667 55.000000
vt 1.750000 14.000000
vt 2.000000 14.000000
vt 2.000000 25.000000
vt 1.750000 25.000000
vt -1.000000 32.000057
vt -1.250000 32.000057
vt 1.000000 55.000000
vt 1.000000 43.000000
vt -0.250000 14.000000
vt -0.250000 25.000000
vt 1.000000 25.000000
vt 1.000000 14.000000
vt 24.000000 -7.750000
vt 22.750000 -7.750000
vt 19.750000 -7.750000
vt 17.750000 -7.750000
vt 17.750000 -12.500000
vt 19.750000 -12.500000
vt 22.750000 -12.500000
vt 24.000000 -12.500000
vt 24.500000 -12.500000
vt 24.500000 -7.750000
vt 29.750000 -1.000000
vt 24.500000 -1.000000
vt 24.500000 -3.000000
vt 24.500000 -6.000000
vt 29.750000 -12.500000
vt -0.250000 -12.500000
vt -0.250000 -1.000000
vt 3.750000 -1.000000
vt 3.750000 -12.500000
vt 24.500000 -2.500000
vt 24.500000 1.500000
vt 29.750000 1.500000
vt 29.750000 -2.500000
vt 29.750000 5.000000
vt 29.750000 1.000000
vt 24.500000 1.000000
vt 24.500000 5.000000
vt 24.000000 -2.500000
vt 24.000000 1.500000
vt 22.750000 -2.500000
vt 22.750000 1.500000
vt 19.750000 -2.500000
vt 19.750000 1.500000
vt -3.250000 -12.500000
vt -3.250000 -7.750000
vt 0.750000 -7.750000
vt 0.750000 -12.500000
vt 17.750000 -2.500000
vt 17.750000 1.500000
vt -2.249997 4.750000
vt -2.041664 4.750000
vt -1.291664 4.750000
vt -0.916664 4.750000
vt -0.916664 4.250000
vt -2.249997 4.250000
vt -0.916664 7.750000
vt -1.291664 7.750000
vt -2.249997 7.750000
vt -2.041664 7.750000
vt -2.041664 8.000000
vt -2.249997 8.000000
vt -2.249997 11.000000
vt -2.041664 11.000000
vt -0.916664 11.000000
vt -0.916664 8.000000
vt -1.291664 8.000000
vt -1.291664 11.000000
vt -0.916664 12.250000
vt -2.249997 12.250000
vt 1.750003 4.894593
vt 1.750003 4.250000
vt 1.750003 12.250000
vt 1.750003 4.697634
vt -0.916664 10.316922
vt 1.750003 9.493792
vt -0.916664 4.755705
vt -2.249997 4.705196
vt -0.916664 7.827120
vt 1.750003 7.637989
vt 1.750003 10.980524
vt -2.249997 10.728487
vt -2.249997 7.849988
vt -2.249997 7.614550
vt -0.916664 7.447495
vt 1.750003 7.249301
vt 1.750003 7.369558
vt 1.750003 7.916103
vt 71.000000 1.750000
vt 76.250000 1.750000
vt 76.250000 3.000000
vt 76.250000 6.000000
vt 76.250000 6.250000
vt 76.250000 9.250000
vt 76.250000 9.750000
vt 71.000000 9.750000
vt 76.250000 5.750000
vt 71.000000 5.750000
vt -3.000016 1.750000
vt -3.000016 9.750000
vt 0.999984 9.750000
vt 0.999984 1.750000
vt 71.000000 -2.250000
vt 76.250000 -2.250000
s 0
usemtl WHITEPARADOX
f 4/1/1 3/2/1 2/3/1 1/4/1
f 8/5/1 7/6/1 6/7/1 5/8/1
f 12/1/2 11/4/2 10/3/2 9/2/2
f 16/8/2 15/7/2 14/6/2 13/5/2
f 4/9/3 1/10/3 11/11/3 12/12/3
f 5/13/3 16/14/3 13/15/3 8/16/3
f 14/17/4 23/18/4 21/19/4 7/20/4 8/21/4 13/22/4
f 6/20/5 22/19/5 24/18/5 15/17/5 16/22/5 5/21/5
f 2/20/5 20/19/5 18/18/5 10/17/5 11/22/5 1/21/5
f 9/17/4 17/18/4 19/19/4 3/20/4 4/21/4 12/22/4
f 30/23/1 34/24/1 33/25/1 29/26/1 28/27/1 27/28/1
f 25/29/5 26/30/5 32/31/5 31/32/5
f 42/33/2 39/34/2 36/35/2 35/36/2 41/37/2
f 37/36/1 38/35/1 40/34/1 44/33/1 43/37/1
f 39/38/5 42/39/5 44/40/5 40/41/5
f 45/42/1 46/43/1 37/36/1 43/37/1 49/44/1
f 35/36/2 47/43/2 48/42/2 50/44/2 41/37/2
f 45/45/4 49/46/4 50/47/4 48/48/4
f 62/49/4 61/50/4 60/51/4 59/52/4
f 59/53/6 57/54/6 58/55/6 62/56/6
f 53/57/3 54/58/3 60/59/3 61/60/3
f 58/61/1 56/62/1 52/63/1 53/64/1 61/65/1 62/66/1
f 54/64/2 51/63/2 55/62/2 57/61/2 59/66/2 60/65/2
f 64/67/2 42/33/2 41/37/2 63/68/2
f 66/68/1 43/37/1 44/33/1 65/67/1
f 42/39/5 64/69/5 65/70/5 44/40/5
f 66/71/3 65/72/3 64/73/3 63/74/3
f 70/75/4 69/76/4 68/77/4 67/78/4
f 74/79/5 73/80/5 72/81/5 71/82/5
f 49/44/1 43/37/1 66/68/1 75/83/1
f 76/83/2 63/68/2 41/37/2 50/44/2
f 49/46/4 75/84/4 76/85/4 50/47/4
f 66/71/3 63/74/3 76/86/3 75/87/3
f 68/88/1 69/89/1 84/90/1 81/91/1 82/92/1 77/93/1 71/94/1 72/95/1
f 73/96/2 74/97/2 78/98/2 79/99/2 80/100/2 83/101/2 70/102/2 67/103/2
f 88/104/3 87/105/3 86/106/3 85/107/3
f 85/108/1 86/109/1 68/88/1 72/95/1
f 73/96/2 67/103/2 87/110/2 88/111/2
f 73/80/5 88/112/5 85/113/5 72/81/5
f 68/77/4 86/114/4 87/115/4 67/78/4
usemtl TRAINCAR_BULB_WHITE
f 109/116/1 113/117/1 117/118/1 94/119/1 93/120/1 120/121/1 116/122/1 112/123/1 92/124/1 91/125/1
f 97/126/1 96/127/1 106/128/1 108/129/1 91/125/1 92/124/1 95/130/1
f 111/123/2 115/122/2 119/121/2 101/120/2 100/119/2 118/118/2 114/117/2 110/116/2 99/125/2 98/124/2
f 104/130/2 98/124/2 99/125/2 107/129/2 105/128/2 103/127/2 102/126/2
f 104/131/6 102/132/6 97/133/6 95/134/6
f 92/135/4 98/136/4 104/137/4 95/138/4
f 97/139/5 102/140/5 103/141/5 96/142/5
f 112/143/4 111/144/4 98/136/4 92/135/4
f 116/145/4 115/146/4 111/144/4 112/143/4
f 120/147/4 119/148/4 115/146/4 116/145/4
f 93/149/3 94/150/3 100/151/3 101/152/3
f 93/153/4 101/154/4 119/148/4 120/147/4
f 121/155/5 129/156/5 125/157/5 123/158/5 122/159/5 89/160/5
f 126/161/5 123/158/5 125/157/5 124/162/5
f 129/156/5 121/155/5 128/163/5 127/164/5
f 133/165/5 132/166/5 131/167/5 130/168/5
f 137/169/5 136/170/5 135/171/5 134/172/5
f 133/165/5 135/171/5 136/170/5 126/161/5 124/162/5 127/164/5 128/163/5 132/166/5
f 138/173/5 137/169/5 134/172/5 130/168/5 131/167/5 90/174/5
f 122/159/5 123/158/5 163/175/5 139/176/5
f 138/173/6 90/174/6 142/174/6 148/173/6
f 140/177/6 138/173/6 148/173/6 150/177/6
f 89/160/3 122/159/3 144/159/3 141/160/3
f 128/163/1 121/155/1 143/155/1 145/163/1
f 90/174/1 131/167/1 146/167/1 142/174/1
f 131/167/1 132/166/1 147/166/1 146/167/1
f 139/176/2 163/175/2 162/178/2 149/176/2
f 132/166/1 128/163/1 145/163/1 147/166/1
f 121/155/1 89/160/1 141/160/1 143/155/1
f 122/159/3 139/176/3 149/176/3 144/159/3
f 150/177/4 148/173/4 153/179/4 151/180/4
f 144/159/4 159/181/4 158/182/4 141/160/4
f 151/180/4 153/179/4 155/183/4 160/184/4
f 152/185/5 137/169/5 138/173/5 140/177/5
f 151/180/2 152/185/2 140/177/2 150/177/2
f 146/186/4 153/179/4 148/173/4 142/174/4
f 154/187/4 155/183/4 153/179/4 146/186/4
f 156/188/4 157/189/4 155/183/4 154/187/4
f 158/182/4 159/181/4 157/189/4 156/188/4
f 160/184/4 155/183/4 157/189/4 161/190/4
f 161/190/4 157/189/4 159/181/4 162/178/4
f 162/178/4 159/181/4 144/159/4 149/176/4
f 163/175/5 123/158/5 126/161/5 164/191/5
f 164/191/5 126/161/5 136/170/5 165/192/5
f 165/192/5 136/170/5 137/169/5 152/185/5
f 162/178/2 163/175/2 164/191/2 161/190/2
f 161/190/2 164/191/2 165/192/2 160/184/2
f 160/184/2 165/192/2 152/185/2 151/180/2
usemtl Material
f 169/193/1 168/194/1 174/195/1 175/196/1 178/197/1 181/198/1 167/199/1 166/200/1
f 171/199/2 180/198/2 179/197/2 176/196/2 177/195/2 170/194/2 173/193/2 172/200/2
f 167/201/5 171/194/5 172/193/5 166/202/5
f 169/203/3 166/204/3 172/205/3 173/206/3
f 169/207/4 173/193/4 170/194/4 168/208/4
