# Blender 5.0.1
# www.blender.org
mtllib MapHiders.mtl
o Section2.015
v 24.708958 -14.629767 2.438400
v 25.301153 -14.629767 2.438400
v 25.301153 -12.800967 2.438400
v 24.708958 -12.800967 2.438400
v 24.386753 -19.506567 2.438400
v 25.301153 -19.506567 2.438400
v 25.301153 -17.677767 2.438400
v 24.386753 -17.677767 2.438400
v 25.301153 -12.800967 0.000000
v 25.301153 -14.629767 0.000000
v 24.708958 -14.629767 0.000000
v 24.708958 -12.800967 0.000000
v 24.386753 -17.677767 0.000000
v 25.301153 -17.677767 0.000000
v 25.301153 -19.506567 0.000000
v 24.386753 -19.506567 0.000000
v 25.301153 -12.800967 0.685800
v 25.301153 -14.629767 0.685800
v 25.301153 -12.800967 2.057400
v 25.301153 -14.629767 2.057400
v 25.301153 -17.677767 2.057400
v 25.301153 -19.506567 2.057400
v 25.301153 -17.677767 0.685800
v 25.301153 -19.506567 0.685800
v 43.665352 11.199190 0.002468
v 41.988953 11.199190 0.002468
v 40.026802 8.151190 3.355268
v 43.798706 8.151190 3.355268
v 43.798706 11.199190 3.355268
v 40.026802 11.199190 3.355268
v 43.665352 11.199190 0.154868
v 41.988953 11.199190 0.154868
v 43.665352 11.199190 3.355268
v 41.988953 11.199190 3.355268
v 39.321953 18.666790 0.154868
v 39.321953 18.514391 0.154868
v 39.321953 18.666790 3.202868
v 39.321953 18.514391 3.202868
v 39.321953 18.057190 0.154868
v 39.321953 18.057190 3.202868
v 37.797951 18.666790 0.154868
v 37.797951 18.057190 0.154868
v 37.797951 18.666790 3.202868
v 37.797951 18.057190 3.202868
v 39.321953 20.190790 3.202868
v 39.321953 19.733589 3.202868
v 39.321953 19.733589 0.154868
v 39.321953 20.190790 0.154868
v 37.797951 20.190790 3.202868
v 37.797951 20.190790 0.154868
v 39.321953 32.230389 0.154868
v 39.321953 32.230389 3.202868
v 39.017151 32.230389 3.202868
v 39.017151 32.230389 0.154868
v 43.284355 32.230389 0.154868
v 43.284355 32.230389 3.202868
v 43.589149 32.230389 0.154868
v 43.589149 32.230389 3.202868
v 43.589149 34.516388 0.154868
v 39.017151 34.516388 0.154868
v 39.017151 34.516388 3.202868
v 43.589149 34.516388 3.202868
v 36.731155 18.666790 0.154868
v 36.731155 18.057190 0.154868
v 36.731155 18.057190 3.202868
v 36.731155 18.666790 3.202868
v 18.290752 32.077988 2.440867
v 18.290752 32.077988 9.146467
v 23.167553 32.077988 9.146467
v 23.167553 32.077988 2.440867
v 23.167553 24.762791 9.146467
v 18.290752 24.762791 9.146467
v 18.290752 24.762791 2.440867
v 23.167553 24.762791 2.440867
v 36.731155 20.190790 3.202868
v 36.731155 20.190790 0.154868
v 23.167553 25.981991 9.146467
v 23.167553 25.981991 2.440867
v 23.167553 27.963190 2.440867
v 23.167553 28.877590 2.440867
v 23.167553 28.877590 9.146467
v 23.167553 27.963190 9.146467
v 23.167553 30.858789 2.440867
v 23.167553 30.858789 9.146467
v 17.071552 24.762791 9.146467
v 17.071552 32.077988 9.146467
v 17.071552 32.077988 2.440867
v 17.071552 24.762791 2.440867
v 2.438400 10.210800 2.438400
v 7.315200 10.210800 2.438400
v 15.087599 5.334000 2.438400
v 15.087599 8.229600 2.438400
v 10.972800 8.229600 2.438400
v 10.972800 5.334000 2.438400
v 18.288000 8.229600 2.438400
v 15.087599 1.219200 2.438400
v 18.288000 1.219200 2.438400
v 15.087599 8.229600 0.000000
v 15.087599 5.334000 0.000000
v 10.972800 5.334000 0.000000
v 10.972800 8.229600 0.000000
v 18.288000 1.219200 0.000000
v 15.087599 1.219200 0.000000
v 18.288000 8.229600 0.000000
v 15.087599 2.438400 0.000000
v 15.087599 2.438400 2.438400
v 15.087599 4.267200 0.000000
v 15.087599 4.267200 2.438400
v 14.782800 5.334000 2.438400
v 14.782800 5.334000 0.000000
v 14.782800 8.229600 0.000000
v 14.782800 8.229600 2.438400
v 14.020801 5.334000 2.438400
v 14.020801 5.334000 0.000000
v 14.020801 8.229600 0.000000
v 14.020801 8.229600 2.438400
v 12.192000 5.334000 2.438400
v 12.192000 5.334000 0.000000
v 12.192000 8.229600 0.000000
v 12.192000 8.229600 2.438400
v 2.743200 10.210800 2.438400
v 2.438400 10.210800 0.000000
v 2.743200 10.210800 0.000000
v 4.572000 10.210800 0.685800
v 2.743200 10.210800 0.685800
v 4.572000 10.210800 0.000000
v 4.572000 10.210800 2.057400
v 4.572000 10.210800 2.438400
v 2.743200 10.210800 2.057400
v 6.553200 10.210800 2.057400
v 6.553200 10.210800 2.438400
v 4.724400 10.210800 2.438400
v 4.724400 10.210800 2.057400
v 6.553200 10.210800 0.685800
v 4.724400 10.210800 0.685800
v 4.724400 10.210800 0.000000
v 6.553200 10.210800 0.000000
v 7.315200 10.210800 0.000000
v 2.438400 10.210800 -4.876800
v 7.315200 10.210800 -4.876800
v 2.438400 11.788750 2.438400
v 7.315200 11.788750 2.438400
v 2.743200 11.788750 2.438400
v 2.438400 11.788750 0.000000
v 4.572000 11.788750 2.438400
v 6.553200 11.788750 2.438400
v 4.724400 11.788750 2.438400
v 7.315200 11.788750 0.000000
v 2.438400 11.788750 -4.876800
v 7.315200 11.788750 -4.876800
vn -0.0000 -0.0000 1.0000
vn -0.0000 -0.0000 -1.0000
vn -1.0000 -0.0000 -0.0000
vn -0.0000 1.0000 -0.0000
vn -0.0000 -1.0000 -0.0000
vn 1.0000 -0.0000 -0.0000
vt 0.000000 0.000000
vt 24.000000 -7.750000
vt 22.750000 -7.750000
vt 19.750000 -7.750000
vt 17.750000 -7.750000
vt 17.750000 -12.500000
vt 19.750000 -12.500000
vt 22.750000 -12.500000
vt 24.000000 -12.500000
vt 24.500000 -12.500000
vt 24.500000 -7.750000
vt 29.750000 -1.000000
vt 24.500000 -1.000000
vt 24.500000 -3.000000
vt 24.500000 -6.000000
vt 29.750000 -12.500000
vt -0.250000 -12.500000
vt -0.250000 -1.000000
vt 3.750000 -1.000000
vt 3.750000 -12.500000
vt 24.500000 -2.500000
vt 24.500000 1.500000
vt 29.750000 1.500000
vt 29.750000 -2.500000
vt 29.750000 5.000000
vt 29.750000 1.000000
vt 24.500000 1.000000
vt 24.500000 5.000000
vt 24.000000 -2.500000
vt 24.000000 1.500000
vt 22.750000 -2.500000
vt 22.750000 1.500000
vt 19.750000 -2.500000
vt 19.750000 1.500000
vt -3.250000 -12.500000
vt -3.250000 -7.750000
vt 0.750000 -7.750000
vt 0.750000 -12.500000
vt 17.750000 -2.500000
vt 17.750000 1.500000
vt -2.249997 4.750000
vt -2.041664 4.750000
vt -1.291664 4.750000
vt -0.916664 4.750000
vt -0.916664 4.250000
vt -2.249997 4.250000
vt -0.916664 7.750000
vt -1.291664 7.750000
vt -2.249997 7.750000
vt -2.041664 7.750000
vt -2.041664 8.000000
vt -2.249997 8.000000
vt -2.249997 11.000000
vt -2.041664 11.000000
vt -0.916664 11.000000
vt -0.916664 8.000000
vt -1.291664 8.000000
vt -1.291664 11.000000
vt -0.916664 12.250000
vt -2.249997 12.250000
vt 1.750003 12.250000
vt 1.750003 4.250000
s 0
usemtl Material
f 4/1/1 1/1/1 2/1/1 3/1/1
f 8/1/1 5/1/1 6/1/1 7/1/1
f 12/1/2 9/1/2 10/1/2 11/1/2
f 16/1/2 13/1/2 14/1/2 15/1/2
f 4/1/3 12/1/3 11/1/3 1/1/3
f 5/1/3 8/1/3 13/1/3 16/1/3
f 14/1/4 13/1/4 8/1/4 7/1/4 21/1/4 23/1/4
f 6/1/5 5/1/5 16/1/5 15/1/5 24/1/5 22/1/5
f 2/1/5 1/1/5 11/1/5 10/1/5 18/1/5 20/1/5
f 9/1/4 12/1/4 4/1/4 3/1/4 19/1/4 17/1/4
f 30/1/1 27/1/1 28/1/1 29/1/1 33/1/1 34/1/1
f 25/1/4 26/1/4 32/1/4 31/1/4
f 42/1/2 41/1/2 35/1/2 36/1/2 39/1/2
f 37/1/1 43/1/1 44/1/1 40/1/1 38/1/1
f 39/1/5 40/1/5 44/1/5 42/1/5
f 45/1/1 49/1/1 43/1/1 37/1/1 46/1/1
f 35/1/2 41/1/2 50/1/2 48/1/2 47/1/2
f 45/1/4 48/1/4 50/1/4 49/1/4
f 62/1/4 59/1/4 60/1/4 61/1/4
f 59/1/6 62/1/6 58/1/6 57/1/6
f 53/1/3 61/1/3 60/1/3 54/1/3
f 58/1/1 62/1/1 61/1/1 53/1/1 52/1/1 56/1/1
f 54/1/2 60/1/2 59/1/2 57/1/2 55/1/2 51/1/2
f 64/1/2 63/1/2 41/1/2 42/1/2
f 66/1/1 65/1/1 44/1/1 43/1/1
f 42/1/5 44/1/5 65/1/5 64/1/5
f 66/1/3 63/1/3 64/1/3 65/1/3
f 70/1/4 67/1/4 68/1/4 69/1/4
f 74/1/5 71/1/5 72/1/5 73/1/5
f 49/1/1 75/1/1 66/1/1 43/1/1
f 76/1/2 50/1/2 41/1/2 63/1/2
f 49/1/4 50/1/4 76/1/4 75/1/4
f 66/1/3 75/1/3 76/1/3 63/1/3
f 68/1/1 72/1/1 71/1/1 77/1/1 82/1/1 81/1/1 84/1/1 69/1/1
f 73/1/2 67/1/2 70/1/2 83/1/2 80/1/2 79/1/2 78/1/2 74/1/2
f 88/1/3 85/1/3 86/1/3 87/1/3
f 85/1/1 72/1/1 68/1/1 86/1/1
f 73/1/2 88/1/2 87/1/2 67/1/2
f 73/1/5 72/1/5 85/1/5 88/1/5
f 68/1/4 67/1/4 87/1/4 86/1/4
f 109/2/2 113/3/2 117/4/2 94/5/2 93/6/2 120/7/2 116/8/2 112/9/2 92/10/2 91/11/2
f 97/12/2 96/13/2 106/14/2 108/15/2 91/11/2 92/10/2 95/16/2
f 111/9/1 115/8/1 119/7/1 101/6/1 100/5/1 118/4/1 114/3/1 110/2/1 99/11/1 98/10/1
f 104/16/1 98/10/1 99/11/1 107/15/1 105/14/1 103/13/1 102/12/1
f 104/17/3 102/18/3 97/19/3 95/20/3
f 92/21/5 98/22/5 104/23/5 95/24/5
f 97/25/4 102/26/4 103/27/4 96/28/4
f 112/29/5 111/30/5 98/22/5 92/21/5
f 116/31/5 115/32/5 111/30/5 112/29/5
f 120/33/5 119/34/5 115/32/5 116/31/5
f 93/35/6 94/36/6 100/37/6 101/38/6
f 93/39/5 101/40/5 119/34/5 120/33/5
f 121/41/4 129/42/4 125/43/4 123/44/4 122/45/4 89/46/4
f 126/47/4 123/44/4 125/43/4 124/48/4
f 129/42/4 121/41/4 128/49/4 127/50/4
f 133/51/4 132/52/4 131/53/4 130/54/4
f 137/55/4 136/56/4 135/57/4 134/58/4
f 133/51/4 135/57/4 136/56/4 126/47/4 124/48/4 127/50/4 128/49/4 132/52/4
f 138/59/4 137/55/4 134/58/4 130/54/4 131/53/4 90/60/4
f 122/45/4 123/44/4 126/47/4 136/56/4 137/55/4 138/59/4 140/61/4 139/62/4
f 121/41/2 89/46/2 141/46/2 143/41/2
f 122/45/6 139/62/6 149/62/6 144/45/6
f 138/59/3 90/60/3 142/60/3 148/59/3
f 89/46/6 122/45/6 144/45/6 141/46/6
f 140/61/3 138/59/3 148/59/3 150/61/3
f 128/49/2 121/41/2 143/41/2 145/49/2
f 90/60/2 131/53/2 146/53/2 142/60/2
f 131/53/2 132/52/2 147/52/2 146/53/2
f 139/62/1 140/61/1 150/61/1 149/62/1
f 132/52/2 128/49/2 145/49/2 147/52/2
f 150/61/5 148/59/5 144/45/5 149/62/5
f 144/45/5 143/41/5 141/46/5
f 146/53/5 148/59/5 142/60/5
f 143/41/5 144/45/5 145/49/5
f 145/49/5 144/45/5 148/59/5 147/52/5
f 147/52/5 148/59/5 146/53/5
