# Blender 4.4.3
# www.blender.org
o Section2.018
v 48.770752 6.553833 2.743200
v 48.770752 7.163433 2.743200
v 39.321953 7.163433 2.743200
v 37.797951 7.163433 2.743200
v 48.770752 4.115433 2.743200
v 48.770752 5.334633 2.743200
v 48.770752 1.677033 2.743200
v 48.770752 2.896233 2.743200
v 48.770752 -0.151767 2.743200
v 48.770752 0.457833 2.743200
v 39.321953 -0.151767 2.743200
v 37.797951 -0.151767 2.743200
v 42.369949 9.906633 2.514600
v 39.626755 9.906633 2.514600
v 37.797951 9.906633 2.514600
v 48.770752 -0.151767 2.438400
v 48.770752 7.163433 2.438400
v 39.321953 7.163433 2.438400
v 37.797951 7.163433 2.438400
v 37.797951 -0.151767 2.438400
v 47.246750 -0.151767 2.438400
v 47.246750 -0.151767 2.743200
v 43.893951 9.906633 2.514600
v 43.893951 9.754233 2.514600
v 37.797951 9.754233 2.514600
v 42.522354 -0.151767 2.438400
v 45.722755 -0.151767 2.438400
v 46.903854 -0.151767 2.438400
v 47.551552 -0.151767 2.438400
v 44.046356 7.163433 2.438400
v 38.407555 7.163433 2.438400
v 48.770752 4.572638 2.438400
v 36.578751 7.163433 2.438400
v 36.578751 2.439035 2.438400
v 36.578751 -0.151767 2.438400
v 36.578751 7.163433 2.743200
v 36.578751 -0.151767 2.743200
v 36.578751 9.906633 2.514600
v 36.578751 0.457833 2.743200
v 36.578751 2.896233 2.743200
v 36.578751 1.677033 2.743200
v 36.578751 5.334633 2.743200
v 36.578751 4.115433 2.743200
v 36.578751 6.553833 2.743200
v 37.188354 9.754233 2.514600
v 36.578751 9.754233 2.514600
v 37.188354 7.163433 2.438400
v 37.493156 -0.151767 2.438400
vn -1.0000 -0.0000 -0.0000
vn -0.0000 -1.0000 -0.0000
vn -0.0000 1.0000 -0.0000
vn -0.0000 -0.0000 1.0000
vn 1.0000 -0.0000 -0.0000
vt 0.075000 -0.000000
vt 0.075000 0.212500
vt 0.075000 0.600000
vt 0.050000 0.600000
vt 0.050000 0.550000
vt 0.050000 0.450000
vt 0.050000 0.350000
vt 0.050000 0.250000
vt 0.050000 0.150000
vt 0.050000 0.050000
vt 0.050000 -0.000000
vt 0.000000 0.225000
vt 0.025000 0.225000
vt 0.025000 0.612500
vt 0.025000 1.000000
vt 0.000000 1.000000
vt 0.025000 0.100000
vt 0.025000 0.150000
vt 0.000000 0.100000
vt 0.025000 0.775000
vt 0.025000 0.125000
vt 0.050000 0.125000
vt 0.050000 0.153125
vt 0.050000 0.250000
vt 0.050000 0.512500
vt 0.050000 0.900000
vt 0.025000 0.900000
vt 0.050000 0.000000
vt 0.050000 0.100000
vt 0.025000 0.000000
vt 0.100000 0.600000
vt 0.100000 0.475000
vt 0.100000 0.250000
vt 0.100000 0.100000
vt 0.112500 0.100000
vt 0.112500 0.600000
vt 0.075000 0.550000
vt 0.075000 0.450000
vt 0.075000 0.350000
vt 0.075000 0.250000
vt 0.075000 0.150000
vt 0.075000 0.050000
vt 0.075000 -0.000000
vt 0.100000 -0.000000
vt 0.100000 0.212500
vt 0.100000 0.600000
vt 0.075000 0.600000
vt 0.025000 0.000000
vt 0.025000 0.050000
vt 0.000000 0.000000
vt 0.050000 0.925000
vt 0.050000 1.000000
vt 0.025000 1.000000
vt 0.112500 0.000000
vt 0.112500 0.050000
vt 0.100000 0.000000
s 0
f 17/1/1 32/2/1 16/3/1 9/4/1 10/5/1 7/6/1 8/7/1 5/8/1 6/9/1 1/10/1 2/11/1
f 3/12/2 18/13/2 30/14/2 17/15/2 2/16/2
f 19/17/2 31/18/2 18/13/2 3/12/2 4/19/2
f 11/20/3 22/21/3 21/22/3 28/23/3 27/24/3 26/25/3 20/26/3 12/27/3
f 16/28/3 29/29/3 21/22/3 22/21/3 9/30/3
f 23/31/4 13/32/4 14/33/4 15/34/4 25/35/4 24/36/4
f 44/37/5 42/38/5 43/39/5 40/40/5 41/41/5 39/42/5 37/43/5 35/44/5 34/45/5 33/46/5 36/47/5
f 33/48/2 47/49/2 19/17/2 4/19/2 36/50/2
f 20/26/3 48/51/3 35/52/3 37/53/3 12/27/3
f 46/54/4 45/55/4 25/35/4 15/34/4 38/56/4
