# Blender 4.4.3
# www.blender.org
o Section2.019
v 39.321953 7.163433 0.000000
v 41.684151 7.163433 0.000000
v 41.684151 6.706233 0.000000
v 39.321953 6.706233 0.000000
v 37.797951 6.706233 0.000000
v 37.797951 7.163433 0.000000
v 44.046356 7.163433 0.000000
v 44.046356 6.706233 0.000000
v 46.408554 7.163433 0.000000
v 46.408554 6.706233 0.000000
v 48.770752 7.163433 0.000000
v 48.770752 6.706233 0.000000
v 48.770752 4.344035 0.000000
v 48.770752 1.981837 0.000000
v 48.465950 1.981837 0.000000
v 48.465950 4.344036 0.000000
v 48.770752 0.305433 0.000000
v 48.465950 0.305433 0.000000
v 48.465950 6.706233 0.000000
v 37.836052 6.706233 0.000000
v 39.017151 6.706233 0.000000
v 39.017151 5.525134 0.000000
v 37.836052 5.525134 0.000000
v 37.797951 5.525134 0.000000
v 40.198250 6.706233 0.000000
v 40.198250 5.525134 0.000000
v 41.379356 6.706233 0.000000
v 41.379356 5.525134 0.000000
v 42.560455 6.706233 0.000000
v 42.560455 5.525134 0.000000
v 43.741554 6.706233 0.000000
v 43.741554 5.525134 0.000000
v 44.922653 6.706233 0.000000
v 44.922653 5.525134 0.000000
v 46.103752 6.706233 0.000000
v 46.103752 5.525134 0.000000
v 47.284851 6.706233 0.000000
v 47.284851 5.525134 0.000000
v 48.465950 5.525134 0.000000
v 39.017151 4.344035 0.000000
v 37.836052 4.344035 0.000000
v 37.797951 4.344035 0.000000
v 40.198250 4.344035 0.000000
v 41.379356 4.344035 0.000000
v 42.560455 4.344035 0.000000
v 43.741554 4.344035 0.000000
v 44.922653 4.344035 0.000000
v 46.103752 4.344035 0.000000
v 47.284851 4.344035 0.000000
v 39.017151 3.162936 0.000000
v 37.836052 3.162936 0.000000
v 37.797951 3.162936 0.000000
v 40.198250 3.162936 0.000000
v 41.379356 3.162936 0.000000
v 42.560455 3.162936 0.000000
v 43.741554 3.162936 0.000000
v 44.922653 3.162936 0.000000
v 46.103752 3.162936 0.000000
v 47.284851 3.162936 0.000000
v 48.465950 3.162936 0.000000
v 39.017151 1.981836 0.000000
v 37.836052 1.981836 0.000000
v 37.797951 1.981836 0.000000
v 40.198250 1.981836 0.000000
v 41.379356 1.981836 0.000000
v 42.560455 1.981836 0.000000
v 43.741554 1.981836 0.000000
v 44.922653 1.981836 0.000000
v 46.103752 1.981836 0.000000
v 47.284851 1.981836 0.000000
v 39.017151 0.800737 0.000000
v 37.836052 0.800737 0.000000
v 37.797951 0.800737 0.000000
v 40.198250 0.800737 0.000000
v 41.379356 0.800737 0.000000
v 42.560455 0.800737 0.000000
v 43.741554 0.800737 0.000000
v 44.922653 0.800737 0.000000
v 46.103752 0.800737 0.000000
v 47.284851 0.800737 0.000000
v 48.465950 0.800737 0.000000
v 39.017151 0.305433 0.000000
v 37.836052 0.305433 0.000000
v 37.797951 0.305433 0.000000
v 40.198250 0.305433 0.000000
v 41.379356 0.305433 0.000000
v 42.560455 0.305433 0.000000
v 43.741554 0.305433 0.000000
v 44.922653 0.305433 0.000000
v 46.103752 0.305433 0.000000
v 47.284851 0.305433 0.000000
v 39.321953 0.305433 0.000000
v 41.684151 0.305433 0.000000
v 41.684151 -0.151767 0.000000
v 39.321953 -0.151767 0.000000
v 37.797951 -0.151767 0.000000
v 44.046356 0.305433 0.000000
v 44.046356 -0.151767 0.000000
v 46.408554 0.305433 0.000000
v 46.408554 -0.151767 0.000000
v 48.770752 -0.151767 0.000000
v 38.407555 7.163433 0.000000
v 45.722755 -0.151767 0.000000
v 46.903854 -0.151767 0.000000
v 42.522354 -0.151767 0.000000
v 47.551552 -0.151767 0.000000
v 48.770752 4.572638 0.000000
v 36.578751 7.163433 0.000000
v 36.578751 2.439035 0.000000
v 36.578751 -0.151767 0.000000
v 36.578751 1.981837 0.000000
v 36.578751 4.344036 0.000000
v 36.883553 4.344035 0.000000
v 36.883553 1.981837 0.000000
v 36.578751 0.305433 0.000000
v 36.883553 0.305433 0.000000
v 36.578751 6.706233 0.000000
v 36.883553 6.706233 0.000000
v 36.883553 0.800737 0.000000
v 36.883553 3.162936 0.000000
v 36.883553 5.525134 0.000000
v 37.188354 7.163433 0.000000
v 37.493156 -0.151767 0.000000
v 43.227203 12.151690 0.002468
v 43.151001 12.151690 0.002468
v 43.151001 12.151690 0.021518
v 43.227203 12.151690 0.021518
v 43.151001 13.485190 0.021518
v 43.227203 13.485190 0.021518
v 43.227203 13.485190 0.002468
v 40.598305 11.961190 0.002468
v 40.598305 13.485190 0.002468
v 40.598305 13.485190 0.021518
v 40.598305 11.961190 0.021518
v 43.074806 11.961190 0.002468
v 43.074806 11.961116 0.021518
v 40.712601 11.961190 0.002468
v 40.712601 11.961190 0.021518
v 40.788803 11.961190 0.021518
v 40.788803 13.485190 0.021518
v 40.865005 13.485190 0.002468
v 40.865005 13.485190 0.021518
vn -0.0000 -0.0000 1.0000
vn -0.0000 -1.0000 -0.0000
vn 1.0000 -0.0000 -0.0000
vn -1.0000 -0.0000 -0.0000
vn 0.9285 -0.3713 -0.0007
vn -0.0000 -1.0000 -0.0019
vn -0.0000 1.0000 -0.0000
vt 0.037500 0.225000
vt 0.037500 0.296875
vt 0.037500 0.393750
vt 0.037500 0.418750
vt 0.000000 0.418750
vt 0.000000 0.225000
vt 0.037500 0.103125
vt 0.037500 0.200000
vt 0.000000 0.150000
vt 0.000000 0.100000
vt 0.037500 0.100000
vt 0.037500 0.490625
vt 0.037500 0.587500
vt 0.037500 0.612500
vt 0.000000 0.612500
vt 0.037500 0.684375
vt 0.037500 0.781250
vt 0.037500 0.806250
vt 0.000000 0.806250
vt 0.037500 0.878125
vt 0.037500 0.975000
vt 0.037500 1.000000
vt 0.000000 1.000000
vt 0.231250 0.975000
vt 0.328125 0.975000
vt 0.425000 0.975000
vt 0.425000 1.000000
vt 0.231250 1.000000
vt 0.521875 0.975000
vt 0.562500 0.975000
vt 0.562500 1.000000
vt 0.134375 0.975000
vt 0.212500 1.000000
vt 0.134375 0.103125
vt 0.134375 0.200000
vt 0.134375 0.100000
vt 0.134375 0.296875
vt 0.134375 0.393750
vt 0.134375 0.490625
vt 0.134375 0.587500
vt 0.134375 0.684375
vt 0.134375 0.781250
vt 0.134375 0.878125
vt 0.231250 0.103125
vt 0.231250 0.200000
vt 0.231250 0.100000
vt 0.231250 0.296875
vt 0.231250 0.393750
vt 0.231250 0.490625
vt 0.231250 0.587500
vt 0.231250 0.684375
vt 0.231250 0.781250
vt 0.231250 0.878125
vt 0.328125 0.103125
vt 0.328125 0.200000
vt 0.328125 0.100000
vt 0.328125 0.296875
vt 0.328125 0.393750
vt 0.328125 0.490625
vt 0.328125 0.587500
vt 0.328125 0.684375
vt 0.328125 0.781250
vt 0.328125 0.878125
vt 0.425000 0.103125
vt 0.425000 0.200000
vt 0.425000 0.100000
vt 0.425000 0.296875
vt 0.425000 0.393750
vt 0.425000 0.490625
vt 0.425000 0.587500
vt 0.425000 0.684375
vt 0.425000 0.781250
vt 0.425000 0.878125
vt 0.521875 0.103125
vt 0.521875 0.200000
vt 0.521875 0.100000
vt 0.521875 0.296875
vt 0.521875 0.393750
vt 0.521875 0.490625
vt 0.521875 0.587500
vt 0.521875 0.684375
vt 0.521875 0.781250
vt 0.521875 0.878125
vt 0.562500 0.103125
vt 0.562500 0.200000
vt 0.562500 0.100000
vt 0.562500 0.225000
vt 0.562500 0.296875
vt 0.562500 0.393750
vt 0.562500 0.418750
vt 0.562500 0.490625
vt 0.562500 0.587500
vt 0.562500 0.612500
vt 0.562500 0.684375
vt 0.562500 0.781250
vt 0.562500 0.806250
vt 0.562500 0.878125
vt 0.600000 0.225000
vt 0.600000 0.418750
vt 0.600000 0.100000
vt 0.600000 0.487500
vt 0.600000 0.612500
vt 0.600000 0.750000
vt 0.600000 0.806250
vt 0.600000 0.846875
vt 0.600000 0.900000
vt 0.600000 1.000000
vt 0.425000 0.025000
vt 0.328125 0.025000
vt 0.231250 0.025000
vt 0.231250 0.000000
vt 0.387500 0.000000
vt 0.425000 0.000000
vt 0.562500 0.025000
vt 0.521875 0.025000
vt 0.562500 0.000000
vt 0.134375 0.025000
vt 0.037500 0.025000
vt 0.037500 0.000000
vt 0.000000 0.050000
vt 0.000000 0.000000
vt 0.600000 0.000000
vt 0.600000 0.075000
vt 0.600000 0.889558
vt 0.600000 0.883308
vt 0.601562 0.883308
vt 0.601562 0.889558
vt 0.709375 0.209375
vt 0.709375 0.215625
vt 0.600000 0.215625
vt 0.600000 0.209375
vt 0.600000 0.866777
vt 0.600000 0.759375
vt 0.601562 0.759375
vt 0.601562 0.866777
vt 0.600000 0.759375
vt 0.600000 0.634375
vt 0.601562 0.634375
vt 0.601562 0.759375
vt 0.601562 0.866777
vt 0.601562 0.883308
vt 0.600000 0.883302
vt 0.600000 0.866777
vt 0.600000 0.440625
vt 0.600000 0.431250
vt 0.601562 0.431250
vt 0.601562 0.440625
vt 0.600000 0.634375
vt 0.600000 0.446875
vt 0.601562 0.634375
vt 0.725000 0.000000
vt 0.725000 0.009375
vt 0.725000 0.015625
vt 0.600000 0.015625
vt 0.600000 0.021875
vt 0.725006 0.203125
vt 0.600000 0.415625
vt 0.600000 0.409375
vt 0.601562 0.409375
vt 0.600000 0.221875
vt 0.600000 0.215625
vt 0.601562 0.215625
s 0
f 4/1/1 25/2/1 27/3/1 3/4/1 2/5/1 1/6/1
f 20/7/1 21/8/1 4/1/1 1/6/1 102/9/1 6/10/1 5/11/1
f 3/4/1 29/12/1 31/13/1 8/14/1 7/15/1 2/5/1
f 8/14/1 33/16/1 35/17/1 10/18/1 9/19/1 7/15/1
f 10/18/1 37/20/1 19/21/1 12/22/1 11/23/1 9/19/1
f 16/24/1 60/25/1 15/26/1 14/27/1 13/28/1
f 15/26/1 81/29/1 18/30/1 17/31/1 14/27/1
f 39/32/1 16/24/1 13/28/1 107/33/1 12/22/1 19/21/1
f 23/34/1 22/35/1 21/8/1 20/7/1
f 23/34/1 20/7/1 5/11/1 24/36/1
f 25/2/1 4/1/1 21/8/1 22/35/1 26/37/1
f 26/37/1 28/38/1 27/3/1 25/2/1
f 29/12/1 3/4/1 27/3/1 28/38/1 30/39/1
f 30/39/1 32/40/1 31/13/1 29/12/1
f 33/16/1 8/14/1 31/13/1 32/40/1 34/41/1
f 34/41/1 36/42/1 35/17/1 33/16/1
f 37/20/1 10/18/1 35/17/1 36/42/1 38/43/1
f 38/43/1 39/32/1 19/21/1 37/20/1
f 41/44/1 40/45/1 22/35/1 23/34/1
f 41/44/1 23/34/1 24/36/1 42/46/1
f 40/45/1 43/47/1 26/37/1 22/35/1
f 43/47/1 44/48/1 28/38/1 26/37/1
f 44/48/1 45/49/1 30/39/1 28/38/1
f 45/49/1 46/50/1 32/40/1 30/39/1
f 46/50/1 47/51/1 34/41/1 32/40/1
f 47/51/1 48/52/1 36/42/1 34/41/1
f 48/52/1 49/53/1 38/43/1 36/42/1
f 49/53/1 16/24/1 39/32/1 38/43/1
f 51/54/1 50/55/1 40/45/1 41/44/1
f 51/54/1 41/44/1 42/46/1 52/56/1
f 50/55/1 53/57/1 43/47/1 40/45/1
f 53/57/1 54/58/1 44/48/1 43/47/1
f 54/58/1 55/59/1 45/49/1 44/48/1
f 55/59/1 56/60/1 46/50/1 45/49/1
f 56/60/1 57/61/1 47/51/1 46/50/1
f 57/61/1 58/62/1 48/52/1 47/51/1
f 58/62/1 59/63/1 49/53/1 48/52/1
f 59/63/1 60/25/1 16/24/1 49/53/1
f 62/64/1 61/65/1 50/55/1 51/54/1
f 62/64/1 51/54/1 52/56/1 63/66/1
f 61/65/1 64/67/1 53/57/1 50/55/1
f 64/67/1 65/68/1 54/58/1 53/57/1
f 65/68/1 66/69/1 55/59/1 54/58/1
f 66/69/1 67/70/1 56/60/1 55/59/1
f 67/70/1 68/71/1 57/61/1 56/60/1
f 68/71/1 69/72/1 58/62/1 57/61/1
f 69/72/1 70/73/1 59/63/1 58/62/1
f 70/73/1 15/26/1 60/25/1 59/63/1
f 72/74/1 71/75/1 61/65/1 62/64/1
f 72/74/1 62/64/1 63/66/1 73/76/1
f 71/75/1 74/77/1 64/67/1 61/65/1
f 74/77/1 75/78/1 65/68/1 64/67/1
f 75/78/1 76/79/1 66/69/1 65/68/1
f 76/79/1 77/80/1 67/70/1 66/69/1
f 77/80/1 78/81/1 68/71/1 67/70/1
f 78/81/1 79/82/1 69/72/1 68/71/1
f 79/82/1 80/83/1 70/73/1 69/72/1
f 80/83/1 81/29/1 15/26/1 70/73/1
f 83/84/1 82/85/1 71/75/1 72/74/1
f 83/84/1 72/74/1 73/76/1 84/86/1
f 82/85/1 92/87/1 85/88/1 74/77/1 71/75/1
f 85/88/1 86/89/1 75/78/1 74/77/1
f 86/89/1 93/90/1 87/91/1 76/79/1 75/78/1
f 87/91/1 88/92/1 77/80/1 76/79/1
f 88/92/1 97/93/1 89/94/1 78/81/1 77/80/1
f 89/94/1 90/95/1 79/82/1 78/81/1
f 90/95/1 99/96/1 91/97/1 80/83/1 79/82/1
f 91/97/1 18/30/1 81/29/1 80/83/1
f 93/90/1 86/89/1 85/88/1 92/87/1 95/98/1 94/99/1
f 95/98/1 92/87/1 82/85/1 83/84/1 84/86/1 96/100/1
f 94/99/1 105/101/1 98/102/1 97/93/1 88/92/1 87/91/1 93/90/1
f 98/102/1 103/103/1 100/104/1 99/96/1 90/95/1 89/94/1 97/93/1
f 100/104/1 104/105/1 106/106/1 101/107/1 17/31/1 18/30/1 91/97/1 99/96/1
f 114/108/1 120/109/1 113/110/1 112/111/1 109/112/1 111/113/1
f 116/114/1 119/115/1 114/108/1 111/113/1 115/116/1
f 113/110/1 121/117/1 118/118/1 117/119/1 112/111/1
f 114/108/1 119/115/1 73/76/1 63/66/1
f 119/115/1 116/114/1 84/86/1 73/76/1
f 120/109/1 114/108/1 63/66/1 52/56/1
f 113/110/1 120/109/1 52/56/1 42/46/1
f 121/117/1 113/110/1 42/46/1 24/36/1
f 121/117/1 24/36/1 5/11/1 118/118/1
f 118/118/1 5/11/1 6/10/1 122/120/1 108/121/1 117/119/1
f 84/86/1 116/114/1 115/116/1 110/122/1 123/123/1 96/100/1
f 127/124/2 126/125/2 125/126/2 124/127/2
f 126/128/1 127/129/1 129/130/1 128/131/1
f 129/132/3 127/133/3 124/134/3 130/135/3
f 134/136/4 133/137/4 132/138/4 131/139/4
f 126/140/5 136/141/5 135/142/5 125/143/5
f 138/144/2 134/145/2 131/146/2 137/147/2
f 136/148/6 139/149/6 138/144/6 137/147/6 135/150/6
f 134/151/1 138/152/1 139/153/1 140/154/1 133/122/1
f 126/128/1 128/131/1 142/155/1 140/154/1 139/153/1 136/156/1
f 133/145/7 140/157/7 142/158/7 141/159/7 132/146/7
f 142/158/7 128/160/7 129/161/7 130/162/7 141/159/7
