# Blender 4.4.3
# www.blender.org
o Section2.011
v 47.551552 -0.304167 0.000000
v 46.903854 -0.304167 0.000000
v 45.722755 -0.304167 0.000000
v 45.113152 -0.304167 0.000000
v 37.797951 -7.619367 0.000000
v 37.797951 -8.381367 0.000000
v 37.797951 -10.210167 0.000000
v 37.797951 -10.972167 0.000000
v 37.797951 -12.191367 0.000000
v 37.797951 -13.105767 0.000000
v 37.797951 -19.201767 0.000000
v 37.797951 -22.821266 0.000000
v 37.797951 -19.811367 0.000000
v 40.236351 -19.811367 0.000000
v 40.236351 -22.821266 0.000000
v 47.551552 -7.619367 0.000000
v 45.113152 -7.619367 0.000000
v 47.551552 -6.400167 0.000000
v 42.065155 -10.057767 0.000000
v 43.284355 -10.057767 0.000000
v 45.722755 -10.057767 0.000000
v 46.941956 -10.057767 0.000000
v 37.797951 -10.057767 0.000000
v 47.551552 -10.057767 0.000000
v 37.797951 -16.763367 0.000000
v 40.236351 -16.763367 0.000000
v 40.236351 -10.057767 0.000000
v 40.236351 -15.544167 0.000000
v 37.797951 -15.544167 0.000000
v 40.236351 -10.210167 0.000000
v 45.113152 -3.504567 0.000000
v 45.113152 -5.333367 0.000000
v 45.113152 -3.352167 0.000000
v 45.113152 -1.523367 0.000000
v 44.808350 -7.619367 0.000000
v 25.605953 -21.030567 0.000000
v 25.605953 -19.811367 0.000000
v 32.921150 -19.811367 0.000000
v 32.921150 -21.030567 0.000000
v 26.215553 -21.030567 0.000000
v 25.910753 -21.030567 0.000000
v 33.225952 -13.715367 0.000000
v 33.225952 -14.934566 0.000000
v 32.921150 -14.934566 0.000000
v 32.921150 -13.715367 0.000000
v 33.225952 -17.372967 0.000000
v 33.225952 -18.592167 0.000000
v 32.921150 -18.592167 0.000000
v 32.921150 -17.372967 0.000000
v 37.645554 -7.619367 0.000000
v 37.645554 -12.496167 0.000000
v 35.207153 -12.496167 0.000000
v 35.207153 -7.619367 0.000000
v 37.645554 -12.191367 0.000000
v 37.645554 -10.972167 0.000000
v 25.605953 -15.544167 0.000000
v 25.605953 -16.763367 0.000000
v 33.225952 -19.201767 0.000000
v 33.225952 -16.763367 0.000000
v 25.605953 -11.276967 0.000000
v 32.921150 -11.276967 0.000000
v 33.225952 -15.544167 0.000000
v 33.225952 -13.105767 0.000000
v 37.645554 -10.210167 0.000000
v 37.645554 -8.381367 0.000000
v 37.645554 -15.544167 0.000000
v 37.645554 -19.201767 0.000000
v 37.645554 -16.763367 0.000000
v 37.645554 -13.105767 0.000000
v 25.605953 -19.506567 0.000000
v 25.605953 -17.677767 0.000000
v 25.605953 -14.629767 0.000000
v 25.605953 -12.800967 0.000000
v 25.910753 -11.276967 0.000000
v 25.758352 -11.276967 0.000000
v 45.722755 14.631033 0.000000
v 44.503555 14.631033 0.000000
v 41.379356 9.754233 0.000000
v 40.312553 9.754233 0.000000
v 37.797951 7.315833 0.000000
v 38.407555 7.315833 0.000000
v 43.893951 9.754233 0.000000
v 43.893951 7.315833 0.000000
v 37.797951 9.754233 0.000000
v 46.332352 7.315833 0.000000
v 43.893951 14.631033 0.000000
v 46.332352 14.631033 0.000000
v 46.332352 9.906633 0.000000
v 43.893951 9.906633 0.000000
v 36.578751 9.754233 0.000000
v 36.578751 7.315833 0.000000
v 37.188354 7.315833 0.000000
v 37.131203 -12.496167 0.000000
v 35.207153 -9.991282 0.000000
vn -0.0000 -0.0000 1.0000
vt 1.000000 0.318739
vt 0.863150 0.318739
vt 0.863150 0.207873
vt 1.000000 0.207873
vt 0.039197 0.832936
vt 0.097993 0.774141
vt 0.102892 0.769241
vt 0.161688 0.710446
vt 0.235182 0.636951
vt 0.313576 0.715345
vt 0.274379 0.754542
vt 0.078394 0.950527
vt 0.057571 0.929704
vt 0.019599 0.891732
vt 0.000000 0.872133
vt 0.156788 0.401769
vt 0.215584 0.460565
vt 0.254781 0.499762
vt 0.333175 0.578156
vt 0.372372 0.617353
vt 0.391970 0.636951
vt 0.225383 0.627152
vt 0.000000 0.401769
vt 0.024498 0.377271
vt 0.078394 0.323375
vt 0.724568 0.318739
vt 0.724568 0.207873
vt 0.835433 0.207873
vt 0.083294 0.318476
vt 0.107792 0.293977
vt 0.146989 0.254780
vt 0.176387 0.225383
vt 0.254781 0.146989
vt 0.333175 0.225383
vt 0.161688 0.396870
vt 0.391970 0.443464
vt 0.405828 0.443464
vt 0.419687 0.443464
vt 0.724568 0.443464
vt 0.724568 0.498897
vt 0.391970 0.498897
vt 0.724568 0.540471
vt 0.724568 0.432628
vt 0.724568 0.318739
vt 0.812048 0.318739
vt 0.835434 0.318739
vt 0.835434 0.332598
vt 0.835434 0.388031
vt 0.835434 0.422676
vt 0.835434 0.505826
vt 0.835434 0.540471
vt 0.724568 0.200944
vt 0.724568 0.000000
vt 0.752284 0.000000
vt 0.807717 0.000000
vt 0.835433 0.000000
vt 0.835433 0.200944
vt 0.724568 0.554329
vt 0.724568 0.609762
vt 0.724568 0.720628
vt 0.724568 0.776061
vt 0.724568 0.886927
vt 0.405828 0.886927
vt 0.398899 0.886927
vt 0.391970 0.886927
vt 0.391970 0.817636
vt 0.391970 0.734486
vt 0.391970 0.692912
vt 0.391970 0.637479
vt 0.391970 0.595904
vt 0.391970 0.512755
vt 0.171487 0.220483
vt 0.029398 0.078394
vt 0.048996 0.058795
vt 0.088193 0.019599
vt 0.107792 0.000000
vt 0.249881 0.142089
vt 0.613702 0.218267
vt 0.613702 0.169763
vt 0.613702 0.055433
vt 0.724568 0.055433
vt 0.724568 0.083149
vt 0.724568 0.332598
vt 0.613702 0.332598
vt 0.606773 0.443464
vt 0.391970 0.443464
vt 0.391970 0.415747
vt 0.391970 0.360314
vt 0.391970 0.332598
vt 0.606773 0.332598
vt 0.724568 0.443464
vt 0.724568 0.027716
vt 0.613702 0.000000
s 0
f 15/1/1 14/2/1 13/3/1 12/4/1
f 34/5/1 33/6/1 31/7/1 32/8/1 17/9/1 16/10/1 18/11/1 1/12/1 2/13/1 3/14/1 4/15/1
f 27/16/1 19/17/1 20/18/1 21/19/1 22/20/1 24/21/1 16/10/1 17/9/1 35/22/1 5/23/1 6/24/1 23/25/1
f 26/26/1 25/27/1 11/28/1 13/3/1 14/2/1
f 7/29/1 8/30/1 9/31/1 10/32/1 29/33/1 28/34/1 30/35/1 27/16/1 23/25/1
f 36/36/1 41/37/1 40/38/1 39/39/1 38/40/1 37/41/1
f 53/42/1 94/43/1 52/44/1 93/45/1 51/46/1 54/47/1 55/48/1 64/49/1 65/50/1 50/51/1
f 68/52/1 59/53/1 46/54/1 47/55/1 58/56/1 67/57/1 11/28/1 25/27/1
f 38/40/1 48/58/1 49/59/1 44/60/1 45/61/1 61/62/1 74/63/1 75/64/1 60/65/1 73/66/1 72/67/1 56/68/1 57/69/1 71/70/1 70/71/1 37/41/1
f 69/72/1 63/73/1 42/74/1 43/75/1 62/76/1 66/77/1 29/33/1 10/32/1
f 78/78/1 79/79/1 84/80/1 80/81/1 81/82/1 83/83/1 82/84/1
f 88/85/1 87/86/1 76/87/1 77/88/1 86/89/1 89/90/1 82/84/1 83/83/1 85/91/1
f 91/53/1 92/92/1 80/81/1 84/80/1 90/93/1
