# Blender 4.4.3
# www.blender.org
o Section2.009
v 46.903854 -0.304167 2.438400
v 47.551552 -0.304167 2.438400
v 45.722755 -0.304167 2.438400
v 45.113152 -0.304167 2.438400
v 37.797951 -8.381367 2.438400
v 37.797951 -7.619367 2.438400
v 37.797951 -10.972167 2.438400
v 37.797951 -10.210167 2.438400
v 37.797951 -12.191367 2.438400
v 37.797951 -13.105767 2.438400
v 37.797951 -19.201767 2.438400
v 37.797951 -22.821266 2.438400
v 37.797951 -19.811367 2.438400
v 40.236351 -22.821266 2.438400
v 40.236351 -19.811367 2.438400
v 37.797951 -8.228967 2.438400
v 37.797951 -9.448167 2.438400
v 47.551552 -9.448167 2.438400
v 47.551552 -8.228967 2.438400
v 46.941956 -0.304167 2.438400
v 40.236351 -14.934566 2.438400
v 40.236351 -13.715367 2.438400
v 47.551552 -7.619367 2.438400
v 40.236351 -10.210167 2.438400
v 40.236351 -10.057767 2.438400
v 40.236351 -13.105767 2.438400
v 40.236351 -15.544167 2.438400
v 38.407555 -15.544167 2.438400
v 40.236351 -17.372967 2.438400
v 40.236351 -16.763367 2.438400
v 38.407555 -16.763367 2.438400
v 37.797951 -10.057767 2.438400
v 47.551552 -10.057767 2.438400
v 45.113152 -7.619367 2.438400
v 37.797951 -16.763367 2.438400
v 37.797951 -15.544167 2.438400
v 43.284355 -10.057767 2.438400
v 42.065155 -10.057767 2.438400
v 46.941956 -10.057767 2.438400
v 45.722755 -10.057767 2.438400
v 45.113152 -5.333367 2.438400
v 45.113152 -3.504567 2.438400
v 45.113152 -3.352167 2.438400
v 45.113152 -1.523367 2.438400
v 47.551552 -6.400167 2.438400
v 44.808350 -7.619367 2.438400
v 32.921150 -20.420967 2.438400
v 32.921150 -19.811367 2.438400
v 26.215553 -21.030567 2.438400
v 32.921150 -21.030567 2.438400
v 25.605953 -19.811367 2.438400
v 25.605953 -21.030567 2.438400
v 25.910753 -21.030567 2.438400
v 25.910753 -11.276967 2.438400
v 32.921150 -11.886567 2.438400
v 32.921150 -11.276967 2.438400
v 32.921150 -13.105767 2.438400
v 32.921150 -14.324967 2.438400
v 32.921150 -15.544167 2.438400
v 32.921150 -17.982567 2.438400
v 32.921150 -16.763367 2.438400
v 32.921150 -19.201767 2.438400
v 25.301153 -16.763367 2.438400
v 25.301153 -15.544167 2.438400
v 35.816750 -12.496167 2.438400
v 37.645554 -12.496167 2.438400
v 37.645554 -11.886567 2.438400
v 37.645554 -8.228967 2.438400
v 35.816750 -7.619367 2.438400
v 37.645554 -7.619367 2.438400
v 33.530754 -13.105767 2.438400
v 33.530754 -19.201767 2.438400
v 33.530754 -16.763367 2.438400
v 33.530754 -15.544167 2.438400
v 33.225952 -13.105767 2.438400
v 33.225952 -15.544167 2.438400
v 33.225952 -19.201767 2.438400
v 33.225952 -16.763367 2.438400
v 35.207153 -7.619367 2.438400
v 35.207153 -12.496167 2.438400
v 25.605953 -11.276967 2.438400
v 33.225952 -14.934566 2.438400
v 33.225952 -13.715367 2.438400
v 33.225952 -18.592167 2.438400
v 33.225952 -17.372967 2.438400
v 37.645554 -12.191367 2.438400
v 37.645554 -10.210167 2.438400
v 37.645554 -10.972167 2.438400
v 37.645554 -8.381367 2.438400
v 37.645554 -15.544167 2.438400
v 37.645554 -19.201767 2.438400
v 37.645554 -16.763367 2.438400
v 37.645554 -13.105767 2.438400
v 25.605953 -19.506567 2.438400
v 25.605953 -17.677767 2.438400
v 25.605953 -15.544167 2.438400
v 25.605953 -14.629767 2.438400
v 25.605953 -16.763367 2.438400
v 25.605953 -12.800967 2.438400
v 32.921150 -13.715367 2.438400
v 32.921150 -14.934566 2.438400
v 32.921150 -17.372967 2.438400
v 32.921150 -18.592167 2.438400
v 25.758352 -11.276967 2.438400
v 45.722755 14.631033 2.438400
v 44.503555 14.631033 2.438400
v 46.332352 9.144633 2.438400
v 46.332352 7.925433 2.438400
v 46.332352 9.906633 2.438400
v 46.332352 14.631033 2.438400
v 43.893951 9.754233 2.438400
v 43.893951 14.631033 2.438400
v 37.797951 9.754233 2.438400
v 46.332352 7.315833 2.438400
v 37.797951 7.315833 2.438400
v 38.407555 7.315833 2.438400
v 41.379356 9.754233 2.438400
v 43.893951 9.906633 2.438400
v 40.312553 9.754233 2.438400
v 36.578751 7.315833 2.438400
v 36.578751 9.754233 2.438400
v 37.188354 7.315833 2.438400
v 37.188354 9.754233 2.438400
v 23.777153 34.897388 7.317668
v 23.777153 37.335789 7.317668
v 23.777153 37.335789 4.879268
v 23.777153 34.897388 4.879268
v 24.996353 37.335789 4.879268
v 24.996353 37.335789 7.317668
v 24.386753 34.897388 7.317668
v 24.386753 34.897388 4.879268
v 47.551552 -0.304167 2.352911
v 46.903854 -0.304167 2.352911
v 45.722755 -0.304167 2.352911
v 45.113152 -0.304167 2.352911
v 37.797951 -7.619367 2.352909
v 37.797951 -8.381367 2.352909
v 37.797951 -10.972167 2.352908
v 37.797951 -10.210167 2.352908
v 37.797951 -12.191367 2.352908
v 37.797951 -13.105767 2.352907
v 37.797951 -22.821266 2.352904
v 37.797951 -19.201767 2.352905
v 40.236351 -22.821266 2.352904
v 40.236351 -19.811367 2.352905
v 42.065155 -10.057767 2.352908
v 43.284355 -10.057767 2.352908
v 45.722755 -10.057767 2.352908
v 46.941956 -10.057767 2.352908
v 40.236351 -10.057767 2.352908
v 47.551552 -10.057767 2.352908
v 40.236351 -16.763367 2.352906
v 40.236351 -15.544167 2.352906
v 40.236351 -10.210167 2.352908
v 37.797951 -15.544167 2.352906
v 37.797951 -16.763367 2.352906
v 45.113152 -3.504567 2.352911
v 45.113152 -5.333367 2.352910
v 45.113152 -3.352167 2.352911
v 45.113152 -1.523367 2.352911
v 45.113152 -7.619367 2.352909
v 47.551552 -7.619367 2.352909
v 47.551552 -6.400167 2.352910
v 44.808350 -7.619367 2.352909
v 26.215553 -21.030567 2.352905
v 32.921150 -21.030567 2.352905
v 32.921150 -19.811367 2.352905
v 25.910753 -21.030567 2.352905
v 25.605953 -21.030567 2.352905
v 25.605953 -19.811367 2.352905
v 25.301153 -16.763367 2.352906
v 25.301153 -15.544167 2.352906
v 33.225952 -14.934566 2.352907
v 33.225952 -15.544167 2.352906
v 33.225952 -13.715367 2.352907
v 33.225952 -13.105767 2.352907
v 33.225952 -18.592167 2.352906
v 33.225952 -19.201767 2.352905
v 33.225952 -16.763367 2.352906
v 33.225952 -17.372967 2.352906
v 37.645554 -12.191367 2.352908
v 37.645554 -12.496167 2.352907
v 37.645554 -10.972167 2.352908
v 37.645554 -10.210167 2.352908
v 37.645554 -8.381367 2.352909
v 37.645554 -7.619367 2.352909
v 37.645554 -15.544167 2.352906
v 37.645554 -19.201767 2.352905
v 37.645554 -16.763367 2.352906
v 37.645554 -13.105767 2.352907
v 35.207153 -12.496167 2.352907
v 35.207153 -7.619367 2.352909
v 25.605953 -19.506567 2.352905
v 25.605953 -17.677767 2.352906
v 25.605953 -14.629767 2.352907
v 25.605953 -15.544167 2.352906
v 25.605953 -16.763367 2.352906
v 25.605953 -12.800967 2.352907
v 25.605953 -11.276967 2.352908
v 32.921150 -13.715367 2.352907
v 32.921150 -11.276967 2.352908
v 32.921150 -14.934566 2.352907
v 32.921150 -18.592167 2.352906
v 32.921150 -17.372967 2.352906
v 25.910753 -11.276967 2.352908
v 25.758352 -11.276967 2.352908
v 37.797951 7.315833 2.352914
v 38.407555 7.315833 2.352914
v 46.332352 7.315833 2.352914
v 46.332352 9.906633 2.352915
v 41.379356 9.754233 2.352915
v 43.893951 9.754233 2.352915
v 43.893951 9.906633 2.352915
v 40.312553 9.754233 2.352915
v 37.797951 9.754233 2.352915
v 46.332352 14.631033 2.352916
v 45.722755 14.631033 2.352916
v 44.503555 14.631033 2.352916
v 43.893951 14.631033 2.352916
v 36.578751 7.315833 2.352914
v 36.578751 9.754233 2.352915
v 37.188354 7.315833 2.352914
vn -0.0000 -1.0000 -0.0000
vn 1.0000 -0.0000 -0.0000
vn -1.0000 -0.0000 -0.0000
vn -0.0000 1.0000 -0.0000
vt -20.000000 1.964941
vt -20.000000 2.000000
vt -19.750000 2.000000
vt -19.734375 2.000000
vt -19.734375 1.964941
vt -19.250000 2.000000
vt -19.250000 1.964941
vt -19.000000 2.000000
vt -19.000000 1.964941
vt 2.000004 1.964940
vt 2.000004 2.000000
vt 2.250004 2.000000
vt 2.312504 2.000000
vt 2.312504 1.964940
vt 3.062504 1.964939
vt 3.062504 2.000000
vt 3.375004 2.000000
vt 3.375004 1.964939
vt 3.875004 2.000000
vt 3.875004 1.964939
vt 2.750004 2.000000
vt 3.000004 2.000000
vt 4.250004 2.000000
vt 4.250004 1.964939
vt -7.000004 1.964938
vt -7.000004 2.000000
vt -7.250004 2.000000
vt -8.484379 2.000000
vt -8.484379 1.964938
vt 9.484375 1.964938
vt 9.484375 2.000000
vt 8.250000 2.000000
vt 8.250000 1.964938
vt 17.000000 1.964939
vt 17.000000 2.000000
vt 17.500000 2.000000
vt 17.500000 1.964939
vt 18.500000 1.964939
vt 18.500000 2.000000
vt 19.000000 2.000000
vt 19.000000 1.964939
vt 16.250000 1.964939
vt 16.250000 2.000000
vt 19.250000 2.000000
vt 19.250000 1.964939
vt 7.250000 2.000000
vt 7.000000 2.000000
vt 7.000000 1.964938
vt 6.499996 1.964939
vt 6.499996 2.000000
vt 6.249996 2.000000
vt 5.749996 2.000000
vt 5.499996 2.000000
vt 4.312496 2.000000
vt 4.312496 1.964939
vt 16.000000 1.964939
vt 16.000000 2.000000
vt 17.000000 1.964939
vt 17.000000 1.964939
vt 16.000000 1.964938
vt 4.249996 2.000000
vt 4.249996 1.964939
vt 0.312504 1.964940
vt 0.312504 2.000000
vt 1.062504 2.000000
vt 1.062504 1.964940
vt 0.250004 1.964940
vt 0.250004 2.000000
vt -0.999996 1.964941
vt -0.999996 2.000000
vt -0.499996 2.000000
vt -0.499996 1.964941
vt 2.000004 1.964940
vt -3.750004 1.964939
vt -3.750004 2.000000
vt -3.500004 2.000000
vt -3.000004 2.000000
vt -2.750004 2.000000
vt -2.750004 1.964940
vt -2.250004 1.964940
vt -2.250004 2.000000
vt 0.249996 2.000000
vt 0.249996 1.964941
vt -19.000000 1.964940
vt -18.875000 2.000000
vt -18.875000 1.964940
vt -16.000000 2.000000
vt -16.000000 1.964940
vt -11.187500 1.964938
vt -11.187500 2.000000
vt -13.937500 2.000000
vt -13.937499 1.964938
vt 8.062504 1.964938
vt 8.062504 2.000000
vt 7.812504 2.000000
vt 7.562504 2.000000
vt 7.562503 1.964938
vt -11.062500 1.964938
vt -11.062500 2.000000
vt -7.437500 1.964938
vt -7.437500 2.000000
vt -7.937500 2.000000
vt -7.937500 1.964938
vt -10.937500 1.964938
vt -10.937500 2.000000
vt 7.187500 1.964938
vt 7.187500 2.000000
vt 6.687500 2.000000
vt 6.687500 1.964939
vt -5.125004 1.964939
vt -5.125004 2.000000
vt -5.375004 2.000000
vt -5.375003 1.964939
vt 6.375000 1.964939
vt 6.375000 2.000000
vt 6.875000 2.000000
vt 6.875000 1.964939
vt 6.125000 1.964939
vt 6.125000 2.000000
vt -6.625004 1.964938
vt -6.625004 2.000000
vt -6.875004 2.000000
vt -6.875004 1.964938
vt -5.875004 1.964939
vt -5.875004 2.000000
vt -6.125004 2.000000
vt -6.125004 1.964938
vt 4.812500 1.964939
vt 4.812500 2.000000
vt 4.687500 2.000000
vt 4.687500 1.964939
vt 4.187500 1.964939
vt 4.187500 2.000000
vt 3.875000 2.000000
vt 3.875000 1.964939
vt 4.562500 2.000000
vt 3.125000 2.000000
vt 3.125000 1.964940
vt 3.062500 2.000000
vt 2.812500 2.000000
vt 2.812500 1.964940
vt 15.937500 1.964939
vt 15.937500 2.000000
vt 15.937500 1.964938
vt 16.000000 1.964938
vt 15.937500 1.964938
vt -15.750000 1.964939
vt -15.750000 2.000000
vt -15.687500 2.000000
vt -15.687500 1.964939
vt 14.125000 1.964939
vt 14.125000 2.000000
vt 14.250000 2.000000
vt 14.125000 1.964938
vt 14.125000 1.964938
vt -15.187502 1.964939
vt -15.187502 2.000000
vt -15.437502 2.000000
vt -16.187502 2.000000
vt -16.187502 1.964939
vt -14.000000 2.000000
vt -13.875000 2.000000
vt -13.875000 1.964939
vt 15.562500 1.964940
vt 15.562500 2.000000
vt 14.812500 2.000000
vt 14.562500 2.000000
vt 14.562499 1.964940
vt -2.062504 1.964940
vt -2.062504 2.000000
vt -4.062504 2.000000
vt -4.062504 1.964939
vt -7.312500 1.964938
vt -7.312500 2.000000
vt -6.562500 1.964938
vt -6.562500 2.000000
vt -5.312500 1.964939
vt -5.312500 2.000000
vt -5.687500 2.000000
vt -5.687500 1.964939
vt -6.187500 1.964938
vt -6.187500 2.000000
vt -4.562500 1.964939
vt -4.562500 2.000000
vt -3.937500 1.964939
vt -3.937500 2.000000
vt 5.062504 1.964939
vt 5.062504 2.000000
vt 4.812504 2.000000
vt 4.312504 2.000000
vt 4.062504 2.000000
vt 4.062504 1.964939
vt 5.562504 1.964939
vt 5.562504 2.000000
vt 5.312504 2.000000
vt 7.062504 1.964938
vt 7.062504 2.000000
vt 6.812504 2.000000
vt 6.562504 2.000000
vt 6.562504 1.964938
vt 6.312504 2.000000
vt 5.812504 2.000000
vt 7.312504 2.000000
vt 13.062504 1.964939
vt 13.062504 2.000000
vt 10.187504 2.000000
vt 10.187504 1.964939
vt 10.125004 2.000000
vt 10.125004 1.964939
vt 10.062504 2.000000
vt 10.062504 1.964939
vt -15.500006 1.964942
vt -15.500006 2.000000
vt -15.750006 2.000000
vt -15.750006 1.964942
vt -19.000006 2.000000
vt -19.000004 1.964942
vt -3.000004 1.964942
vt -3.250004 2.000000
vt -4.062504 1.964942
vt 18.000000 1.964942
vt 18.000000 2.000000
vt 16.968750 2.000000
vt 16.968750 1.964942
vt 4.062500 1.964942
vt 4.062500 2.000000
vt 4.000000 2.000000
vt 4.000000 1.964942
vt 16.531250 2.000000
vt 16.531250 1.964942
vt 15.500000 2.000000
vt 15.500000 1.964942
vt 19.999994 1.964943
vt 19.999994 2.000000
vt 19.749994 2.000000
vt 19.749994 1.964943
vt 19.249994 2.000000
vt 19.249994 1.964943
vt 18.999994 2.000000
vt 18.999996 1.964943
vt -6.000004 2.000000
vt -6.000004 1.964943
vt 6.000000 1.964943
vt 6.000000 2.000000
vt 3.000000 2.000000
vt 3.000000 1.964942
vt -15.000006 1.964942
vt -15.000006 2.000000
vt -15.250006 2.000000
vt -15.250006 1.964942
vt 15.250000 2.000000
vt 15.000000 2.000000
vt 15.000000 1.964942
vt -15.656250 6.000000
vt -14.656250 6.000000
vt -14.656250 5.000000
vt -15.656250 5.000000
vt 10.750000 6.000000
vt 10.250000 6.000000
vt 10.250000 5.000000
vt 10.750000 5.000000
vt 10.500000 5.000000
vt 10.500000 6.000000
s 0
f 132/1/1 2/2/1 20/3/1 1/4/1 133/5/1
f 133/5/1 1/4/1 3/6/1 134/7/1
f 134/7/1 3/6/1 4/8/1 135/9/1
f 136/10/2 6/11/2 16/12/2 5/13/2 137/14/2
f 139/15/2 8/16/2 7/17/2 138/18/2
f 138/18/2 7/17/2 9/19/2 140/20/2
f 137/14/2 5/13/2 17/21/2 32/22/2 8/16/2 139/15/2
f 140/20/2 9/19/2 10/23/2 141/24/2
f 143/25/2 11/26/2 13/27/2 12/28/2 142/29/2
f 144/30/3 14/31/3 15/32/3 145/33/3
f 146/34/4 38/35/4 37/36/4 147/37/4
f 148/38/4 40/39/4 39/40/4 149/41/4
f 150/42/4 25/43/4 38/35/4 146/34/4
f 149/41/4 39/40/4 33/44/4 151/45/4
f 147/37/4 37/36/4 40/39/4 148/38/4
f 145/33/3 15/32/3 29/46/3 30/47/3 152/48/3
f 153/49/3 27/50/3 21/51/3 22/52/3 26/53/3 24/54/3 154/55/3
f 155/56/4 36/57/4 28/43/4 27/35/4 153/58/4
f 152/59/1 30/35/1 31/43/1 35/57/1 156/60/1
f 154/55/3 24/54/3 25/61/3 150/62/3
f 157/63/2 42/64/2 41/65/2 158/66/2
f 159/67/2 43/68/2 42/64/2 157/63/2
f 135/69/2 4/70/2 44/71/2 160/72/2
f 160/72/2 44/71/2 43/68/2 159/67/2
f 158/66/2 41/65/2 34/11/2 161/73/2
f 151/74/3 33/75/3 18/76/3 19/77/3 23/78/3 162/79/3
f 163/80/3 45/81/3 2/82/3 132/83/3
f 162/79/3 23/78/3 45/81/3 163/80/3
f 161/84/1 34/8/1 46/85/1 164/86/1
f 164/86/1 46/85/1 6/87/1 136/88/1
f 165/89/4 49/90/4 50/91/4 166/92/4
f 166/93/3 50/94/3 47/95/3 48/96/3 167/97/3
f 168/98/4 53/99/4 49/90/4 165/89/4
f 170/100/2 51/101/2 52/102/2 169/103/2
f 169/104/4 52/105/4 53/99/4 168/98/4
f 171/106/3 63/107/3 64/108/3 172/109/3
f 173/110/2 82/111/2 76/112/2 174/113/2
f 175/114/2 83/115/2 82/116/2 173/117/2
f 176/118/2 75/119/2 83/115/2 175/114/2
f 177/120/2 84/121/2 77/122/2 178/123/2
f 179/124/2 78/125/2 85/126/2 180/127/2
f 180/127/2 85/126/2 84/121/2 177/120/2
f 182/128/3 66/129/3 86/130/3 181/131/3
f 183/132/3 88/133/3 87/134/3 184/135/3
f 181/131/3 86/130/3 67/136/3 88/133/3 183/132/3
f 184/135/3 87/134/3 89/137/3 185/138/3
f 185/138/3 89/137/3 68/139/3 70/140/3 186/141/3
f 187/142/4 90/143/4 36/57/4 155/56/4
f 188/144/4 91/143/4 11/57/4 143/145/4
f 156/60/1 35/57/1 92/143/1 189/146/1
f 141/147/1 10/148/1 93/149/1 190/150/1
f 174/151/4 76/152/4 74/153/4 90/143/4 187/142/4
f 189/146/1 92/143/1 73/153/1 78/152/1 179/154/1
f 178/155/4 77/152/4 72/153/4 91/143/4 188/144/4
f 191/156/4 80/157/4 65/158/4 66/159/4 182/160/4
f 190/150/1 93/149/1 71/161/1 75/162/1 176/163/1
f 186/164/1 70/165/1 69/166/1 79/167/1 192/168/1
f 192/169/2 79/170/2 80/171/2 191/172/2
f 193/173/2 94/174/2 51/101/2 170/100/2
f 194/175/2 95/176/2 94/174/2 193/173/2
f 195/177/2 97/178/2 96/179/2 196/180/2
f 197/181/2 98/182/2 95/176/2 194/175/2
f 196/180/2 96/179/2 98/182/2 197/181/2
f 198/183/2 99/184/2 97/178/2 195/177/2
f 199/185/2 81/186/2 99/184/2 198/183/2
f 200/187/3 100/188/3 57/189/3 55/190/3 56/191/3 201/192/3
f 202/193/3 101/194/3 58/195/3 100/188/3 200/187/3
f 203/196/3 103/197/3 60/198/3 102/199/3 204/200/3
f 204/200/3 102/199/3 61/201/3 59/202/3 101/194/3 202/193/3
f 167/97/3 48/96/3 62/203/3 103/197/3 203/196/3
f 201/204/1 56/205/1 54/206/1 205/207/1
f 205/207/1 54/206/1 104/208/1 206/209/1
f 206/209/1 104/208/1 81/210/1 199/211/1
f 207/212/4 115/213/4 116/214/4 208/215/4
f 208/215/4 116/214/4 114/216/4 209/217/4
f 209/218/3 114/77/3 108/219/3 107/75/3 109/171/3 210/220/3
f 212/221/1 111/222/1 117/223/1 211/224/1
f 213/225/2 118/226/2 111/227/2 212/228/2
f 211/224/1 117/223/1 119/229/1 214/230/1
f 214/230/1 119/229/1 113/231/1 215/232/1
f 216/233/1 110/234/1 105/235/1 217/236/1
f 217/236/1 105/235/1 106/237/1 218/238/1
f 218/238/1 106/237/1 112/239/1 219/240/1
f 210/220/3 109/171/3 110/241/3 216/242/3
f 219/243/2 112/244/2 118/226/2 213/225/2
f 221/228/2 121/227/2 120/245/2 220/246/2
f 220/247/4 120/248/4 122/249/4 222/250/4
f 222/250/4 122/249/4 115/213/4 207/212/4
f 215/232/1 113/231/1 123/251/1 121/252/1 221/253/1
f 125/254/2 124/255/2 127/256/2 126/257/2
f 129/258/1 125/259/1 126/260/1 128/261/1
f 131/262/4 127/260/4 124/259/4 130/263/4
