# Blender 5.0.1
# www.blender.org
mtllib Section2Floor.mtl
o Section2.011
v 47.551552 -0.304167 0.000000
v 46.903854 -0.304167 0.000000
v 45.722755 -0.304167 0.000000
v 45.113152 -0.304167 0.000000
v 37.797951 -7.619367 0.000000
v 37.797951 -8.381367 0.000000
v 37.797951 -10.210167 0.000000
v 37.797951 -10.972167 0.000000
v 37.797951 -12.191367 0.000000
v 37.797951 -13.105767 0.000000
v 37.797951 -19.201767 0.000000
v 37.797951 -22.821266 0.000000
v 37.797951 -19.811367 0.000000
v 40.236351 -19.811367 0.000000
v 40.236351 -22.821266 0.000000
v 47.551552 -7.619367 0.000000
v 45.113152 -7.619367 0.000000
v 47.551552 -6.400167 0.000000
v 42.065155 -10.057767 0.000000
v 43.284355 -10.057767 0.000000
v 45.722755 -10.057767 0.000000
v 46.941956 -10.057767 0.000000
v 37.797951 -10.057767 0.000000
v 47.551552 -10.057767 0.000000
v 37.797951 -16.763367 0.000000
v 40.236351 -16.763367 0.000000
v 40.236351 -10.057767 0.000000
v 40.236351 -15.544167 0.000000
v 37.797951 -15.544167 0.000000
v 40.236351 -10.210167 0.000000
v 45.113152 -3.504567 0.000000
v 45.113152 -5.333367 0.000000
v 45.113152 -3.352167 0.000000
v 45.113152 -1.523367 0.000000
v 44.808350 -7.619367 0.000000
v 25.605953 -21.030567 0.000000
v 25.605953 -19.811367 0.000000
v 32.921150 -19.811367 0.000000
v 32.921150 -21.030567 0.000000
v 26.215553 -21.030567 0.000000
v 25.910753 -21.030567 0.000000
v 33.225952 -13.715367 0.000000
v 33.225952 -14.934566 0.000000
v 32.921150 -14.934566 0.000000
v 32.921150 -13.715367 0.000000
v 33.225952 -17.372967 0.000000
v 33.225952 -18.592167 0.000000
v 32.921150 -18.592167 0.000000
v 32.921150 -17.372967 0.000000
v 37.645554 -7.619367 0.000000
v 37.645554 -12.496167 0.000000
v 35.207153 -12.496167 0.000000
v 35.207153 -7.619367 0.000000
v 37.645554 -12.191367 0.000000
v 37.645554 -10.972167 0.000000
v 25.605953 -15.544167 0.000000
v 25.605953 -16.763367 0.000000
v 33.225952 -19.201767 0.000000
v 33.225952 -16.763367 0.000000
v 25.605953 -11.276967 0.000000
v 32.921150 -11.276967 0.000000
v 33.225952 -15.544167 0.000000
v 33.225952 -13.105767 0.000000
v 37.645554 -10.210167 0.000000
v 37.645554 -8.381367 0.000000
v 37.645554 -15.544167 0.000000
v 37.645554 -19.201767 0.000000
v 37.645554 -16.763367 0.000000
v 37.645554 -13.105767 0.000000
v 25.605953 -19.506567 0.000000
v 25.605953 -17.677767 0.000000
v 25.605953 -14.629767 0.000000
v 25.605953 -12.800967 0.000000
v 25.910753 -11.276967 0.000000
v 25.758352 -11.276967 0.000000
v 45.722755 14.631033 0.000000
v 44.503555 14.631033 0.000000
v 41.379356 9.754233 0.000000
v 40.312553 9.754233 0.000000
v 37.797951 7.315833 0.000000
v 38.407555 7.315833 0.000000
v 43.893951 9.754233 0.000000
v 43.893951 7.315833 0.000000
v 37.797951 9.754233 0.000000
v 46.332352 7.315833 0.000000
v 43.893951 14.631033 0.000000
v 46.332352 14.631033 0.000000
v 46.332352 9.906633 0.000000
v 43.893951 9.906633 0.000000
v 36.578751 9.754233 0.000000
v 36.578751 7.315833 0.000000
v 37.188354 7.315833 0.000000
v 37.131203 -12.496167 0.000000
v 35.207153 -9.991282 0.000000
vn -0.0000 -0.0000 1.0000
vt 0.857143 0.750000
vt 0.857143 0.926339
vt 0.714286 0.926339
vt 0.714286 0.750000
vt -0.000000 0.928571
vt -0.000000 0.821429
vt -0.000000 0.812500
vt -0.000000 0.705357
vt -0.000000 0.571429
vt 0.142857 0.571429
vt 0.142857 0.642857
vt 0.142857 1.000000
vt 0.104911 1.000000
vt 0.035714 1.000000
vt -0.000000 1.000000
vt 1.000000 0.142857
vt 1.000000 0.250000
vt 1.000000 0.321429
vt 1.000000 0.464286
vt 1.000000 0.535714
vt 1.000000 0.571429
vt 0.857143 0.571429
vt 0.857143 0.428571
vt 0.857143 0.410714
vt 0.857143 0.000000
vt 0.901785 0.000000
vt 1.000000 0.000000
vt 0.714286 0.607143
vt 0.714286 0.571428
vt 0.857143 0.571429
vt 0.142857 0.883928
vt 0.142857 0.839286
vt 0.142857 0.767857
vt 0.142857 0.714286
vt 0.142857 0.571429
vt 0.285714 0.571429
vt 0.285714 0.883929
vt 0.285714 0.892857
vt 0.142857 0.892857
vt 0.428572 0.000000
vt 0.446429 0.000000
vt 0.464286 0.000000
vt 0.857143 0.000000
vt 0.857143 0.071429
vt 0.428572 0.071429
vt 0.285714 0.857143
vt 0.285714 0.718181
vt 0.285714 0.571429
vt 0.398438 0.571429
vt 0.428571 0.571429
vt 0.428571 0.589286
vt 0.428571 0.660714
vt 0.428571 0.705357
vt 0.428571 0.812500
vt 0.428571 0.857143
vt 0.428571 0.830357
vt 0.428571 0.571429
vt 0.464286 0.571429
vt 0.535714 0.571429
vt 0.571429 0.571429
vt 0.571429 0.830357
vt 0.571429 0.839286
vt 0.428571 0.839286
vt 0.857143 0.142857
vt 0.857143 0.214286
vt 0.857143 0.357143
vt 0.857143 0.428571
vt 0.857143 0.571429
vt 0.446429 0.571429
vt 0.437500 0.571429
vt 0.428571 0.482143
vt 0.428571 0.375000
vt 0.428571 0.321429
vt 0.428572 0.250000
vt 0.428572 0.196429
vt 0.428572 0.089286
vt 0.571429 0.830357
vt 0.571429 0.571429
vt 0.607143 0.571429
vt 0.678571 0.571429
vt 0.714286 0.571429
vt 0.714286 0.830357
vt 0.714286 0.839286
vt 0.571429 0.839286
vt 0.285714 0.281250
vt 0.285714 0.218750
vt 0.285714 0.071429
vt 0.428571 0.071429
vt 0.428571 0.107143
vt 0.428571 0.428571
vt 0.285714 0.428571
vt 0.276786 0.571429
vt 0.000000 0.571429
vt 0.000000 0.535714
vt 0.000000 0.464286
vt 0.000000 0.428571
vt 0.276786 0.428571
vt 0.428571 0.571429
vt 0.428571 0.000000
vt 0.428571 0.035714
vt 0.285714 0.000000
s 0
usemtl OFFICE_CARPET001A
f 15/1/1 14/2/1 13/3/1 12/4/1
f 34/5/1 33/6/1 31/7/1 32/8/1 17/9/1 16/10/1 18/11/1 1/12/1 2/13/1 3/14/1 4/15/1
f 27/16/1 19/17/1 20/18/1 21/19/1 22/20/1 24/21/1 16/22/1 17/23/1 35/24/1 5/25/1 6/26/1 23/27/1
f 26/1/1 25/4/1 11/28/1 13/29/1 14/30/1
f 7/31/1 8/32/1 9/33/1 10/34/1 29/35/1 28/36/1 30/37/1 27/38/1 23/39/1
f 36/40/1 41/41/1 40/42/1 39/43/1 38/44/1 37/45/1
f 53/46/1 94/47/1 52/48/1 93/49/1 51/50/1 54/51/1 55/52/1 64/53/1 65/54/1 50/55/1
f 68/56/1 59/57/1 46/58/1 47/59/1 58/60/1 67/61/1 11/62/1 25/63/1
f 38/44/1 48/64/1 49/65/1 44/66/1 45/67/1 61/68/1 74/69/1 75/70/1 60/50/1 73/71/1 72/72/1 56/73/1 57/74/1 71/75/1 70/76/1 37/45/1
f 69/77/1 63/78/1 42/79/1 43/80/1 62/81/1 66/82/1 29/83/1 10/84/1
f 78/85/1 79/86/1 84/87/1 80/88/1 81/89/1 83/90/1 82/91/1
f 88/92/1 87/93/1 76/94/1 77/95/1 86/96/1 89/97/1 82/91/1 83/90/1 85/98/1
f 91/99/1 92/100/1 80/88/1 84/87/1 90/101/1
