# Blender 4.4.3
# www.blender.org
o Section2.052
v 46.903854 -0.304167 2.352908
v 47.551552 -0.304167 2.352908
v 47.551552 -0.304167 0.000000
v 46.903854 -0.304167 0.000000
v 45.722755 -0.304167 2.352908
v 46.903854 -0.304167 2.209800
v 45.722755 -0.304167 2.209800
v 45.113152 -0.304167 2.352908
v 45.722755 -0.304167 0.000000
v 45.113152 -0.304167 0.000000
v 37.797951 -8.381367 2.352908
v 37.797951 -7.619367 2.352908
v 37.797951 -7.619367 0.000000
v 37.797951 -8.381367 0.000000
v 37.797951 -10.972167 2.352908
v 37.797951 -10.210167 2.352908
v 37.797951 -10.210167 0.000000
v 37.797951 -10.972167 0.000000
v 37.797951 -12.191367 2.352908
v 37.797951 -10.972167 2.209800
v 37.797951 -12.191367 2.209800
v 37.797951 -10.210167 0.704850
v 37.797951 -8.381367 0.704850
v 37.797951 -10.210167 2.095500
v 37.797951 -8.381367 2.095500
v 37.797951 -12.191367 0.000000
v 37.797951 -13.105767 0.000000
v 37.797951 -13.105767 2.352908
v 37.797951 -19.201767 2.352908
v 37.797951 -19.201767 0.000000
v 37.797951 -22.821266 0.000000
v 37.797951 -22.821266 2.352908
v 37.797951 -19.811367 2.352908
v 40.236351 -22.821266 2.352908
v 40.236351 -19.811367 2.352908
v 37.797951 -19.811367 0.000000
v 40.236351 -19.811367 0.000000
v 40.236351 -22.821266 0.000000
v 37.797951 -8.228967 2.352908
v 37.797951 -9.448167 2.352908
v 47.551552 -9.448167 2.352908
v 47.551552 -8.228967 2.352908
v 46.941956 -0.304167 2.352908
v 40.236351 -14.934566 2.352908
v 40.236351 -13.715367 2.352908
v 47.551552 -7.619367 2.352908
v 40.236351 -10.210167 2.352908
v 40.236351 -10.057767 2.352908
v 40.236351 -13.105767 2.352908
v 40.236351 -15.544167 2.352908
v 38.407555 -15.544167 2.352908
v 40.236351 -17.372967 2.352908
v 40.236351 -16.763367 2.352908
v 38.407555 -16.763367 2.352908
v 37.797951 -10.057767 2.352908
v 47.551552 -10.057767 2.352908
v 45.113152 -7.619367 2.352908
v 37.797951 -16.763367 2.352908
v 37.797951 -15.544167 2.352908
v 47.551552 -7.619367 0.000000
v 45.113152 -7.619367 0.000000
v 47.703949 -6.400167 0.000000
v 47.703949 -7.619367 0.000000
v 47.551552 -6.400167 0.000000
v 42.065155 -10.057767 0.000000
v 43.284355 -10.057767 0.000000
v 43.284355 -10.210167 0.000000
v 42.065155 -10.210167 0.000000
v 45.722755 -10.057767 0.000000
v 46.941956 -10.057767 0.000000
v 37.797951 -10.057767 0.000000
v 47.551552 -10.057767 0.000000
v 37.797951 -16.763367 0.000000
v 40.236351 -16.763367 0.000000
v 40.236351 -10.057767 0.000000
v 40.236351 -15.544167 0.000000
v 37.797951 -15.544167 0.000000
v 43.284355 -10.057767 2.133600
v 43.284355 -10.057767 2.352908
v 42.065155 -10.057767 2.352908
v 42.065155 -10.057767 2.133600
v 46.941956 -10.057767 2.209800
v 46.941956 -10.057767 2.352908
v 45.722755 -10.057767 2.352908
v 45.722755 -10.057767 2.209800
v 43.284355 -10.210167 2.133600
v 42.065155 -10.210167 2.133600
v 40.236351 -10.210167 0.000000
v 45.113152 -5.333367 2.057400
v 45.113152 -5.333367 2.352908
v 45.113152 -3.504567 2.352908
v 45.113152 -3.504567 2.057400
v 45.113152 -3.504567 0.000000
v 45.113152 -5.333367 0.000000
v 45.113152 -5.333367 0.685800
v 45.113152 -3.504567 0.685800
v 45.113152 -3.352167 0.000000
v 45.113152 -3.352167 2.352908
v 45.113152 -1.523367 0.000000
v 45.113152 -1.523367 2.352908
v 45.113152 -3.352167 0.685800
v 45.113152 -1.523367 0.685800
v 45.113152 -3.352167 2.057400
v 45.113152 -1.523367 2.057400
v 47.703949 -6.400167 2.209800
v 47.703949 -7.619367 2.209800
v 47.551552 -6.400167 2.352908
v 47.551552 -6.400167 2.209800
v 47.551552 -7.619367 2.209800
v 44.808350 -7.619367 0.000000
v 44.808350 -7.619367 2.352908
v 32.921150 -20.420967 2.352908
v 32.921150 -19.811367 2.352908
v 26.215553 -21.030567 2.352908
v 32.921150 -21.030567 2.352908
v 25.605953 -19.811367 2.352908
v 25.605953 -21.030567 2.352908
v 25.605953 -21.030567 0.000000
v 25.605953 -19.811367 0.000000
v 32.921150 -19.811367 0.000000
v 32.921150 -21.030567 0.000000
v 26.215553 -21.030567 0.000000
v 25.910753 -21.030567 2.352908
v 25.910753 -21.030567 0.000000
v 25.910753 -11.276967 2.352908
v 32.921150 -11.886567 2.352908
v 32.921150 -11.276967 2.352908
v 32.921150 -13.105767 2.352908
v 32.921150 -14.324967 2.352908
v 32.921150 -15.544167 2.352908
v 32.921150 -17.982567 2.352908
v 32.921150 -16.763367 2.352908
v 32.921150 -19.201767 2.352908
v 25.301153 -16.763367 2.352908
v 25.301153 -15.544167 2.352908
v 35.816750 -12.496167 2.352908
v 37.645554 -12.496167 2.352908
v 37.645554 -11.886567 2.352908
v 37.645554 -8.228967 2.352908
v 35.816750 -7.619367 2.352908
v 37.645554 -7.619367 2.352908
v 33.530754 -13.105767 2.352908
v 33.530754 -19.201767 2.352908
v 33.530754 -16.763367 2.352908
v 33.530754 -15.544167 2.352908
v 33.225952 -13.105767 2.352908
v 33.225952 -15.544167 2.352908
v 33.225952 -19.201767 2.352908
v 33.225952 -16.763367 2.352908
v 35.207153 -7.619367 2.352908
v 35.207153 -12.496167 2.352908
v 25.605953 -11.276967 2.352908
v 33.225952 -13.715367 0.000000
v 33.225952 -14.934566 0.000000
v 32.921150 -14.934566 0.000000
v 32.921150 -13.715367 0.000000
v 33.225952 -17.372967 0.000000
v 33.225952 -18.592167 0.000000
v 32.921150 -18.592167 0.000000
v 32.921150 -17.372967 0.000000
v 37.645554 -7.619367 0.000000
v 37.645554 -12.496167 0.000000
v 35.207153 -12.496167 0.000000
v 35.207153 -7.619367 0.000000
v 37.645554 -12.191367 0.000000
v 37.645554 -10.972167 0.000000
v 25.605953 -15.544167 0.000000
v 25.605953 -16.763367 0.000000
v 33.225952 -19.201767 0.000000
v 33.225952 -16.763367 0.000000
v 25.605953 -11.276967 0.000000
v 32.921150 -11.276967 0.000000
v 33.225952 -15.544167 0.000000
v 33.225952 -13.105767 0.000000
v 25.301153 -15.544167 2.209800
v 25.301153 -16.763367 2.209800
v 33.225952 -14.934566 2.352908
v 33.225952 -14.934566 2.209800
v 33.225952 -13.715367 2.352908
v 33.225952 -13.715367 2.209800
v 33.225952 -18.592167 2.352908
v 33.225952 -17.372967 2.352908
v 33.225952 -18.592167 2.209800
v 33.225952 -17.372967 2.209800
v 37.645554 -12.191367 2.352908
v 37.645554 -10.210167 2.352908
v 37.645554 -10.972167 2.352908
v 37.645554 -10.210167 0.000000
v 37.645554 -10.972167 2.209800
v 37.645554 -12.191367 2.209800
v 37.645554 -8.381367 0.704850
v 37.645554 -10.210167 0.704850
v 37.645554 -8.381367 0.000000
v 37.645554 -8.381367 2.095500
v 37.645554 -8.381367 2.352908
v 37.645554 -10.210167 2.095500
v 37.645554 -15.544167 2.352908
v 37.645554 -15.544167 0.000000
v 37.645554 -19.201767 2.352908
v 37.645554 -19.201767 0.000000
v 37.645554 -16.763367 0.000000
v 37.645554 -16.763367 2.352908
v 37.645554 -13.105767 0.000000
v 37.645554 -13.105767 2.352908
v 25.605953 -19.506567 0.000000
v 25.605953 -19.506567 2.352908
v 25.605953 -17.677767 0.000000
v 25.605953 -19.506567 0.685800
v 25.605953 -17.677767 0.685800
v 25.605953 -19.506567 2.057400
v 25.605953 -17.677767 2.352908
v 25.605953 -17.677767 2.057400
v 25.605953 -14.629767 0.000000
v 25.605953 -15.544167 2.352908
v 25.605953 -14.629767 2.352908
v 25.605953 -16.763367 2.352908
v 25.605953 -16.763367 2.209800
v 25.605953 -15.544167 2.209800
v 25.605953 -12.800967 0.000000
v 25.605953 -14.629767 0.685800
v 25.605953 -12.800967 0.685800
v 25.605953 -14.629767 2.057400
v 25.605953 -12.800967 2.352908
v 25.605953 -12.800967 2.057400
v 32.921150 -13.715367 2.352908
v 32.921150 -13.715367 2.209800
v 32.921150 -14.934566 2.352908
v 32.921150 -14.934566 2.209800
v 32.921150 -17.372967 2.209800
v 32.921150 -17.372967 2.352908
v 32.921150 -18.592167 2.352908
v 32.921150 -18.592167 2.209800
v 25.910753 -11.276967 0.000000
v 25.758352 -11.276967 0.000000
v 25.758352 -11.276967 2.352908
v 45.722755 14.631033 2.352908
v 44.503555 14.631033 2.352908
v 46.332352 9.144633 2.352908
v 46.332352 7.925433 2.352908
v 46.332352 9.906633 2.352908
v 46.332352 14.631033 2.352908
v 43.893951 9.754233 2.352908
v 43.893951 14.631033 2.352908
v 37.797951 9.754233 2.352908
v 46.332352 7.315833 2.352908
v 37.797951 7.315833 2.352908
v 45.722755 14.631033 0.000000
v 44.503555 14.631033 0.000000
v 41.379356 9.754233 0.000000
v 40.312553 9.754233 0.000000
v 38.407555 7.315833 0.000000
v 43.893951 9.754233 0.000000
v 43.893951 7.315833 0.000000
v 37.797951 9.754233 0.000000
v 46.332352 7.315833 0.000000
v 43.893951 14.631033 0.000000
v 46.332352 14.631033 0.000000
v 38.407555 7.315833 2.133600
v 38.407555 7.315833 2.352908
v 37.797951 7.315833 2.133600
v 41.379356 9.754233 2.133600
v 46.332352 9.906633 0.000000
v 41.379356 9.754233 2.352908
v 43.893951 9.906633 2.352908
v 43.893951 9.906633 0.000000
v 40.312553 9.754233 2.133600
v 40.312553 9.754233 2.352908
v 44.503555 14.631033 2.209800
v 45.722755 14.631033 2.209800
v 36.578751 9.754233 0.000000
v 36.578751 7.315833 0.000000
v 36.578751 7.315833 2.352908
v 36.578751 9.754233 2.352908
v 37.188354 7.315833 2.352908
v 37.188354 9.754233 2.352908
v 37.188354 7.315833 0.000000
v 37.188354 7.315833 2.133600
v 35.207153 -12.496167 0.933450
v 37.131203 -12.496167 0.000000
v 35.207153 -9.991282 0.000000
v 23.777153 34.897388 7.317668
v 23.777153 37.335789 7.317668
v 23.777153 37.335789 4.879268
v 23.777153 34.897388 4.879268
v 24.996353 37.335789 4.879268
v 24.996353 37.335789 7.317668
v 24.386753 34.897388 7.317668
v 24.386753 34.897388 4.879268
vn -0.0000 -1.0000 -0.0000
vn 1.0000 -0.0000 -0.0000
vn -1.0000 -0.0000 -0.0000
vn -0.0000 1.0000 -0.0000
vt 0.888889 0.115148
vt 0.888889 0.086361
vt 0.888889 0.084562
vt 0.895647 0.084562
vt 1.000000 0.084562
vt 1.000000 0.115148
vt 0.895647 0.028787
vt 0.888889 0.028787
vt 1.000000 0.000000
vt 1.000000 0.028787
vt 0.888889 0.000000
vt 0.777778 0.259084
vt 0.777778 0.230297
vt 0.777778 0.223100
vt 0.789933 0.223100
vt 0.855604 0.223100
vt 0.888889 0.223100
vt 0.888889 0.259084
vt 0.784536 0.100755
vt 0.888889 0.100755
vt 0.888889 0.136739
vt 0.855604 0.136739
vt 0.789933 0.136739
vt 0.777778 0.136739
vt 0.777778 0.100755
vt 0.784536 0.043181
vt 0.777778 0.043181
vt 0.888889 0.143935
vt 0.777778 0.172722
vt 0.777778 0.143935
vt 0.888889 0.043181
vt 0.777778 0.000000
vt 0.888889 0.000000
vt 0.777778 0.890600
vt 0.777778 0.748464
vt 0.888889 0.748464
vt 0.888889 0.890600
vt 0.888889 0.919387
vt 0.777778 0.919387
vt 0.444444 0.604528
vt 0.444444 0.746664
vt 0.333333 0.746664
vt 0.333333 0.604528
vt 0.565912 0.259083
vt 0.555556 0.259083
vt 0.555556 0.201509
vt 0.565912 0.201509
vt 0.562314 0.086361
vt 0.555556 0.086361
vt 0.555556 0.028787
vt 0.562314 0.028787
vt 0.666667 0.259083
vt 0.666667 0.345445
vt 0.555556 0.345445
vt 0.666667 0.028787
vt 0.555556 0.000000
vt 0.666667 0.000000
vt 0.666667 0.201509
vt 0.666667 0.086361
vt 0.946463 0.895997
vt 0.888889 0.895997
vt 0.888889 0.795242
vt 0.946463 0.795242
vt 0.333333 0.489380
vt 0.333333 0.460593
vt 0.444444 0.460593
vt 0.888889 0.518167
vt 0.777778 0.518167
vt 0.777778 0.489380
vt 0.777778 0.431806
vt 0.777778 0.403019
vt 0.777778 0.266280
vt 0.888889 0.266280
vt 0.111111 0.575741
vt 0.111111 0.546954
vt 0.111111 0.460593
vt 0.222222 0.460593
vt 0.222222 0.575741
vt 0.222222 0.791644
vt 0.222222 0.705283
vt 0.222222 0.676496
vt 0.333333 0.676496
vt 0.333333 0.791644
vt 0.777778 0.259084
vt 0.888889 0.259084
vt 0.680622 0.539757
vt 0.666667 0.539757
vt 0.666667 0.453396
vt 0.680622 0.453396
vt 0.745392 0.539757
vt 0.745392 0.453396
vt 0.777778 0.453396
vt 0.777778 0.539757
vt 0.745392 0.546954
vt 0.680622 0.546954
vt 0.666667 0.546954
vt 0.777778 0.546954
vt 0.666667 0.690889
vt 0.666667 0.633315
vt 0.680622 0.633315
vt 0.745392 0.633315
vt 0.777778 0.633315
vt 0.777778 0.690890
vt 0.666667 0.345445
vt 0.777778 0.345445
vt 0.946463 0.795243
vt 0.888889 0.795243
vt 0.888889 0.690889
vt 0.946463 0.690889
vt 0.111111 0.460593
vt 0.111111 0.431806
vt 0.111111 0.374232
vt 0.111111 0.345445
vt 0.117869 0.345445
vt 0.222222 0.345445
vt 0.222222 0.460593
vt 0.222222 0.000000
vt 0.222222 0.287871
vt 0.117869 0.287871
vt 0.111111 0.287871
vt 0.111111 0.000000
vt 0.444444 0.676496
vt 0.555556 0.676496
vt 0.555556 0.690890
vt 0.444444 0.690890
vt 0.444445 0.345445
vt 0.111111 0.460593
vt 0.111111 0.777250
vt 0.000000 0.777250
vt 0.000000 0.460593
vt 0.222222 0.460593
vt 0.222222 0.431806
vt 0.222222 0.403019
vt 0.333333 0.403019
vt 0.333333 0.460593
vt 0.111111 0.791644
vt 0.000000 0.791644
vt 0.333333 0.057574
vt 0.333333 0.000000
vt 0.444444 0.000000
vt 0.444444 0.057574
vt 0.111111 0.806037
vt 0.000000 0.806037
vt 0.319379 0.849218
vt 0.312621 0.849218
vt 0.312621 0.791644
vt 0.319379 0.791644
vt 1.000000 0.604528
vt 0.895647 0.604528
vt 0.888889 0.604528
vt 0.888889 0.575741
vt 1.000000 0.575741
vt 0.895647 0.662102
vt 0.888889 0.662102
vt 1.000000 0.662102
vt 1.000000 0.690889
vt 1.000000 0.143935
vt 0.895647 0.143935
vt 0.888889 0.143935
vt 0.888889 0.115148
vt 1.000000 0.115148
vt 0.888889 0.230296
vt 0.888889 0.201509
vt 0.895647 0.201509
vt 1.000000 0.201509
vt 1.000000 0.230296
vt 0.444444 0.906792
vt 0.451202 0.906792
vt 0.555556 0.906792
vt 0.555556 0.921186
vt 0.444444 0.921186
vt 0.456600 0.813235
vt 0.522271 0.813235
vt 0.555556 0.813235
vt 0.555556 0.849218
vt 0.451202 0.849218
vt 0.444444 0.849218
vt 0.444444 0.813235
vt 0.444444 0.892399
vt 0.555556 0.726873
vt 0.522271 0.726873
vt 0.444445 0.726873
vt 0.456600 0.726873
vt 0.444445 0.719677
vt 0.444445 0.690890
vt 0.222222 0.582938
vt 0.111111 0.582938
vt 0.777778 0.690890
vt 0.777778 0.698086
vt 0.666667 0.698086
vt 0.666667 0.690890
vt 0.222222 0.669299
vt 0.333333 0.669299
vt 0.333333 0.962567
vt 0.333333 0.955371
vt 0.444444 0.955371
vt 0.444444 0.962567
vt 0.111111 0.791644
vt 0.111111 0.777251
vt 0.222222 0.791644
vt 0.222222 0.474987
vt 0.222222 0.460593
vt 0.333333 0.460593
vt 0.666667 0.906792
vt 0.666667 0.892399
vt 0.777778 0.906792
vt 0.888889 0.316658
vt 0.888889 0.230297
vt 1.000000 0.230297
vt 1.000000 0.254586
vt 1.000000 0.345445
vt 0.955920 0.345445
vt 0.888889 0.345445
vt 0.333333 0.761058
vt 0.333333 0.746664
vt 0.444444 0.746664
vt 0.888889 0.460593
vt 0.888889 0.374232
vt 0.888889 0.345445
vt 1.000000 0.345445
vt 1.000000 0.460593
vt 0.777778 0.518167
vt 0.844809 0.518167
vt 0.888889 0.518167
vt 0.888889 0.636455
vt 0.888889 0.748464
vt 0.777778 0.748464
vt 0.444444 0.071968
vt 0.412059 0.071968
vt 0.347288 0.071968
vt 0.333333 0.071968
vt 0.412059 0.158329
vt 0.444444 0.158329
vt 0.347288 0.158329
vt 0.333333 0.158329
vt 0.412059 0.302264
vt 0.347288 0.302264
vt 0.333333 0.302264
vt 0.333333 0.259084
vt 0.340091 0.259084
vt 0.444444 0.259084
vt 0.444444 0.302264
vt 0.340091 0.201509
vt 0.333333 0.201509
vt 0.444444 0.201509
vt 0.412059 0.388625
vt 0.444444 0.388625
vt 0.347288 0.388625
vt 0.333333 0.388625
vt 0.333333 0.460593
vt 0.444444 0.460593
vt 0.333333 0.115148
vt 0.228980 0.115148
vt 0.222222 0.115148
vt 0.222222 0.086361
vt 0.222222 0.028787
vt 0.222222 0.000000
vt 0.333333 0.000000
vt 0.228980 0.172722
vt 0.222222 0.172722
vt 0.222222 0.143935
vt 0.228980 0.345445
vt 0.222222 0.345445
vt 0.222222 0.316658
vt 0.222222 0.287871
vt 0.228980 0.287871
vt 0.333333 0.172722
vt 0.333333 0.287871
vt 0.222222 0.259084
vt 0.222222 0.201509
vt 0.222222 0.374232
vt 0.333333 0.345445
vt 0.666667 0.690889
vt 0.555556 0.690889
vt 0.555556 0.359838
vt 0.666667 0.359838
vt 0.555556 0.352641
vt 0.666667 0.352641
vt 0.555556 0.345445
vt 0.666667 0.345445
vt 0.010356 0.403019
vt 0.000000 0.403019
vt 0.000000 0.374232
vt 0.010356 0.374232
vt 0.111111 0.000000
vt 0.111111 0.115148
vt 0.111111 0.374232
vt 0.000000 0.000000
vt 0.444444 0.345445
vt 0.444444 0.316658
vt 0.444444 0.259084
vt 0.444444 0.223100
vt 0.555556 0.223100
vt 0.555556 0.345445
vt 0.666667 0.226698
vt 0.677023 0.226698
vt 0.777778 0.226698
vt 0.777778 0.345445
vt 0.666667 0.690890
vt 0.666667 0.698086
vt 0.555556 0.698086
vt 0.666667 0.176321
vt 0.677023 0.176321
vt 0.777778 0.176321
vt 0.666667 0.057574
vt 0.777778 0.057574
vt 0.888889 0.575741
vt 0.888889 0.546954
vt 0.895647 0.546954
vt 1.000000 0.546954
vt 1.000000 0.575741
vt 0.888889 0.489380
vt 0.895647 0.489380
vt 1.000000 0.489380
vt 0.888889 0.460593
vt 1.000000 0.460593
vt 0.444444 -0.000000
vt 0.555556 -0.000000
vt 0.666667 0.921186
vt 0.555556 0.921186
vt -0.000000 0.921186
vt 0.000000 0.806037
vt 0.111111 0.806037
vt 0.111111 0.921186
vt 0.000000 0.431806
vt 0.010356 0.431806
vt 0.111111 0.431806
vt 0.111111 0.460593
vt -0.000000 0.460593
vt 0.666667 0.028787
vt 0.666667 0.000000
vt 0.777778 0.000000
vt 0.111111 0.906792
vt 0.111111 0.791644
vt 0.226259 0.791644
vt 0.226259 0.906792
vt 0.226259 0.791644
vt 0.283834 0.791644
vt 0.283834 0.906792
vt 0.226259 0.906792
vt 0.312621 0.906792
vt 0.312621 0.791644
s 0
f 2/1/1 43/2/1 1/3/1 6/4/1 4/5/1 3/6/1
f 7/7/1 6/4/1 1/3/1 5/8/1
f 10/9/1 9/10/1 7/7/1 5/8/1 8/11/1
f 12/12/2 39/13/2 11/14/2 25/15/2 23/16/2 14/17/2 13/18/2
f 20/19/2 18/20/2 17/21/2 22/22/2 24/23/2 16/24/2 15/25/2
f 21/26/2 20/19/2 15/25/2 19/27/2
f 17/21/2 71/28/2 14/17/2 23/16/2 22/22/2
f 25/15/2 11/14/2 40/29/2 55/30/2 16/24/2 24/23/2
f 26/31/2 21/26/2 19/27/2 28/32/2 27/33/2
f 33/34/2 32/35/2 31/36/2 36/37/2 30/38/2 29/39/2
f 37/40/3 38/41/3 34/42/3 35/43/3
f 81/44/4 80/45/4 79/46/4 78/47/4
f 85/48/4 84/49/4 83/50/4 82/51/4
f 80/45/4 81/44/4 65/52/4 75/53/4 48/54/4
f 70/55/4 82/51/4 83/50/4 56/56/4 72/57/4
f 66/58/4 78/47/4 79/46/4 84/49/4 85/48/4 69/59/4
f 67/60/4 68/61/4 87/62/4 86/63/4
f 35/43/3 52/64/3 53/65/3 74/66/3 37/40/3
f 76/67/3 50/68/3 44/69/3 45/70/3 49/71/3 47/72/3 88/73/3
f 59/74/4 51/75/4 50/76/4 76/77/4 77/78/4
f 53/79/1 54/80/1 58/81/1 73/82/1 74/83/1
f 48/84/3 75/85/3 88/73/3 47/72/3
f 92/86/2 91/87/2 90/88/2 89/89/2
f 96/90/2 95/91/2 94/92/2 93/93/2
f 101/94/2 103/95/2 98/96/2 91/87/2 92/86/2 96/90/2 93/93/2 97/97/2
f 8/98/2 100/99/2 104/100/2 102/101/2 99/102/2 10/103/2
f 102/101/2 101/94/2 97/97/2 99/102/2
f 104/100/2 100/99/2 98/96/2 103/95/2
f 94/92/2 95/91/2 89/89/2 90/88/2 57/104/2 61/105/2
f 62/106/3 63/107/3 106/108/3 105/109/3
f 56/110/3 41/111/3 42/112/3 46/113/3 109/114/3 60/115/3 72/116/3
f 3/117/3 64/118/3 108/119/3 107/120/3 2/121/3
f 109/114/3 46/113/3 107/120/3 108/119/3
f 111/122/1 110/123/1 61/124/1 57/125/1
f 110/123/1 111/122/1 12/126/1 13/54/1
f 121/127/4 122/128/4 114/129/4 115/130/4
f 115/131/3 112/132/3 113/133/3 120/134/3 121/135/3
f 114/129/4 122/128/4 124/136/4 123/137/4
f 116/138/2 117/139/2 118/140/2 119/141/2
f 123/137/4 124/136/4 118/142/4 117/143/4
f 176/144/3 134/145/3 135/146/3 175/147/3
f 154/148/2 178/149/2 177/150/2 147/151/2 173/152/2
f 180/153/2 179/154/2 177/150/2 178/149/2
f 146/108/2 179/154/2 180/153/2 153/155/2 174/156/2
f 158/157/2 183/158/2 181/159/2 148/160/2 169/161/2
f 149/162/2 182/163/2 184/164/2 157/165/2 170/166/2
f 184/164/2 182/163/2 181/159/2 183/158/2
f 185/167/3 190/168/3 165/169/3 162/170/3 137/171/3
f 196/172/3 192/173/3 188/174/3 166/175/3 189/176/3 187/177/3 186/178/3
f 190/168/3 185/167/3 138/179/3 187/177/3 189/176/3
f 193/180/3 188/174/3 192/173/3 191/181/3
f 196/172/3 186/178/3 195/182/3 194/183/3
f 193/180/3 191/181/3 194/183/3 195/182/3 139/184/3 141/185/3 161/124/3
f 77/78/4 198/186/4 197/187/4 59/74/4
f 30/188/4 200/189/4 199/190/4 29/191/4
f 58/81/1 202/192/1 201/193/1 73/82/1
f 28/194/1 204/195/1 203/196/1 27/197/1
f 147/198/4 145/199/4 197/187/4 198/186/4 173/200/4
f 202/192/1 144/201/1 149/202/1 170/203/1 201/193/1
f 148/204/4 143/205/4 199/190/4 200/189/4 169/206/4
f 136/207/4 137/208/4 162/209/4 279/210/4 163/211/4 278/212/4 151/213/4
f 204/195/1 142/214/1 146/215/1 174/216/1 203/196/1
f 141/217/1 140/218/1 150/219/1 164/220/1 161/221/1
f 151/222/2 278/223/2 163/224/2 280/225/2 164/226/2 150/227/2
f 205/228/2 208/229/2 210/230/2 206/231/2 116/138/2 119/141/2
f 209/232/2 208/229/2 205/228/2 207/233/2
f 212/234/2 211/235/2 206/231/2 210/230/2
f 220/236/2 222/237/2 215/238/2 214/239/2 218/240/2 167/241/2 213/242/2
f 217/243/2 216/244/2 211/235/2 212/234/2 209/232/2 207/233/2 168/245/2
f 218/240/2 214/239/2 216/244/2 217/243/2
f 221/246/2 220/236/2 213/242/2 219/247/2
f 224/248/2 223/249/2 215/238/2 222/237/2
f 152/250/2 223/249/2 224/248/2 221/246/2 219/247/2 171/251/2
f 156/252/3 226/253/3 225/254/3 128/255/3 126/256/3 127/257/3 172/258/3
f 228/259/3 227/260/3 129/261/3 225/254/3 226/253/3
f 232/262/3 231/263/3 131/264/3 230/265/3 229/266/3
f 228/259/3 155/267/3 160/268/3 229/266/3 230/265/3 132/269/3 130/270/3 227/260/3
f 113/133/3 133/271/3 231/263/3 232/262/3 159/272/3 120/134/3
f 172/273/1 127/274/1 125/275/1 233/276/1
f 235/277/1 234/278/1 233/276/1 125/275/1
f 152/279/1 171/280/1 234/278/1 235/277/1
f 260/281/4 246/282/4 259/283/4 258/284/4
f 255/285/4 253/286/4 251/287/4 258/284/4 259/283/4 245/288/4
f 245/289/3 239/290/3 238/291/3 240/292/3 262/293/3 255/294/3
f 263/295/1 261/296/1 249/297/1 252/298/1 242/53/1
f 242/124/2 252/299/2 265/300/2 264/301/2
f 267/302/1 266/303/1 261/296/1 263/295/1
f 250/304/1 266/303/1 267/302/1 244/305/1 254/306/1
f 241/307/1 236/308/1 269/309/1 247/310/1 257/311/1
f 269/309/1 236/308/1 237/312/1 268/313/1
f 248/314/1 268/313/1 237/312/1 243/315/1 256/316/1
f 262/293/3 240/292/3 241/317/3 257/318/3
f 264/301/2 265/300/2 256/319/2 243/320/2
f 273/321/2 272/322/2 271/323/2 270/324/2
f 274/325/4 277/326/4 276/327/4 271/328/4 272/329/4
f 277/326/4 274/325/4 246/282/4 260/281/4
f 244/305/1 275/330/1 273/331/1 270/332/1 254/306/1
f 282/333/2 281/334/2 284/335/2 283/336/2
f 286/337/1 282/338/1 283/339/1 285/340/1
f 288/341/4 284/339/4 281/338/4 287/342/4
