# Blender 4.4.3
# www.blender.org
o Section2.029
v 30.939951 32.077988 0.002468
v 33.073555 32.077988 0.002468
v 33.073555 32.077988 -4.264732
v 30.939951 32.077988 -4.264732
v 33.073555 31.201689 -4.264732
v 30.939951 31.201689 -4.264732
v 30.939951 31.201689 0.002468
v 32.921150 31.201689 0.002468
v 33.073555 31.201689 0.002468
v 30.939951 31.201689 -0.149932
v 33.073555 31.201689 -0.149932
v 28.234852 32.382790 9.756067
v 35.778656 32.382790 9.756067
v 33.340256 32.382790 1.831267
v 33.340256 32.382790 4.879268
v 33.225952 32.382790 4.879268
v 33.225952 32.382790 1.831267
v 33.340256 32.382790 0.002468
v 30.673252 32.382790 4.879268
v 33.340256 32.382790 9.756067
v 30.673252 32.382790 9.756067
v 30.673252 32.382790 0.002468
v 30.787554 32.382790 4.879268
v 35.778656 32.382790 0.002468
v 28.234852 32.382790 0.002468
v 30.635153 32.154190 9.756067
v 30.787554 32.154190 9.756067
v 30.787554 32.306587 9.756067
v 30.635153 32.306587 9.756067
v 33.225952 32.230389 9.756067
v 33.225952 32.306587 9.756067
v 30.787554 32.230389 9.756067
v 33.378349 32.306587 9.756067
v 33.225952 32.154190 9.756067
v 33.378349 32.154190 9.756067
v 33.340256 32.306587 9.756067
v 28.234852 37.259590 0.002468
v 35.778656 37.259590 0.002468
v 33.340256 37.335789 0.002468
v 35.778656 37.335789 0.002468
v 28.234852 38.173988 0.002468
v 33.340256 38.173988 0.002468
v 28.234852 37.335789 4.879268
v 28.234852 37.335789 7.317668
v 28.234852 38.173988 7.317668
v 28.234852 38.173988 4.879268
v 28.234852 32.382790 4.879268
v 28.234852 32.382790 7.317668
v 28.234852 34.897388 7.317668
v 28.234852 34.897388 4.879268
v 28.234852 38.173988 9.756067
v 33.340256 37.335789 9.756067
v 35.778656 37.335789 9.756067
v 33.340256 38.173988 9.756067
v 26.215553 42.745987 0.002468
v 26.215553 45.489189 0.002468
v 30.787554 46.098789 0.002468
v 33.206902 46.098789 0.002468
v 26.425102 46.098789 0.002468
v 33.225952 42.288788 0.002468
v 30.787554 42.288788 0.002468
v 37.626503 42.288788 0.002468
v 37.626503 42.174488 0.002468
v 33.340256 42.174488 0.002468
v 33.340256 42.288788 0.002468
v 32.749702 39.850388 0.002468
v 33.340256 39.850388 0.002468
v 33.340256 39.736088 0.002468
v 28.234852 39.736088 0.002468
v 28.234852 39.850388 0.002468
v 28.863503 39.850388 0.002468
v 32.635399 39.736088 0.002468
v 32.635399 42.288788 0.002468
v 32.749702 42.288788 0.002468
v 28.977802 42.288788 0.002468
v 28.977802 39.736088 0.002468
v 26.215553 42.136387 18.900066
v 26.215553 46.098789 18.900066
v 23.396152 46.098789 18.900066
v 23.396152 42.136387 18.900066
v 26.215553 42.136387 9.756067
v 26.215553 42.212589 9.756067
v 23.472353 42.136387 9.756067
v 26.215553 46.098789 9.756067
v 23.396152 46.098789 9.756067
v 23.472353 42.136387 9.908467
v 23.472353 42.136387 11.127668
v 23.472353 42.136387 10.975267
v 23.472353 41.983990 10.975267
v 23.472353 41.983990 9.908467
v 26.215553 42.212589 9.908467
v 26.367952 42.212589 9.908467
v 26.367952 42.212589 10.975267
v 33.340256 39.850388 9.756067
v 28.234852 39.850388 9.756067
v 23.472353 42.136387 18.900066
v 26.215553 42.136387 11.127668
v 26.367952 42.136387 9.908467
v 26.215553 42.136387 9.908467
v 26.215553 42.136387 10.975267
v 26.367952 42.136387 10.975267
v 26.215553 41.983990 9.908467
v 26.215553 41.983990 10.975267
v 26.215553 42.212589 11.127668
v 26.215553 42.212589 18.900066
v 26.215553 42.364990 10.975267
v 26.215553 42.288788 10.975267
v 26.215553 42.288788 18.900066
v 26.215553 46.098789 10.975267
v 26.215553 42.288788 11.127668
v 26.215553 42.364990 9.756067
v 26.215553 42.364990 9.908467
v 23.396152 42.136387 9.908467
v 23.396152 42.136387 9.756067
v 23.396152 42.136387 10.975267
v 23.396152 42.212589 10.975267
v 23.396152 42.212589 9.908467
v 23.396152 42.212589 18.900066
v 23.396152 42.212589 9.756067
v 26.425102 42.174488 1.221668
v 26.425102 42.174488 6.098468
v 26.425102 46.098789 6.098468
v 32.749702 39.850388 9.756067
v 28.863503 39.850388 4.879268
v 28.863503 39.850388 9.756067
v 32.749702 39.850388 4.879268
v 28.234852 39.850388 4.879268
v 28.234852 39.850388 7.317668
v 37.626503 42.174488 6.098468
v 28.863503 42.174488 6.098468
v 28.863503 42.174488 4.879268
v 28.863503 42.288788 4.879268
v 28.863503 42.288788 6.098468
v 28.863503 42.174488 0.002468
v 28.863503 42.174488 1.221668
v 32.749702 42.288788 4.879268
v 32.749702 42.288788 6.098468
v 33.340256 42.288788 6.098468
v 33.340256 42.174488 6.098468
v 28.787302 42.174488 1.221668
v 28.787302 42.174488 6.098468
v 33.206902 46.098789 6.098468
v 26.215553 46.098789 2.440867
v 26.215553 45.489189 2.440867
v 26.215553 46.098789 0.002468
v 26.215553 42.745987 2.440867
v 26.215553 42.136387 2.440867
v 26.215553 42.136387 0.002468
v 23.396152 46.098789 0.002468
v 23.396152 42.136387 0.002468
v 32.635399 39.736088 -9.522540
v 32.635399 39.736088 -0.073732
v 28.977802 39.736088 -0.073732
v 28.977802 39.736088 -9.522540
v 28.977802 39.736088 -17.675934
v 32.635399 39.736088 -17.675934
v 30.787554 39.736088 -0.073732
v 30.787554 39.736088 0.002468
v 26.215553 46.098789 -9.446340
v 26.215553 46.098789 -18.895164
v 23.396152 46.098789 -18.895164
v 23.396152 46.098789 -9.446342
v 26.215553 46.098789 -24.991135
v 23.396152 46.098789 -24.991135
v 32.635399 42.288788 -9.446340
v 28.977802 42.288788 -9.446340
v 32.635399 42.288788 -17.675934
v 28.977802 42.288788 -17.675934
v 23.396152 42.288788 -24.991135
v 26.215553 42.288788 -24.991135
v 26.215553 42.136387 -24.991135
v 23.396152 42.136387 -24.991135
v 28.977802 39.736088 -9.446340
v 32.635399 39.736088 -9.446340
v 23.396152 42.136387 -9.446340
v 23.396152 42.136387 -18.895164
v 26.215553 42.136387 -18.895164
v 26.215553 42.136387 -9.446342
v 23.396152 42.288788 -9.446340
v 23.396152 42.288788 -18.895164
v 23.396152 42.288788 0.002468
v 26.215553 42.288788 -18.895164
v 26.215553 42.288788 -9.446342
v 26.215553 42.288788 0.002468
v 35.664352 32.382790 0.002468
v 33.987953 42.307838 4.879268
v 35.188103 42.307838 4.879268
v 35.188103 42.288788 4.879268
v 33.987953 42.288788 4.879268
v 32.749702 42.307838 4.879268
v 26.653702 42.307838 4.879268
v 26.653702 42.288788 4.879268
v 32.616356 42.288788 0.002468
v 33.987953 42.307838 2.440867
v 35.188103 42.307838 2.440867
v 35.188103 42.288788 2.440867
v 33.987953 42.288788 2.440867
v 35.778656 32.420887 0.002468
v 32.749702 39.850388 3.660068
v 33.340256 39.850388 3.660068
v 32.749702 42.288788 3.660068
v 35.188103 42.307838 3.660068
v 33.987953 42.307838 3.660068
v 33.987953 42.288788 3.660068
v 35.188103 42.288788 3.660068
v 28.234852 34.935490 7.317668
v 28.234852 34.897388 7.298617
v 35.054756 32.382790 0.002468
v 33.835556 32.382790 0.002468
v 33.987953 42.288788 6.098468
v 32.749702 42.288788 2.440867
v 35.188103 42.288788 1.221668
v 32.749702 42.288788 1.221668
v 37.626503 42.288788 1.221668
v 26.653702 42.288788 6.098468
v 32.749702 42.307838 0.002468
v 32.749702 42.307838 1.221668
v 28.863503 41.679188 0.002468
v 35.188103 42.307838 1.221668
v 37.626503 42.307838 1.221668
v 32.749702 42.307838 3.660068
v 33.987953 42.307838 6.098468
v 32.749702 42.307838 2.440867
v 26.653702 42.307838 6.098468
v 28.977802 42.250687 0.002468
v 28.977802 41.679188 0.002468
v 34.445152 32.382790 0.002468
v 33.873650 32.382790 0.002468
v 34.483253 32.382790 0.002468
v 35.778656 32.992390 0.002468
v 35.092850 32.382790 0.002468
v 33.340256 37.983490 0.002468
vn -0.0000 -0.0000 1.0000
vn -0.0000 -0.0000 -1.0000
vn -0.0000 -1.0000 -0.0000
vn -1.0000 -0.0000 -0.0000
vn 1.0000 -0.0000 -0.0000
vn -0.0000 1.0000 -0.0000
vt 0.617622 0.500000
vt 0.617622 0.527344
vt 0.617188 0.527344
vt 0.617188 0.500000
vt 0.617622 0.611111
vt 0.617622 0.522569
vt 0.617622 0.472222
vt 0.618056 0.472222
vt 0.618056 0.611111
vt 0.621962 0.154514
vt 0.621962 0.181858
vt 0.621528 0.181858
vt 0.621528 0.154514
vt 0.621528 0.209201
vt 0.621962 0.209201
vt 0.506945 0.389323
vt 0.506945 0.361111
vt 0.534722 0.361111
vt 0.534722 0.389323
vt 0.534722 0.416667
vt 0.506944 0.416667
vt 0.479167 0.389323
vt 0.479167 0.374566
vt 0.479167 0.361111
vt 0.562500 0.361111
vt 0.562500 0.389323
vt 0.562500 0.416667
vt 0.590278 0.361111
vt 0.590278 0.416667
vt 0.618056 0.361111
vt 0.618056 0.371962
vt 0.618056 0.374566
vt 0.618056 0.472222
vt 0.590278 0.472222
vt 0.479167 0.272569
vt 0.479167 0.222222
vt 0.506945 0.222222
vt 0.506945 0.272569
vt 0.771701 0.708333
vt 0.771701 0.736111
vt 0.771267 0.736111
vt 0.771267 0.708333
vt 0.771701 0.652778
vt 0.771701 0.680556
vt 0.771267 0.680556
vt 0.771267 0.652778
vt 0.771267 0.625000
vt 0.771701 0.625000
vt 0.616754 0.472222
vt 0.616754 0.527778
vt 0.616319 0.527778
vt 0.616319 0.472222
vt 0.617188 0.472222
vt 0.616754 0.500000
vt 0.617188 0.527778
vt 0.616754 0.531250
vt 0.616754 0.559028
vt 0.616319 0.559028
vt 0.616319 0.531250
vt 0.617622 0.472222
vt 0.617188 0.472222
vt 0.616754 0.531250
vt 0.617188 0.531250
vt 0.617188 0.559028
vt 0.616754 0.559028
vt 0.466146 0.763889
vt 0.417535 0.763889
vt 0.417535 0.666667
vt 0.466146 0.666667
vt 0.537327 0.694444
vt 0.582465 0.694444
vt 0.585938 0.694444
vt 0.585938 0.697917
vt 0.537327 0.697917
vt 0.585938 0.791667
vt 0.537327 0.791667
vt 0.612847 0.569444
vt 0.592882 0.569444
vt 0.592882 0.475694
vt 0.592882 0.472222
vt 0.612847 0.472222
vt 0.612847 0.572917
vt 0.612847 0.666667
vt 0.592882 0.666667
vt 0.422743 0.180556
vt 0.422743 0.111111
vt 0.425347 0.111111
vt 0.425347 0.180556
vt 0.367188 0.111111
vt 0.364583 0.111111
vt 0.364583 0.000000
vt 0.425347 0.000000
vt 0.480903 0.222222
vt 0.478299 0.222222
vt 0.465278 0.222222
vt 0.464410 0.222222
vt 0.451389 0.222222
vt 0.450521 0.222222
vt 0.437500 0.222222
vt 0.436632 0.222222
vt 0.425347 0.222222
vt 0.480903 0.000000
vt 0.364583 0.222222
vt 0.309028 0.222222
vt 0.309028 0.111111
vt 0.309028 0.055556
vt 0.309028 0.000000
vt 0.616319 0.472222
vt 0.616319 0.475694
vt 0.614583 0.475694
vt 0.612847 0.475694
vt 0.612847 0.472222
vt 0.616319 0.531250
vt 0.614583 0.531250
vt 0.612847 0.531250
vt 0.616319 0.533854
vt 0.616319 0.534722
vt 0.612847 0.534722
vt 0.347222 0.333333
vt 0.347222 0.277778
vt 0.366320 0.277778
vt 0.366320 0.333333
vt 0.421875 0.333333
vt 0.421875 0.278212
vt 0.421875 0.277778
vt 0.479167 0.277778
vt 0.479167 0.333333
vt 0.421007 0.277778
vt 0.347222 0.222222
vt 0.479167 0.222222
vt 0.368056 0.444444
vt 0.347222 0.444444
vt 0.479167 0.444444
vt 0.537326 0.472222
vt 0.592882 0.472222
vt 0.592882 0.694444
vt 0.537326 0.694444
vt 0.421875 0.444444
vt 0.421875 0.666667
vt 0.420139 0.666667
vt 0.322917 0.666667
vt 0.309896 0.666667
vt 0.309028 0.666667
vt 0.309028 0.444444
vt 0.440972 0.666667
vt 0.436632 0.666667
vt 0.421875 0.666667
vt 0.421875 0.444444
vt 0.440972 0.444444
vt 0.180556 0.208333
vt 0.180556 0.180556
vt 0.180556 0.000000
vt 0.244792 0.000000
vt 0.244792 0.208333
vt 0.800348 0.177083
vt 0.737848 0.177083
vt 0.737848 0.000000
vt 0.800348 0.000000
vt 0.612847 0.534722
vt 0.616320 0.534722
vt 0.616320 0.559028
vt 0.612847 0.559028
vt 0.597222 0.217014
vt 0.597222 0.154514
vt 0.621528 0.154514
vt 0.621528 0.217014
vt 0.612847 0.559028
vt 0.616319 0.559028
vt 0.616319 0.583333
vt 0.612847 0.583333
vt 0.001736 0.000000
vt 0.001736 0.177083
vt 0.000000 0.177083
vt 0.000000 0.000000
vt 0.615451 0.583333
vt 0.617188 0.583333
vt 0.617188 0.607639
vt 0.615451 0.607639
vt 0.090278 0.180556
vt 0.005208 0.180556
vt 0.003472 0.180556
vt 0.003472 0.177083
vt 0.003472 0.000000
vt 0.090278 0.000000
vt 0.005208 0.208333
vt 0.005208 0.204861
vt 0.090278 0.208333
vt 0.001736 0.208333
vt 0.001736 0.204861
vt 0.246528 -0.000000
vt 0.246528 0.003472
vt 0.244792 0.003472
vt 0.244792 -0.000000
vt 0.737848 0.180556
vt 0.736111 0.180556
vt 0.736111 0.000000
vt 0.180556 0.180556
vt 0.178819 0.180556
vt 0.178819 0.000000
vt 0.178819 0.208333
vt 0.178819 0.204861
vt 0.180556 0.204861
vt 0.180556 0.208333
vt 0.090278 0.208333
vt 0.480903 0.138889
vt 0.480903 0.000000
vt 0.494358 0.000000
vt 0.494358 0.111111
vt 0.494358 0.138889
vt 0.494358 0.222222
vt 0.480903 0.222222
vt 0.582900 0.000000
vt 0.582900 0.111111
vt 0.582900 0.222222
vt 0.597222 0.000000
vt 0.597222 0.055556
vt 0.597222 0.111111
vt 0.597222 0.222222
vt 0.311632 0.444444
vt 0.309028 0.444444
vt 0.309028 0.333333
vt 0.309028 0.277778
vt 0.309028 0.222222
vt 0.479167 0.444444
vt 0.479167 0.583333
vt 0.479167 0.666667
vt 0.476563 0.666667
vt 0.615452 0.583333
vt 0.615452 0.611111
vt 0.612847 0.611111
vt 0.612847 0.583333
vt 0.417535 0.777778
vt 0.375868 0.777778
vt 0.364583 0.777778
vt 0.364583 0.750000
vt 0.364583 0.666667
vt 0.417535 0.666667
vt 0.613715 0.782986
vt 0.585938 0.782986
vt 0.585938 0.694444
vt 0.613715 0.694444
vt 0.715712 0.625000
vt 0.715712 0.763889
vt 0.618056 0.763889
vt 0.618056 0.625000
vt 0.715712 0.736111
vt 0.715712 0.652778
vt 0.309028 0.777778
vt 0.309028 0.666667
vt 0.362847 0.666667
vt 0.362847 0.777778
vt 0.364583 0.666667
vt 0.364583 0.694444
vt 0.364583 0.777778
vt 0.597222 0.000000
vt 0.736111 0.000000
vt 0.736111 0.099392
vt 0.736111 0.154514
vt 0.597222 0.154514
vt 0.090278 0.430555
vt 0.076389 0.430555
vt 0.076389 0.375000
vt 0.090278 0.375000
vt 0.013889 0.430555
vt 0.003472 0.430555
vt 0.000000 0.430555
vt 0.000000 0.375000
vt 0.013889 0.375000
vt 0.000000 0.208333
vt 0.180556 0.430555
vt 0.177083 0.430555
vt 0.309028 0.003472
vt 0.309028 0.170139
vt 0.309028 0.225694
vt 0.244792 0.225694
vt 0.180556 0.375000
vt 0.244792 0.430555
vt 0.618056 0.439236
vt 0.618056 0.437500
vt 0.618056 0.223958
vt 0.659288 0.223958
vt 0.701389 0.223958
vt 0.701389 0.437500
vt 0.701389 0.439236
vt 0.701389 0.625000
vt 0.618056 0.625000
vt 0.659288 0.222222
vt 0.701389 0.222222
vt 0.618056 0.222222
vt 0.244792 0.645833
vt 0.244792 0.861112
vt 0.180556 0.861112
vt 0.180556 0.645833
vt 0.244792 1.000000
vt 0.180556 1.000000
vt 0.701389 0.222222
vt 0.701823 0.222222
vt 0.743490 0.222222
vt 0.784722 0.222222
vt 0.784722 0.437500
vt 0.701389 0.437500
vt 0.784722 0.625000
vt 0.701389 0.625000
vt 0.784722 0.222222
vt 0.785590 0.222222
vt 0.798611 0.222222
vt 0.842882 0.222222
vt 0.842882 0.223958
vt 0.842882 0.437500
vt 0.842882 0.439236
vt 0.842882 0.625000
vt 0.479167 0.687500
vt 0.479167 0.473958
vt 0.479167 0.472222
vt 0.537327 0.472222
vt 0.537327 0.687500
vt 0.479167 0.875000
vt 0.479167 0.689236
vt 0.537327 0.875000
vt 0.309028 0.440972
vt 0.309028 0.656251
vt 0.244792 0.656251
vt 0.244792 0.440972
vt 0.309028 0.795139
vt 0.244792 0.795139
vt 0.177083 0.861112
vt 0.177083 0.645833
vt 0.177083 1.000000
vt 0.003472 0.645833
vt 0.003472 0.861112
vt 0.000000 0.861112
vt 0.000000 0.645833
vt 0.003472 1.000000
vt 0.000000 1.000000
vt 0.090278 0.861112
vt 0.090278 0.645833
vt 0.090278 1.000000
s 0
f 189/1/1 188/2/1 187/3/1 186/4/1
f 136/5/2 132/6/2 192/7/2 191/8/2 190/9/2
f 197/10/1 196/11/1 195/12/1 194/13/1
f 205/14/2 204/12/2 203/11/2 202/15/2
f 189/16/3 136/17/3 201/18/3 204/19/3 205/20/3 188/21/3
f 189/16/3 210/22/3 138/23/3 137/24/3 136/17/3
f 201/18/3 211/25/3 197/26/3 204/19/3
f 196/27/3 197/26/3 211/25/3 213/28/3 212/29/3
f 212/29/3 213/28/3 74/30/3 60/31/3 65/32/3 62/33/3 214/34/3
f 137/24/3 133/35/3 215/36/3 192/37/3 132/38/3 136/17/3
f 217/39/4 216/40/4 74/41/4 213/42/4
f 221/43/4 223/44/4 217/39/4 213/42/4 211/45/4 201/46/4 136/47/4 190/48/4
f 212/49/1 214/50/1 220/51/1 219/52/1
f 210/53/5 189/4/5 186/54/5 222/49/5
f 204/4/5 197/55/5 194/50/5 203/54/5
f 188/56/5 205/57/5 202/58/5 187/59/5
f 196/60/5 212/1/5 219/4/5 195/61/5
f 215/62/4 224/63/4 191/64/4 192/65/4
f 4/66/3 3/67/3 2/68/3 1/69/3
f 7/70/6 8/71/6 9/72/6 11/73/6 10/74/6
f 5/75/6 6/76/6 10/74/6 11/73/6
f 3/77/4 5/78/4 11/79/4 9/80/4 2/81/4
f 1/78/5 7/77/5 10/82/5 6/83/5 4/84/5
f 17/85/6 16/86/6 15/87/6 14/88/6
f 15/87/6 16/86/6 23/89/6 19/90/6 21/91/6 20/92/6
f 24/93/6 185/94/6 231/95/6 208/96/6 229/97/6 227/98/6 228/99/6 209/100/6 18/101/6 14/88/6 15/87/6 20/92/6 13/102/6
f 19/90/6 22/103/6 25/104/6 47/105/6 48/106/6 12/107/6 21/91/6
f 29/108/2 28/109/2 32/110/2 27/111/2 26/112/2
f 32/110/2 28/109/2 31/113/2 30/114/2
f 34/115/2 30/114/2 31/113/2 36/116/2 33/117/2 35/118/2
f 46/119/5 45/120/5 44/121/5 43/122/5
f 50/123/5 207/124/5 49/125/5 48/126/5 47/127/5
f 48/126/5 49/125/5 206/128/5 44/121/5 45/120/5 51/129/5 12/130/5
f 37/131/5 41/132/5 46/119/5 43/122/5 50/123/5 47/127/5 25/133/5
f 53/134/3 52/135/3 39/136/3 40/137/3
f 53/138/4 40/139/4 38/140/4 230/141/4 198/142/4 24/143/4 13/144/4
f 42/145/4 232/146/4 39/147/4 52/148/4 54/149/4
f 84/150/3 109/151/3 78/152/3 79/153/3 85/154/3
f 97/155/6 87/156/6 96/157/6 77/158/6
f 101/159/3 100/160/3 99/161/3 98/162/3
f 103/163/3 89/164/3 90/165/3 102/166/3
f 100/167/5 103/168/5 102/169/5 99/170/5
f 105/171/4 104/172/4 97/173/4 77/174/4
f 93/175/5 101/176/5 98/177/5 92/178/5
f 109/179/4 106/180/4 107/181/4 110/182/4 108/183/4 78/184/4
f 104/172/4 105/171/4 108/183/4 110/182/4
f 111/185/4 112/186/4 106/180/4 109/179/4 84/187/4
f 82/188/4 91/189/4 112/186/4 111/185/4
f 86/190/6 83/191/6 114/192/6 113/193/6
f 96/157/6 87/156/6 88/194/6 115/195/6 80/196/6
f 80/152/5 115/197/5 116/198/5 118/199/5
f 119/200/5 117/201/5 113/202/5 114/203/5
f 118/199/5 116/198/5 117/201/5 119/200/5 85/204/5 79/184/5
f 200/205/3 94/206/3 123/207/3 126/208/3 199/209/3 66/210/3 67/211/3
f 126/208/3 123/207/3 125/212/3 124/213/3
f 71/214/3 124/213/3 125/212/3 95/215/3 128/216/3 127/217/3 70/218/3
f 46/119/5 41/132/5 69/219/5 70/220/5 127/221/5
f 51/129/5 45/120/5 128/222/5 95/223/5
f 45/120/5 46/119/5 127/221/5 128/222/5
f 94/224/4 200/225/4 67/226/4 68/227/4 42/145/4 54/149/4
f 133/228/4 132/229/4 131/230/4 130/231/4
f 71/232/5 218/233/5 134/234/5 135/235/5 131/236/5 124/237/5
f 132/238/6 133/239/6 137/240/6 136/241/6
f 129/242/6 63/243/6 64/244/6 139/245/6
f 136/47/4 201/46/4 211/45/4 213/42/4 74/41/4 66/246/4 199/247/4 126/242/4
f 120/248/6 121/249/6 141/250/6 140/251/6
f 130/252/6 131/253/6 135/254/6 140/251/6 141/250/6
f 122/255/3 59/256/3 57/257/3 58/258/3 142/259/3
f 145/260/4 56/261/4 144/262/4 143/263/4
f 55/264/4 184/265/4 148/266/4 147/267/4 146/268/4
f 81/269/4 82/188/4 111/185/4 84/187/4 143/263/4 144/262/4 146/268/4 147/267/4
f 150/270/5 181/271/5 149/260/5 85/204/5 119/200/5 114/203/5
f 114/192/6 83/191/6 81/272/6 147/273/6 148/274/6 150/275/6
f 145/270/3 143/276/3 84/150/3 85/154/3 149/277/3
f 154/278/6 173/279/6 153/280/6 157/281/6 152/282/6 174/283/6 151/284/6
f 154/278/6 151/284/6 156/285/6 155/286/6
f 158/287/6 72/288/6 152/282/6 157/281/6
f 76/289/6 158/287/6 157/281/6 153/280/6
f 162/290/3 161/291/3 160/292/3 159/293/3
f 161/291/3 164/294/3 163/295/3 160/292/3
f 162/290/3 159/293/3 145/270/3 149/277/3
f 73/296/3 193/297/3 61/298/3 75/299/3 166/300/3 165/301/3
f 166/300/3 168/302/3 167/303/3 165/301/3
f 75/304/5 225/305/5 226/306/5 76/307/5 153/308/5 173/309/5 166/300/5
f 173/309/5 154/310/5 155/311/5 168/302/5 166/300/5
f 174/312/4 152/313/4 72/314/4 73/315/4 165/316/4
f 156/317/4 151/318/4 174/312/4 165/316/4 167/319/4
f 178/320/6 177/321/6 176/322/6 175/323/6
f 177/321/6 171/324/6 172/325/6 176/322/6
f 178/320/6 175/323/6 150/275/6 148/274/6
f 175/293/5 176/292/5 180/326/5 179/327/5
f 176/292/5 172/295/5 169/328/5 180/326/5
f 150/270/5 175/293/5 179/327/5 181/271/5
f 183/329/4 182/330/4 177/331/4 178/332/4
f 182/330/4 170/333/4 171/334/4 177/331/4
f 184/265/4 183/329/4 178/332/4 148/266/4
f 179/327/5 180/326/5 161/335/5 162/336/5
f 180/326/5 169/328/5 164/337/5 161/335/5
f 181/271/5 179/327/5 162/336/5 149/260/5
f 182/330/4 183/329/4 159/336/4 160/335/4
f 182/330/4 160/335/4 163/337/4 170/333/4
f 183/329/4 184/265/4 55/264/4 56/261/4 145/260/4 159/336/4
