# Blender 5.0.1
# www.blender.org
mtllib vertigo_ceiling.mtl
o Section2.039
v 38.102753 38.173988 10.975267
v 38.102753 24.762791 10.975267
v 37.797951 24.762791 10.975267
v 37.797951 38.173988 10.975267
v 38.102753 42.212589 10.975267
v 37.797951 42.212589 10.975267
v 23.472353 24.762791 10.975267
v 23.472353 32.077988 10.975267
v 37.797951 32.077988 10.975267
v 23.472353 32.382790 10.975267
v 37.797951 32.382790 10.975267
v 28.158653 37.335789 8.155868
v 28.158653 34.897388 8.155868
v 37.797951 37.335789 10.975267
v 28.234852 37.335789 10.975267
v 28.234852 32.382790 10.975267
v 28.234852 38.173988 10.975267
v 28.158653 38.173988 10.975267
v 28.158653 32.382790 10.975267
v 23.777153 34.897388 8.155868
v 23.777153 37.335789 8.155868
v 23.777153 38.173988 10.975267
v 23.777153 32.382790 10.975267
v 23.472353 38.173988 10.975267
v 23.472353 42.364990 9.908467
v 23.472353 42.364990 10.975267
v 23.472353 42.212589 10.975267
v 23.472353 42.212589 9.908467
v 23.472353 42.136387 9.908467
v 23.472353 42.136387 10.975267
v 23.472353 42.288788 10.975267
v 23.472353 41.983990 10.975267
v 26.215553 42.212589 9.908467
v 26.367952 42.212589 10.975267
v 33.340256 42.212589 10.975267
v 33.340256 38.173988 10.975267
v 33.340256 39.850388 10.975267
v 23.472353 39.850388 10.975267
v 26.215553 42.136387 10.975267
v 26.367952 42.136387 10.975267
v 26.215553 41.983990 10.975267
v 33.340256 41.983990 10.975267
v 33.340256 42.136387 10.975267
v 26.215553 42.364990 10.975267
v 26.215553 42.288788 10.975267
v 26.215553 42.364990 9.908467
v 23.396152 42.136387 9.908467
v 23.396152 42.136387 10.975267
v 23.396152 42.212589 10.975267
v 23.396152 42.212589 9.908467
v 26.425102 42.307838 6.098468
v 26.425102 42.745987 6.098468
v 26.425102 45.489189 6.098468
v 26.425102 42.174488 6.098468
v 28.863503 39.850388 4.879268
v 32.749702 39.850388 4.879268
v 33.206902 45.965439 6.098468
v 33.225952 45.965439 6.098468
v 28.863503 42.174488 6.098468
v 28.863503 42.174488 4.879268
v 28.863503 42.288788 4.879268
v 28.863503 42.288788 6.098468
v 32.749702 42.288788 4.879268
v 32.749702 42.288788 6.098468
v 33.340256 42.288788 6.098468
v 37.626503 42.288788 6.098468
v 37.626503 45.965439 6.098468
v 28.863503 45.965439 6.098468
v 28.787302 42.174488 6.098468
v 26.425102 45.965439 6.098468
v 28.063402 35.526039 7.317668
v 28.063402 35.487938 7.317668
v 28.063402 36.745239 7.317668
v 28.063402 36.707138 7.317668
v 27.453802 37.316738 7.317668
v 27.415703 37.316738 7.317668
v 28.063402 36.135639 7.317668
v 28.063402 36.097538 7.317668
v 33.987953 42.288788 6.098468
v 28.063402 35.526039 7.393867
v 28.063402 35.487938 7.393867
v 28.063402 36.745239 7.393867
v 28.063402 36.707138 7.393867
v 27.415703 37.316738 7.393867
v 27.453802 37.316738 7.393867
v 28.063402 36.135639 7.393867
v 28.063402 36.097538 7.393867
vn 1.0000 -0.0000 -0.0000
vn -0.0000 1.0000 -0.0000
vn -0.0000 -0.0000 -1.0000
vn -1.0000 -0.0000 -0.0000
vn -0.0000 -0.0000 1.0000
vt -29.828125 11.562500
vt -29.796875 11.562500
vt -29.796875 11.500000
vt -29.828125 11.500000
vt -30.828125 11.562500
vt -30.796875 11.562500
vt -30.796875 11.500000
vt -30.828125 11.500000
vt -30.328125 11.562500
vt -30.296875 11.562500
vt -30.296875 11.500000
vt -30.328125 11.500000
vt 23.484375 11.562500
vt 23.515625 11.562500
vt 23.515625 11.500000
vt 23.484375 11.500000
vt 21.167969 -31.507812
vt 27.167969 -31.507812
vt 27.417969 -31.507812
vt 31.480469 -31.507812
vt 32.167969 -31.507812
vt 32.167969 -31.757812
vt 21.167969 -31.757812
vt 35.480469 -31.757812
vt 35.480469 -31.507812
vt 21.167969 -19.757812
vt 27.167969 -19.757812
vt 27.417969 -19.757812
vt 27.417969 -20.007812
vt 27.417969 -23.601562
vt 27.417969 -23.664062
vt 31.480469 -23.664062
vt 32.167969 -23.664062
vt 32.167969 -27.851562
vt 32.167969 -23.601562
vt -20.406250 -28.000000
vt -20.406250 -30.000000
vt -24.000000 -30.000000
vt -24.000000 -28.000000
vt 32.167969 -20.007812
vt 32.167969 -19.757812
vt -35.312500 13.625000
vt -35.312500 14.500000
vt -35.375000 14.500000
vt -35.437500 14.500000
vt -35.437500 13.625000
vt 33.542969 -27.851562
vt 35.292969 -27.851562
vt 35.417969 -27.851562
vt 35.480469 -27.851562
vt 33.542969 -19.757812
vt 35.417969 -22.007812
vt 35.417969 -22.132812
vt 35.292969 -22.007812
vt 35.292969 -19.757812
vt 35.480469 -22.132812
vt -35.375000 23.500000
vt -35.437500 23.500000
vt -35.437500 21.250000
vt -35.375000 21.250000
vt 22.500000 14.500000
vt 22.500000 13.625000
vt 20.250000 13.625000
vt 20.250000 14.500000
vt -35.312500 23.500000
vt -35.312500 21.250000
vt 20.187500 13.625000
vt 20.187500 14.500000
vt -35.312500 21.187500
vt -35.250000 21.250000
vt -35.250000 21.187500
vt 24.000000 -32.000000
vt 24.000000 -33.906250
vt 24.000000 -34.000000
vt 27.187500 -34.000000
vt 27.187500 -32.000000
vt 31.187500 -33.984375
vt 28.203125 -33.984375
vt 27.671875 -33.984375
vt 27.187500 -33.984375
vt 24.000000 -33.984375
vt 24.000000 -37.000000
vt 27.562500 -37.000000
vt 27.578125 -37.000000
vt 31.187500 -37.000000
vt 24.000000 -33.890625
vt 23.937500 -33.890625
vt 22.000000 -33.890625
vt 22.000000 -34.000000
vt 22.000000 -34.359375
vt 22.000000 -36.609375
vt 22.000000 -37.000000
s 0
usemtl vertigo_ceilingb.001
f 80/1/1 81/2/1 72/3/1 71/4/1
f 82/5/1 83/6/1 74/7/1 73/8/1
f 86/9/1 87/10/1 78/11/1 77/12/1
f 84/13/2 85/14/2 75/15/2 76/16/2
f 3/17/3 9/18/3 11/19/3 14/20/3 4/21/3 1/22/3 2/23/3
f 5/24/3 1/22/3 4/21/3 6/25/3
f 7/26/3 8/27/3 9/18/3 3/17/3
f 8/27/3 10/28/3 23/29/3 19/30/3 16/31/3 11/19/3 9/18/3
f 16/31/3 15/32/3 14/20/3 11/19/3
f 17/33/3 36/34/3 4/21/3 14/20/3 15/32/3
f 17/33/3 15/32/3 16/31/3 19/30/3 18/35/3
f 20/36/3 21/37/3 12/38/3 13/39/3
f 23/29/3 22/40/3 18/35/3 19/30/3
f 10/28/3 24/41/3 22/40/3 23/29/3
f 28/42/4 27/43/4 31/44/4 26/45/4 25/46/4
f 36/34/3 37/47/3 42/48/3 43/49/3 35/50/3 6/25/3 4/21/3
f 36/34/3 17/33/3 18/35/3 22/40/3 24/41/3 38/51/3 37/47/3
f 39/52/3 40/53/3 43/49/3 42/48/3 41/54/3
f 32/55/3 41/54/3 42/48/3 37/47/3 38/51/3
f 34/56/3 35/50/3 43/49/3 40/53/3
f 45/57/5 44/58/5 26/59/5 31/60/5
f 44/61/2 46/62/2 25/63/2 26/64/2
f 25/59/3 46/58/3 33/65/3 28/66/3
f 27/64/2 28/63/2 50/67/2 49/68/2
f 50/69/3 28/66/3 29/70/3 47/71/3
f 48/71/5 30/70/5 27/66/5 49/69/5
f 55/72/3 60/73/3 61/74/3 63/75/3 56/76/3
f 66/77/3 79/78/3 65/79/3 64/80/3 62/81/3 68/82/3 57/83/3 58/84/3 67/85/3
f 62/81/3 59/86/3 69/87/3 54/88/3 51/89/3 52/90/3 53/91/3 70/92/3 68/82/3
