# Blender 4.4.3
# www.blender.org
o Walls2
v 0.000000 2.438400 2.057400
v 0.000000 2.438400 0.685800
v 2.438400 0.000000 0.000000
v 2.438400 0.000000 2.352907
v 0.000000 0.000000 2.352907
v 0.000000 0.000000 0.000000
v 2.438400 1.828800 2.352907
v 2.438400 2.438400 2.352907
v 0.000000 2.438400 2.352907
v 2.438400 0.609600 2.352907
v 1.562100 2.438400 0.000000
v 0.381000 2.438400 0.000000
v 0.000000 2.438400 0.000000
v 2.438400 2.438400 0.000000
v 1.562100 2.438400 2.352907
v 0.381000 2.438400 2.352907
v 0.381000 2.438400 2.209800
v 1.562100 2.438400 2.209800
v 2.438400 0.304800 0.000000
v 2.438400 0.304800 2.352907
v -0.514350 0.000000 0.933450
v -0.514350 0.000000 2.352907
v -2.438400 0.000000 2.352907
v -2.438400 0.000000 0.933450
v -0.514350 0.000000 0.000000
v -2.400300 2.438400 2.352907
v -2.438400 0.038100 2.352907
v -2.438400 2.438400 2.352907
v -2.438400 2.400300 0.000000
v -2.438400 2.438400 0.000000
v -2.400300 2.438400 0.000000
v -2.438400 2.400300 1.066800
v -2.438400 2.438400 1.066800
v -2.438400 1.257300 2.352907
v -2.438400 2.438400 1.085850
v -2.438400 1.257300 1.085850
v -2.438400 1.257300 0.933450
v -0.514350 0.000000 0.914400
v -2.438400 0.038100 0.933450
v -2.400300 2.438400 1.066800
v -2.400300 2.438400 1.085850
v -1.828800 2.438400 0.000000
v -1.828800 2.438400 2.352907
v -1.828800 2.438400 2.057400
v -1.828800 2.438400 0.685800
v -2.438400 1.257300 1.066800
v -2.438400 2.400300 0.304800
vn -0.0000 1.0000 -0.0000
vn -0.0000 -1.0000 -0.0000
vn -1.0000 -0.0000 -0.0000
vn 1.0000 -0.0000 -0.0000
vt 0.333333 0.345445
vt 0.000000 0.345445
vt 0.000000 0.000000
vt 0.333333 0.000000
vt 0.333333 0.690890
vt 0.333333 0.566746
vt 0.353607 0.566746
vt 0.666667 0.566746
vt 0.666667 0.690890
vt 0.353607 0.399421
vt 0.333333 0.399421
vt 0.375197 0.345445
vt 0.569510 0.345445
vt 0.666667 0.345445
vt 0.666667 0.399421
vt 0.666667 0.302264
vt 1.000000 0.302264
vt 1.000000 0.345445
vt 0.666667 0.345445
vt 0.666667 0.259084
vt 0.666667 0.086361
vt 0.666667 0.000000
vt 1.000000 0.000000
vt 0.201093 0.690890
vt 0.000000 0.690890
vt 0.000000 0.418312
vt 0.201093 0.418312
vt 0.333333 0.418312
vt 0.203791 0.418312
vt 0.000000 0.690890
vt 0.005398 0.690890
vt 0.005398 0.798841
vt 0.005398 0.842022
vt 0.000000 0.842022
vt 0.846169 0.523565
vt 0.846169 0.690890
vt 0.666667 0.690890
vt 0.666667 0.523565
vt 0.666667 0.350843
vt 0.666667 0.345445
vt 0.867759 0.345445
vt 0.867759 0.350843
vt 0.867759 0.523565
vt 0.848868 0.523565
vt 0.515534 0.005398
vt 0.515534 0.000000
vt 0.666667 0.000000
vt 0.666667 0.005398
vt 0.512836 0.005398
vt 0.333333 0.005398
vt 0.512836 0.000000
vt 0.569510 0.086361
vt 0.375197 0.086361
vt 0.333333 0.086361
vt 0.666667 0.086361
s 0
f 6/1/1 5/2/1 4/3/1 3/4/1
f 8/5/2 15/6/2 18/7/2 11/8/2 14/9/2
f 17/10/2 16/11/2 9/1/2 1/12/2 2/13/2 13/14/2 12/15/2
f 18/7/2 15/6/2 16/11/2 17/10/2
f 20/16/3 19/17/3 3/18/3 4/19/3
f 20/16/3 10/20/3 7/21/3 8/22/3 14/23/3 19/17/3
f 24/24/1 23/25/1 22/26/1 21/27/1
f 25/28/1 38/29/1 21/27/1 22/26/1 5/2/1 6/1/1
f 33/30/4 32/31/4 47/32/4 29/33/4 30/34/4
f 36/35/4 35/36/4 28/37/4 34/38/4
f 27/39/4 23/40/4 24/41/4 39/42/4 37/43/4 46/44/4 36/35/4 34/38/4
f 40/45/2 33/46/2 30/47/2 31/48/2
f 41/49/2 26/50/2 28/4/2 35/51/2
f 45/52/2 44/53/2 43/54/2 26/50/2 41/49/2 40/45/2 31/48/2 42/55/2
f 1/12/2 9/1/2 43/54/2 44/53/2
f 2/13/2 45/52/2 42/55/2 13/14/2
