# Blender 5.0.1
# www.blender.org
mtllib wallColumn.mtl
o wall_column_64.smd.001
v 6.095239 5.505323 0.019050
v 6.095239 5.524374 0.019050
v 6.095239 5.524374 1.200150
v 6.095239 5.505323 1.200150
v 6.133338 5.638673 1.219200
v 6.133338 5.638673 1.200150
v 6.133338 5.600574 1.200150
v 6.133338 5.600574 0.019050
v 6.133338 5.638673 0.019050
v 6.133338 5.638673 0.000000
v 6.133338 5.562473 0.019050
v 6.133338 5.562473 1.200150
v 6.133338 5.524374 1.219200
v 6.133338 5.524374 1.200150
v 6.133338 5.524374 0.000000
v 6.133338 5.524374 0.019050
v 6.133338 5.524374 0.019050
v 6.095239 5.524374 0.019050
v 6.095239 5.505323 0.019050
v 6.142864 5.514848 0.019050
v 6.133338 5.562473 0.019050
v 6.152389 5.562473 0.019050
v 6.133338 5.638673 0.000000
v 6.133338 5.638673 0.019050
v 6.095239 5.638673 0.019050
v 6.133338 5.638673 1.200150
v 6.133338 5.638673 1.219200
v 6.019039 5.638673 1.219200
v 6.095239 5.638673 1.200150
v 6.057138 5.638673 1.200150
v 6.057138 5.638673 0.019050
v 6.019039 5.638673 0.019050
v 6.019039 5.638673 0.000000
v 6.019039 5.638673 1.200150
v 6.019039 5.524374 1.219200
v 6.019039 5.638673 1.219200
v 6.133338 5.638673 1.219200
v 6.133338 5.524374 1.219200
v 6.019039 5.600574 0.019050
v 5.999989 5.600574 0.019050
v 5.999989 5.600574 1.200150
v 6.019039 5.600574 1.200150
v 6.009513 5.648199 0.019050
v 6.057138 5.657723 0.019050
v 6.057138 5.657723 1.200150
v 6.009513 5.648199 1.200150
v 6.152389 5.600574 1.200150
v 6.152389 5.600574 0.019050
v 6.133338 5.600574 0.019050
v 6.133338 5.600574 1.200150
v 6.142864 5.648199 0.019050
v 6.152389 5.600574 0.019050
v 6.152389 5.600574 1.200150
v 6.142864 5.648199 1.200150
v 6.152389 5.600574 1.200150
v 6.133338 5.600574 1.200150
v 6.133338 5.638673 1.200150
v 6.142864 5.648199 1.200150
v 6.095239 5.638673 1.200150
v 6.095239 5.657723 1.200150
v 6.009513 5.648199 1.200150
v 5.999989 5.600574 1.200150
v 5.999989 5.600574 0.019050
v 6.009513 5.648199 0.019050
v 6.057138 5.638673 0.019050
v 6.057138 5.638673 1.200150
v 6.057138 5.657723 1.200150
v 6.057138 5.657723 0.019050
v 6.095239 5.657723 1.200150
v 6.095239 5.638673 1.200150
v 6.095239 5.638673 0.019050
v 6.095239 5.657723 0.019050
v 6.095239 5.657723 1.200150
v 6.095239 5.657723 0.019050
v 6.142864 5.648199 0.019050
v 6.142864 5.648199 1.200150
v 6.142864 5.514848 0.019050
v 6.095239 5.505323 0.019050
v 6.095239 5.505323 1.200150
v 6.142864 5.514848 1.200150
v 6.142864 5.514848 0.019050
v 6.142864 5.514848 1.200150
v 6.152389 5.562473 1.200150
v 6.152389 5.562473 0.019050
v 6.057138 5.505323 0.019050
v 6.057138 5.505323 1.200150
v 6.057138 5.524374 1.200150
v 6.057138 5.524374 0.019050
v 5.999989 5.562473 1.200150
v 6.009513 5.514848 1.200150
v 6.009513 5.514848 0.019050
v 5.999989 5.562473 0.019050
v 6.133338 5.562473 1.200150
v 6.133338 5.562473 0.019050
v 6.152389 5.562473 0.019050
v 6.152389 5.562473 1.200150
v 5.999989 5.562473 1.200150
v 5.999989 5.562473 0.019050
v 6.019039 5.562473 0.019050
v 6.019039 5.562473 1.200150
v 6.057138 5.505323 1.200150
v 6.057138 5.505323 0.019050
v 6.009513 5.514848 0.019050
v 6.009513 5.514848 1.200150
v 6.019039 5.524374 0.000000
v 6.019039 5.638673 0.000000
v 6.019039 5.562473 0.019050
v 6.019039 5.524374 0.019050
v 6.019039 5.638673 0.019050
v 6.019039 5.600574 0.019050
v 6.019039 5.600574 1.200150
v 6.019039 5.562473 1.200150
v 6.019039 5.638673 1.219200
v 6.019039 5.524374 1.200150
v 6.019039 5.524374 1.219200
v 6.019039 5.638673 1.200150
v 6.142864 5.648199 0.019050
v 6.095239 5.657723 0.019050
v 6.095239 5.638673 0.019050
v 6.133338 5.638673 0.019050
v 6.133338 5.600574 0.019050
v 6.152389 5.600574 0.019050
v 6.019039 5.600574 1.200150
v 5.999989 5.600574 1.200150
v 6.009513 5.648199 1.200150
v 6.019039 5.638673 1.200150
v 6.057138 5.657723 1.200150
v 6.057138 5.638673 1.200150
v 6.009513 5.648199 0.019050
v 5.999989 5.600574 0.019050
v 6.019039 5.600574 0.019050
v 6.019039 5.638673 0.019050
v 6.057138 5.657723 0.019050
v 6.057138 5.638673 0.019050
v 6.133338 5.524374 1.219200
v 6.133338 5.524374 1.200150
v 6.095239 5.524374 1.200150
v 6.057138 5.524374 1.200150
v 6.019039 5.524374 1.200150
v 6.019039 5.524374 1.219200
v 6.057138 5.524374 0.019050
v 6.095239 5.524374 0.019050
v 6.019039 5.524374 0.019050
v 6.133338 5.524374 0.019050
v 6.019039 5.524374 0.000000
v 6.133338 5.524374 0.000000
v 6.095239 5.505323 1.200150
v 6.095239 5.524374 1.200150
v 6.133338 5.524374 1.200150
v 6.142864 5.514848 1.200150
v 6.133338 5.562473 1.200150
v 6.152389 5.562473 1.200150
v 6.057138 5.505323 0.019050
v 6.057138 5.524374 0.019050
v 6.019039 5.524374 0.019050
v 6.009513 5.514848 0.019050
v 6.019039 5.562473 0.019050
v 5.999989 5.562473 0.019050
v 6.009513 5.514848 1.200150
v 5.999989 5.562473 1.200150
v 6.019039 5.562473 1.200150
v 6.019039 5.524374 1.200150
v 6.057138 5.505323 1.200150
v 6.057138 5.524374 1.200150
v 4.782014 5.505323 0.019050
v 4.782014 5.524374 0.019050
v 4.782014 5.524374 1.200150
v 4.782014 5.505323 1.200150
v 4.820114 5.638673 1.219200
v 4.820114 5.638673 1.200150
v 4.820114 5.600574 1.200150
v 4.820114 5.600574 0.019050
v 4.820114 5.638673 0.019050
v 4.820114 5.638673 0.000000
v 4.820114 5.562473 0.019050
v 4.820114 5.562473 1.200150
v 4.820114 5.524374 1.219200
v 4.820114 5.524374 1.200150
v 4.820114 5.524374 0.000000
v 4.820114 5.524374 0.019050
v 4.820114 5.524374 0.019050
v 4.782014 5.524374 0.019050
v 4.782014 5.505323 0.019050
v 4.829639 5.514848 0.019050
v 4.820114 5.562473 0.019050
v 4.839164 5.562473 0.019050
v 4.820114 5.638673 0.000000
v 4.820114 5.638673 0.019050
v 4.782014 5.638673 0.019050
v 4.820114 5.638673 1.200150
v 4.820114 5.638673 1.219200
v 4.705814 5.638673 1.219200
v 4.782014 5.638673 1.200150
v 4.743914 5.638673 1.200150
v 4.743914 5.638673 0.019050
v 4.705814 5.638673 0.019050
v 4.705814 5.638673 0.000000
v 4.705814 5.638673 1.200150
v 4.705814 5.524374 1.219200
v 4.705814 5.638673 1.219200
v 4.820114 5.638673 1.219200
v 4.820114 5.524374 1.219200
v 4.705814 5.600574 0.019050
v 4.686764 5.600574 0.019050
v 4.686764 5.600574 1.200150
v 4.705814 5.600574 1.200150
v 4.696289 5.648199 0.019050
v 4.743914 5.657723 0.019050
v 4.743914 5.657723 1.200150
v 4.696289 5.648199 1.200150
v 4.839164 5.600574 1.200150
v 4.839164 5.600574 0.019050
v 4.820114 5.600574 0.019050
v 4.820114 5.600574 1.200150
v 4.829639 5.648199 0.019050
v 4.839164 5.600574 0.019050
v 4.839164 5.600574 1.200150
v 4.829639 5.648199 1.200150
v 4.839164 5.600574 1.200150
v 4.820114 5.600574 1.200150
v 4.820114 5.638673 1.200150
v 4.829639 5.648199 1.200150
v 4.782014 5.638673 1.200150
v 4.782014 5.657723 1.200150
v 4.696289 5.648199 1.200150
v 4.686764 5.600574 1.200150
v 4.686764 5.600574 0.019050
v 4.696289 5.648199 0.019050
v 4.743914 5.638673 0.019050
v 4.743914 5.638673 1.200150
v 4.743914 5.657723 1.200150
v 4.743914 5.657723 0.019050
v 4.782014 5.657723 1.200150
v 4.782014 5.638673 1.200150
v 4.782014 5.638673 0.019050
v 4.782014 5.657723 0.019050
v 4.782014 5.657723 1.200150
v 4.782014 5.657723 0.019050
v 4.829639 5.648199 0.019050
v 4.829639 5.648199 1.200150
v 4.829639 5.514848 0.019050
v 4.782014 5.505323 0.019050
v 4.782014 5.505323 1.200150
v 4.829639 5.514848 1.200150
v 4.829639 5.514848 0.019050
v 4.829639 5.514848 1.200150
v 4.839164 5.562473 1.200150
v 4.839164 5.562473 0.019050
v 4.743914 5.505323 0.019050
v 4.743914 5.505323 1.200150
v 4.743914 5.524374 1.200150
v 4.743914 5.524374 0.019050
v 4.686764 5.562473 1.200150
v 4.696289 5.514848 1.200150
v 4.696289 5.514848 0.019050
v 4.686764 5.562473 0.019050
v 4.820114 5.562473 1.200150
v 4.820114 5.562473 0.019050
v 4.839164 5.562473 0.019050
v 4.839164 5.562473 1.200150
v 4.686764 5.562473 1.200150
v 4.686764 5.562473 0.019050
v 4.705814 5.562473 0.019050
v 4.705814 5.562473 1.200150
v 4.743914 5.505323 1.200150
v 4.743914 5.505323 0.019050
v 4.696289 5.514848 0.019050
v 4.696289 5.514848 1.200150
v 4.705814 5.524374 0.000000
v 4.705814 5.638673 0.000000
v 4.705814 5.562473 0.019050
v 4.705814 5.524374 0.019050
v 4.705814 5.638673 0.019050
v 4.705814 5.600574 0.019050
v 4.705814 5.600574 1.200150
v 4.705814 5.562473 1.200150
v 4.705814 5.638673 1.219200
v 4.705814 5.524374 1.200150
v 4.705814 5.524374 1.219200
v 4.705814 5.638673 1.200150
v 4.829639 5.648199 0.019050
v 4.782014 5.657723 0.019050
v 4.782014 5.638673 0.019050
v 4.820114 5.638673 0.019050
v 4.820114 5.600574 0.019050
v 4.839164 5.600574 0.019050
v 4.705814 5.600574 1.200150
v 4.686764 5.600574 1.200150
v 4.696289 5.648199 1.200150
v 4.705814 5.638673 1.200150
v 4.743914 5.657723 1.200150
v 4.743914 5.638673 1.200150
v 4.696289 5.648199 0.019050
v 4.686764 5.600574 0.019050
v 4.705814 5.600574 0.019050
v 4.705814 5.638673 0.019050
v 4.743914 5.657723 0.019050
v 4.743914 5.638673 0.019050
v 4.820114 5.524374 1.219200
v 4.820114 5.524374 1.200150
v 4.782014 5.524374 1.200150
v 4.743914 5.524374 1.200150
v 4.705814 5.524374 1.200150
v 4.705814 5.524374 1.219200
v 4.743914 5.524374 0.019050
v 4.782014 5.524374 0.019050
v 4.705814 5.524374 0.019050
v 4.820114 5.524374 0.019050
v 4.705814 5.524374 0.000000
v 4.820114 5.524374 0.000000
v 4.782014 5.505323 1.200150
v 4.782014 5.524374 1.200150
v 4.820114 5.524374 1.200150
v 4.829639 5.514848 1.200150
v 4.820114 5.562473 1.200150
v 4.839164 5.562473 1.200150
v 4.743914 5.505323 0.019050
v 4.743914 5.524374 0.019050
v 4.705814 5.524374 0.019050
v 4.696289 5.514848 0.019050
v 4.705814 5.562473 0.019050
v 4.686764 5.562473 0.019050
v 4.696289 5.514848 1.200150
v 4.686764 5.562473 1.200150
v 4.705814 5.562473 1.200150
v 4.705814 5.524374 1.200150
v 4.743914 5.505323 1.200150
v 4.743914 5.524374 1.200150
vn -0.0000 -0.0000 1.0000
vn -0.0000 -0.0000 -1.0000
vn -0.0000 -1.0000 -0.0000
vn -1.0000 -0.0000 -0.0000
vn -0.1961 -0.9806 -0.0000
vn -0.0000 1.0000 -0.0000
vn -0.9806 -0.1961 -0.0000
vn 1.0000 -0.0000 -0.0000
vn 0.9806 -0.1961 -0.0000
vn 0.1961 -0.9806 -0.0000
vn 0.1961 0.9806 -0.0000
vn -0.9806 0.1961 -0.0000
vn 0.9806 0.1961 -0.0000
vn -0.1961 0.9806 -0.0000
vn -0.0003 1.0000 -0.0000
vn -0.0000 -0.9213 0.3888
vn -0.8627 0.4058 0.3018
vt -0.510779 -0.031181
vt -0.518591 -0.031181
vt -0.518591 -0.046806
vt -0.514685 -0.050712
vt -0.534216 -0.046806
vt -0.534216 -0.054618
vt -0.535503 -0.013202
vt -0.539410 -0.032734
vt -0.531597 -0.032734
vt -0.531597 -0.017109
vt -0.515972 -0.009296
vt -0.515972 -0.017109
vt -0.535217 -0.012850
vt -0.539123 -0.032381
vt -0.531310 -0.032381
vt -0.531310 -0.016756
vt -0.515685 -0.008944
vt -0.515685 -0.016756
vt 0.394348 0.000744
vt 0.441223 0.000744
vt 0.441223 0.008556
vt 0.394348 0.008556
vt 0.425598 0.008556
vt 0.409973 0.008556
vt 0.425598 0.492931
vt 0.409973 0.492931
vt 0.441223 0.500744
vt 0.394348 0.500744
vt 0.394348 0.492931
vt 0.441223 0.492931
vt -0.509636 -0.029986
vt -0.517449 -0.029986
vt -0.517449 -0.045611
vt -0.513542 -0.049517
vt -0.533074 -0.045611
vt -0.533074 -0.053424
vt 0.465189 0.500700
vt 0.465189 0.492888
vt 0.480814 0.492888
vt 0.512064 0.492888
vt 0.512064 0.500700
vt 0.496439 0.492888
vt 0.496439 0.008513
vt 0.480814 0.008513
vt 0.465189 0.000700
vt 0.465189 0.008513
vt 0.512064 0.000700
vt 0.512064 0.008513
vt 0.053718 0.997637
vt 0.033800 0.997637
vt 0.033800 0.513262
vt 0.053718 0.513262
vt 0.011595 0.997445
vt 0.003782 0.997445
vt 0.003782 0.513070
vt 0.011595 0.513070
vt 0.124967 0.992933
vt 0.117154 0.992933
vt 0.117154 0.508558
vt 0.124967 0.508558
vt 0.031513 0.513070
vt 0.031513 0.997445
vt 0.061531 0.513262
vt 0.061531 0.997637
vt 0.097236 0.508558
vt 0.097236 0.992933
vt 0.094894 0.508483
vt 0.094894 0.992858
vt 0.074975 0.992858
vt 0.074975 0.508483
vt 0.053308 0.994825
vt 0.033389 0.994825
vt 0.033389 0.510450
vt 0.053308 0.510450
vt 0.061120 0.510450
vt 0.061120 0.994825
vt 0.066785 0.510185
vt 0.074597 0.510185
vt 0.074597 0.994560
vt 0.066785 0.994560
vt 0.096977 0.994644
vt 0.096977 0.510269
vt 0.116895 0.510269
vt 0.116895 0.994644
vt 0.029894 0.510356
vt 0.029894 0.994731
vt 0.009976 0.994731
vt 0.009976 0.510356
vt 0.002164 0.994731
vt 0.002164 0.510356
vt 0.094515 0.510185
vt 0.094515 0.994560
vt 0.124707 0.510269
vt 0.124707 0.994644
vt -0.611157 -0.074086
vt -0.564282 -0.074086
vt -0.564282 -0.027211
vt -0.611157 -0.027211
vt 0.424665 0.493113
vt 0.440290 0.493113
vt 0.440290 0.500926
vt 0.393415 0.000926
vt 0.440290 0.000926
vt 0.440290 0.008738
vt 0.409040 0.008738
vt 0.424665 0.008738
vt 0.409040 0.493113
vt 0.393415 0.493113
vt 0.393415 0.500926
vt 0.393415 0.008738
vt 0.511691 0.000566
vt 0.480441 0.008379
vt 0.464816 0.008379
vt 0.464816 0.000566
vt 0.464816 0.500566
vt 0.464816 0.492754
vt 0.480441 0.492754
vt 0.511691 0.500566
vt 0.496066 0.492754
vt 0.496066 0.008379
vt 0.511691 0.008379
vt 0.511691 0.492754
vt 0.067163 0.992858
vt 0.067163 0.508483
s 1
usemtl office_wallframe
f 163/1/1 164/2/1 162/3/1
f 162/3/1 159/4/1 163/1/1
f 159/4/1 162/3/1 161/5/1
f 161/5/1 160/6/1 159/4/1
f 156/7/2 158/8/2 157/9/2
f 157/9/2 155/10/2 156/7/2
f 155/10/2 153/11/2 156/7/2
f 155/10/2 154/12/2 153/11/2
f 150/13/1 152/14/1 151/15/1
f 150/13/1 151/15/1 149/16/1
f 147/17/1 150/13/1 149/16/1
f 149/16/1 148/18/1 147/17/1
f 145/19/3 146/20/3 144/21/3
f 144/21/3 143/22/3 145/19/3
f 144/21/3 142/23/3 143/22/3
f 142/23/3 141/24/3 143/22/3
f 142/23/3 137/25/3 141/24/3
f 137/25/3 138/26/3 141/24/3
f 135/27/3 138/26/3 137/25/3
f 138/26/3 135/27/3 140/28/3
f 140/28/3 139/29/3 138/26/3
f 137/25/3 136/30/3 135/27/3
f 133/31/2 134/32/2 132/33/2
f 132/33/2 129/34/2 133/31/2
f 129/34/2 132/33/2 131/35/2
f 131/35/2 130/36/2 129/34/2
f 126/16/1 128/18/1 127/17/1
f 126/16/1 127/17/1 125/13/1
f 123/15/1 126/16/1 125/13/1
f 125/13/1 124/14/1 123/15/1
f 117/7/2 122/8/2 121/9/2
f 117/7/2 121/9/2 120/10/2
f 117/7/2 120/10/2 119/12/2
f 119/12/2 118/11/2 117/7/2
f 113/37/4 116/38/4 111/39/4
f 114/40/4 115/41/4 113/37/4
f 113/37/4 112/42/4 114/40/4
f 113/37/4 111/39/4 112/42/4
f 111/39/4 107/43/4 112/42/4
f 107/43/4 111/39/4 110/44/4
f 107/43/4 110/44/4 106/45/4
f 110/44/4 109/46/4 106/45/4
f 105/47/4 108/48/4 107/43/4
f 107/43/4 106/45/4 105/47/4
f 101/49/5 104/50/5 103/51/5
f 103/51/5 102/52/5 101/49/5
f 97/53/6 100/54/6 99/55/6
f 99/55/6 98/56/6 97/53/6
f 93/57/6 96/58/6 95/59/6
f 95/59/6 94/60/6 93/57/6
f 89/53/7 92/56/7 91/61/7
f 91/61/7 90/62/7 89/53/7
f 85/52/8 88/63/8 87/64/8
f 87/64/8 86/49/8 85/52/8
f 81/65/9 84/59/9 83/58/9
f 83/58/9 82/66/9 81/65/9
f 77/67/10 80/68/10 79/69/10
f 79/69/10 78/70/10 77/67/10
f 73/71/11 76/72/11 75/73/11
f 75/73/11 74/74/11 73/71/11
f 69/71/4 72/74/4 71/75/4
f 71/75/4 70/76/4 69/71/4
f 65/77/8 68/78/8 67/79/8
f 67/79/8 66/80/8 65/77/8
f 61/81/12 64/82/12 63/83/12
f 63/83/12 62/84/12 61/81/12
f 58/4/1 60/1/1 59/2/1
f 59/2/1 57/3/1 58/4/1
f 55/6/1 58/4/1 57/3/1
f 57/3/1 56/5/1 55/6/1
f 51/85/13 54/86/13 53/87/13
f 53/87/13 52/88/13 51/85/13
f 47/87/3 50/89/3 49/90/3
f 49/90/3 48/88/3 47/87/3
f 43/91/14 46/92/14 45/79/14
f 45/79/14 44/78/14 43/91/14
f 39/93/3 42/94/3 41/84/3
f 41/84/3 40/83/3 39/93/3
f 35/95/1 38/96/1 37/97/1
f 37/97/1 36/98/1 35/95/1
f 30/99/6 34/100/6 28/101/6
f 23/102/6 33/103/6 32/104/6
f 32/104/6 25/105/6 23/102/6
f 32/104/6 31/106/15 25/105/6
f 25/105/6 31/106/15 30/99/6
f 30/99/6 29/107/6 25/105/6
f 28/101/6 29/107/6 30/99/6
f 28/101/6 26/108/6 29/107/6
f 28/101/6 27/109/6 26/108/6
f 25/105/6 24/110/6 23/102/6
f 21/35/2 22/36/2 20/34/2
f 17/33/2 21/35/2 20/34/2
f 17/33/2 20/34/2 19/31/2
f 19/31/2 18/32/2 17/33/2
f 10/111/8 11/112/8 16/113/8
f 16/113/8 15/114/8 10/111/8
f 13/115/8 14/116/8 12/117/8
f 12/117/8 5/118/8 13/115/8
f 12/117/8 7/119/8 5/118/8
f 12/117/8 11/112/8 7/119/8
f 8/120/8 7/119/8 11/112/8
f 10/111/8 8/120/8 11/112/8
f 10/111/8 9/121/8 8/120/8
f 7/119/8 6/122/8 5/118/8
f 1/70/4 4/69/4 3/123/4
f 3/123/4 2/124/4 1/70/4
f 327/1/1 328/2/1 326/3/1
f 326/3/1 323/4/1 327/1/1
f 323/4/1 326/3/1 325/5/1
f 325/5/1 324/6/1 323/4/1
f 320/7/2 322/8/2 321/9/2
f 321/9/2 319/10/2 320/7/2
f 319/10/2 317/11/2 320/7/2
f 319/10/2 318/12/2 317/11/2
f 314/13/1 316/14/1 315/15/1
f 314/13/1 315/15/1 313/16/1
f 311/17/1 314/13/1 313/16/1
f 313/16/1 312/18/1 311/17/1
f 309/19/3 310/20/3 308/21/3
f 308/21/3 307/22/3 309/19/3
f 308/21/3 306/23/3 307/22/3
f 306/23/3 305/24/16 307/22/3
f 306/23/3 301/25/3 305/24/16
f 301/25/3 302/26/3 305/24/16
f 299/27/3 302/26/3 301/25/3
f 302/26/3 299/27/3 304/28/3
f 304/28/3 303/29/3 302/26/3
f 301/25/3 300/30/3 299/27/3
f 297/31/2 298/32/2 296/33/2
f 296/33/2 293/34/2 297/31/2
f 293/34/2 296/33/2 295/35/2
f 295/35/2 294/36/2 293/34/2
f 290/16/1 292/18/1 291/17/1
f 290/16/1 291/17/1 289/13/1
f 287/15/1 290/16/1 289/13/1
f 289/13/1 288/14/1 287/15/1
f 281/7/2 286/8/2 285/9/2
f 281/7/2 285/9/2 284/10/2
f 281/7/2 284/10/2 283/12/2
f 283/12/2 282/11/2 281/7/2
f 277/37/4 280/38/4 275/39/4
f 278/40/4 279/41/4 277/37/4
f 277/37/4 276/42/4 278/40/4
f 277/37/4 275/39/4 276/42/4
f 275/39/4 271/43/4 276/42/4
f 271/43/4 275/39/4 274/44/4
f 271/43/4 274/44/4 270/45/4
f 274/44/4 273/46/4 270/45/4
f 269/47/4 272/48/4 271/43/4
f 271/43/4 270/45/4 269/47/4
f 265/49/5 268/50/5 267/51/5
f 267/51/5 266/52/5 265/49/5
f 261/53/6 264/54/6 263/55/6
f 263/55/6 262/56/6 261/53/6
f 257/57/6 260/58/6 259/59/6
f 259/59/6 258/60/6 257/57/6
f 253/53/7 256/56/7 255/61/7
f 255/61/7 254/62/7 253/53/7
f 249/52/8 252/63/8 251/64/8
f 251/64/8 250/49/8 249/52/8
f 245/65/9 248/59/9 247/58/9
f 247/58/9 246/66/9 245/65/9
f 241/67/10 244/68/10 243/69/10
f 243/69/10 242/70/10 241/67/10
f 237/71/11 240/72/11 239/73/11
f 239/73/11 238/74/11 237/71/11
f 233/71/4 236/74/4 235/75/4
f 235/75/4 234/76/4 233/71/4
f 229/77/8 232/78/8 231/79/8
f 231/79/8 230/80/8 229/77/8
f 225/81/12 228/82/12 227/83/12
f 227/83/12 226/84/12 225/81/12
f 222/4/1 224/1/1 223/2/1
f 223/2/1 221/3/1 222/4/1
f 219/6/1 222/4/1 221/3/1
f 221/3/1 220/5/1 219/6/1
f 215/85/13 218/86/13 217/87/13
f 217/87/13 216/88/13 215/85/13
f 211/87/3 214/89/3 213/90/3
f 213/90/3 212/88/3 211/87/3
f 207/91/14 210/92/14 209/79/14
f 209/79/14 208/78/14 207/91/14
f 203/93/3 206/94/3 205/84/3
f 205/84/3 204/83/3 203/93/3
f 199/95/1 202/96/1 201/97/1
f 201/97/1 200/98/1 199/95/1
f 194/99/6 198/100/6 192/101/6
f 187/102/6 197/103/6 196/104/6
f 196/104/6 189/105/6 187/102/6
f 196/104/6 195/106/17 189/105/6
f 189/105/6 195/106/17 194/99/6
f 194/99/6 193/107/6 189/105/6
f 192/101/6 193/107/6 194/99/6
f 192/101/6 190/108/6 193/107/6
f 192/101/6 191/109/6 190/108/6
f 189/105/6 188/110/6 187/102/6
f 185/35/2 186/36/2 184/34/2
f 181/33/2 185/35/2 184/34/2
f 181/33/2 184/34/2 183/31/2
f 183/31/2 182/32/2 181/33/2
f 174/111/8 175/112/8 180/113/8
f 180/113/8 179/114/8 174/111/8
f 177/115/8 178/116/8 176/117/8
f 176/117/8 169/118/8 177/115/8
f 176/117/8 171/119/8 169/118/8
f 176/117/8 175/112/8 171/119/8
f 172/120/8 171/119/8 175/112/8
f 174/111/8 172/120/8 175/112/8
f 174/111/8 173/121/8 172/120/8
f 171/119/8 170/122/8 169/118/8
f 165/70/4 168/69/4 167/123/4
f 167/123/4 166/124/4 165/70/4
