# Blender 5.0.1
# www.blender.org
mtllib whiteBoard4.mtl
o Section2.024
v 39.931549 -0.132717 0.609600
v 37.797951 -0.132717 0.609600
v 37.797951 -0.132717 1.828800
v 39.931549 -0.132717 1.828800
v 37.493156 -0.132717 1.828800
v 37.493156 -0.132717 0.609600
vn -0.0000 1.0000 -0.0000
vt -16.000000 1.000000
vt -15.125000 1.000000
vt -15.125000 2.000000
vt -16.000000 2.000000
vt -15.000000 1.000000
vt -15.000000 2.000000
s 0
usemtl CS_WHITEBOARD_04
f 1/1/1 2/2/1 3/3/1 4/4/1
f 6/5/1 5/6/1 3/3/1 2/2/1
